<svg viewBox="0 0 239 277" fill="none" xmlns="http://www.w3.org/2000/svg">
<g opacity="0.402088">
<path d="M215.752 130.329L146.248 22.6713" stroke="#231F20"/>
<path d="M208.752 134.329L139.248 26.6713" stroke="#201C1D"/>
<path d="M203.752 138.329L134.248 30.6713" stroke="#1E1A1C"/>
<path d="M196.752 141.329L127.248 33.6713" stroke="#1C191A"/>
<path d="M190.752 145.329L121.248 37.6713" stroke="#1B1819"/>
<path d="M184.752 149.329L115.248 41.6713" stroke="#191718"/>
<path d="M178.752 154.329L109.248 46.6713" stroke="#181617"/>
<path d="M172.752 159.329L103.248 51.6713" stroke="#171516"/>
<path d="M166.752 162.329L97.2478 54.6713" stroke="#161415"/>
<path d="M160.752 166.329L91.2478 58.6713" stroke="#151314"/>
<path d="M153.752 170.329L84.2478 62.6713" stroke="#151213"/>
<path d="M147.752 174.329L78.2478 66.6713" stroke="#131111"/>
<path d="M141.752 178.329L72.2478 70.6713" stroke="#110F0F"/>
<path d="M135.752 182.329L66.2478 74.6713" stroke="#0F0D0D"/>
<path d="M129.752 186.329L60.2478 78.6713" stroke="#0C0A0A"/>
<path d="M123.752 191.329L54.2478 83.6713" stroke="#080607"/>
<path d="M116.752 195.329L47.2478 87.6713" stroke="#030303"/>
<path d="M110.752 199.329L41.2478 91.6713" stroke="#010202"/>
<path fill-rule="evenodd" clip-rule="evenodd" d="M196.757 48.3797L180.71 108.267L140.168 85.7061L196.757 48.3797Z" fill="#DFCCC2"/>
<path fill-rule="evenodd" clip-rule="evenodd" d="M196.757 48.3797L180.71 108.267L140.168 85.7061L196.757 48.3797Z" stroke="#010202"/>
<path fill-rule="evenodd" clip-rule="evenodd" d="M115.21 186.312C110.135 205.25 121.374 224.716 140.312 229.79C159.25 234.865 178.716 223.626 183.79 204.688C188.865 185.75 177.626 166.284 158.688 161.21C139.75 156.135 120.284 167.374 115.21 186.312ZM182.503 204.343C177.619 222.57 158.884 233.387 140.657 228.503C122.43 223.619 111.613 204.884 116.497 186.657C121.381 168.43 140.116 157.613 158.343 162.497C176.57 167.381 187.387 186.116 182.503 204.343Z" fill="#010202"/>
<path d="M26.5323 132.822L26.5587 131.491C26.7235 131.494 27.0288 131.506 27.4589 131.532C28.1713 131.576 28.9772 131.645 29.8612 131.744C34.993 132.323 40.2104 133.598 44.8353 135.82C51.9493 139.237 56.6071 144.436 57.8394 151.721C59.3375 160.577 55.6504 172.034 45.9344 186.411C36.4773 200.404 33.0902 211.871 34.8227 221.052C36.227 228.494 40.9438 234.208 48.1248 238.43C53.616 241.658 59.8316 243.646 65.5861 244.685C66.0879 244.776 66.5352 244.849 66.9219 244.905C67.1519 244.939 67.3092 244.96 67.3878 244.969L67.2319 246.292C67.141 246.281 66.9712 246.258 66.7286 246.223C66.3277 246.164 65.866 246.089 65.3496 245.995C59.4537 244.931 53.0977 242.898 47.4498 239.578C39.9631 235.176 34.9976 229.161 33.5141 221.299C31.7078 211.727 35.1939 199.925 44.8309 185.665C54.3729 171.546 57.958 160.406 56.5263 151.943C55.3742 145.132 51.0135 140.265 44.2587 137.02C39.7879 134.872 34.7079 133.631 29.712 133.068C28.8514 132.97 28.068 132.904 27.3778 132.861C26.9664 132.836 26.6793 132.825 26.5323 132.822Z" fill="#010202"/>
<path fill-rule="evenodd" clip-rule="evenodd" d="M120.807 24.6621L126.773 26.6907L77.1934 170.338L71.2269 168.309L120.807 24.6621Z" fill="#010202"/>
</g>
</svg>
