<svg width="17" height="21" viewBox="0 0 17 21" fill="none" xmlns="http://www.w3.org/2000/svg">
<path d="M15.2439 5.26585C15.3908 5.61599 15.7937 5.78077 16.1439 5.6339C16.494 5.48704 16.6588 5.08413 16.512 4.73398L15.2439 5.26585ZM12.8803 1.15326C12.5278 1.01224 12.1277 1.18372 11.9866 1.53626C11.8457 1.88879 12.0172 2.2889 12.3697 2.42992L12.8803 1.15326ZM0.532697 4.73398C0.385829 5.08413 0.550609 5.48704 0.900748 5.6339C1.2509 5.78077 1.6538 5.61599 1.80067 5.26585L0.532697 4.73398ZM4.67494 2.42992C5.02748 2.2889 5.19895 1.88879 5.05793 1.53626C4.91692 1.18372 4.51682 1.01224 4.16427 1.15326L4.67494 2.42992ZM10.5808 3.50911H9.89326C9.89326 3.80297 10.0801 4.06435 10.3581 4.15954L10.5808 3.50911ZM6.41923 3.50911L6.64193 4.15954C6.91996 4.06435 7.10677 3.80297 7.10677 3.50911H6.41923ZM11.8938 18.0745C12.0271 17.7189 11.8469 17.3228 11.4913 17.1895C11.1357 17.0562 10.7395 17.2364 10.6062 17.592L11.8938 18.0745ZM6.39379 17.592C6.26054 17.2364 5.8643 17.0562 5.50875 17.1895C5.1532 17.3228 4.97299 17.7189 5.10624 18.0745L6.39379 17.592ZM15.1735 5.09801L15.2439 5.26585L16.512 4.73398L16.4416 4.56615L15.1735 5.09801ZM12.3697 2.42992L12.523 2.49123L13.0337 1.21457L12.8803 1.15326L12.3697 2.42992ZM16.4416 4.56615C15.8003 3.03758 14.5727 1.83019 13.0337 1.21457L12.523 2.49123C13.72 2.97004 14.6749 3.90912 15.1735 5.09801L16.4416 4.56615ZM0.603097 4.56615L0.532697 4.73398L1.80067 5.26585L1.87107 5.09801L0.603097 4.56615ZM4.16427 1.15326L4.01099 1.21457L4.52165 2.49123L4.67494 2.42992L4.16427 1.15326ZM1.87107 5.09801C2.36975 3.90912 3.32462 2.97004 4.52165 2.49123L4.01099 1.21457C2.47195 1.83019 1.24427 3.03758 0.603097 4.56615L1.87107 5.09801ZM13.7958 15.3124H3.20426V16.6874H13.7958V15.3124ZM13.5365 7.80471L13.9464 11.4164L15.3126 11.2614L14.9027 7.64964L13.5365 7.80471ZM3.05363 11.4164L3.46356 7.80471L2.09733 7.64964L1.6874 11.2614L3.05363 11.4164ZM2.10066 13.5784C2.62987 12.9567 2.96361 12.2097 3.05363 11.4164L1.6874 11.2614C1.62977 11.7691 1.4148 12.2628 1.05364 12.6871L2.10066 13.5784ZM13.9464 11.4164C14.0364 12.2097 14.3702 12.9567 14.8994 13.5784L15.9464 12.6871C15.5852 12.2628 15.3702 11.7691 15.3126 11.2614L13.9464 11.4164ZM3.20426 15.3124C2.6038 15.3124 2.17908 15.0154 1.98303 14.67C1.79377 14.3365 1.79656 13.9356 2.10066 13.5784L1.05364 12.6871C0.352142 13.5112 0.330472 14.5439 0.787164 15.3486C1.23707 16.1415 2.1287 16.6874 3.20426 16.6874V15.3124ZM13.7958 16.6874C14.8713 16.6874 15.7629 16.1415 16.2128 15.3486C16.6695 14.5439 16.6479 13.5112 15.9464 12.6871L14.8994 13.5784C15.2035 13.9356 15.2063 14.3365 15.017 14.67C14.821 15.0154 14.3962 15.3124 13.7958 15.3124V16.6874ZM11.2683 3.50911V3.41404H9.89326V3.50911H11.2683ZM14.9027 7.64964C14.6467 5.39432 12.9739 3.60178 10.8035 2.85868L10.3581 4.15954C12.1154 4.76124 13.3504 6.16501 13.5365 7.80471L14.9027 7.64964ZM7.10677 3.50911V3.41404H5.73173V3.50911H7.10677ZM3.46356 7.80471C3.64966 6.16501 4.88456 4.76124 6.64193 4.15954L6.19653 2.85868C4.02617 3.60178 2.3533 5.39432 2.09733 7.64964L3.46356 7.80471ZM8.50002 2.02075C9.26947 2.02075 9.89326 2.64454 9.89326 3.41404H11.2683C11.2683 1.88516 10.0289 0.645752 8.50002 0.645752V2.02075ZM8.50002 0.645752C6.97111 0.645752 5.73173 1.88516 5.73173 3.41404H7.10677C7.10677 2.64454 7.73057 2.02075 8.50002 2.02075V0.645752ZM10.6062 17.592C10.3104 18.3813 9.49423 18.9791 8.50002 18.9791V20.3541C10.0451 20.3541 11.389 19.4214 11.8938 18.0745L10.6062 17.592ZM8.50002 18.9791C7.5058 18.9791 6.6896 18.3813 6.39379 17.592L5.10624 18.0745C5.611 19.4214 6.95497 20.3541 8.50002 20.3541V18.9791Z" fill="#313C45"/>
</svg>
