<svg width="107" height="19" viewBox="0 0 107 19" fill="none" xmlns="http://www.w3.org/2000/svg">
<path d="M17.4861 7.82709C17.4556 7.73528 17.3788 7.66526 17.2831 7.64221L12.7228 6.53878L10.2423 2.63178C10.1902 2.54975 10.0986 2.5 10 2.5C9.90141 2.5 9.80982 2.54975 9.75774 2.63178L7.27722 6.53878L2.71694 7.64221C2.62121 7.66526 2.54445 7.73528 2.51391 7.82709C2.48353 7.9189 2.50364 8.0198 2.56713 8.09358L5.59438 11.6117L5.25653 16.2005C5.2494 16.2968 5.29377 16.3898 5.37338 16.4467C5.45356 16.5035 5.55757 16.5158 5.6486 16.4794L10 14.7467L14.3514 16.4794C14.3859 16.4933 14.4225 16.5 14.4588 16.5C14.5182 16.5 14.577 16.4818 14.6266 16.4466C14.7064 16.3898 14.7506 16.2968 14.7435 16.2003L14.4056 11.6115L17.4329 8.09344C17.4964 8.0198 17.5165 7.91904 17.4861 7.82709Z" fill="#C1C1C1"/>
<path d="M39.4861 7.82709C39.4556 7.73528 39.3788 7.66526 39.2831 7.64221L34.7228 6.53878L32.2423 2.63178C32.1902 2.54975 32.0986 2.5 32 2.5C31.9014 2.5 31.8098 2.54975 31.7577 2.63178L29.2772 6.53878L24.7169 7.64221C24.6212 7.66526 24.5444 7.73528 24.5139 7.82709C24.4835 7.9189 24.5036 8.0198 24.5671 8.09358L27.5944 11.6117L27.2565 16.2005C27.2494 16.2968 27.2938 16.3898 27.3734 16.4467C27.4536 16.5035 27.5576 16.5158 27.6486 16.4794L32 14.7467L36.3514 16.4794C36.3859 16.4933 36.4225 16.5 36.4588 16.5C36.5182 16.5 36.577 16.4818 36.6266 16.4466C36.7064 16.3898 36.7506 16.2968 36.7435 16.2003L36.4056 11.6115L39.4329 8.09344C39.4964 8.0198 39.5165 7.91904 39.4861 7.82709Z" fill="#C1C1C1"/>
<path d="M61.4861 7.82709C61.4556 7.73528 61.3788 7.66526 61.2831 7.64221L56.7228 6.53878L54.2423 2.63178C54.1902 2.54975 54.0986 2.5 54 2.5C53.9014 2.5 53.8098 2.54975 53.7577 2.63178L51.2772 6.53878L46.7169 7.64221C46.6212 7.66526 46.5444 7.73528 46.5139 7.82709C46.4835 7.9189 46.5036 8.0198 46.5671 8.09358L49.5944 11.6117L49.2565 16.2005C49.2494 16.2968 49.2938 16.3898 49.3734 16.4467C49.4536 16.5035 49.5576 16.5158 49.6486 16.4794L54 14.7467L58.3514 16.4794C58.3859 16.4933 58.4225 16.5 58.4588 16.5C58.5182 16.5 58.577 16.4818 58.6266 16.4466C58.7064 16.3898 58.7506 16.2968 58.7435 16.2003L58.4056 11.6115L61.4329 8.09344C61.4964 8.0198 61.5165 7.91904 61.4861 7.82709Z" fill="#C1C1C1"/>
<path d="M83.4861 7.82709C83.4556 7.73528 83.3788 7.66526 83.2831 7.64221L78.7228 6.53878L76.2423 2.63178C76.1902 2.54975 76.0986 2.5 76 2.5C75.9014 2.5 75.8098 2.54975 75.7577 2.63178L73.2772 6.53878L68.7169 7.64221C68.6212 7.66526 68.5444 7.73528 68.5139 7.82709C68.4835 7.9189 68.5036 8.0198 68.5671 8.09358L71.5944 11.6117L71.2565 16.2005C71.2494 16.2968 71.2938 16.3898 71.3734 16.4467C71.4536 16.5035 71.5576 16.5158 71.6486 16.4794L76 14.7467L80.3514 16.4794C80.3859 16.4933 80.4225 16.5 80.4588 16.5C80.5182 16.5 80.577 16.4818 80.6266 16.4466C80.7064 16.3898 80.7506 16.2968 80.7435 16.2003L80.4056 11.6115L83.4329 8.09344C83.4964 8.0198 83.5165 7.91904 83.4861 7.82709Z" fill="#C1C1C1"/>
<path d="M105.486 7.82709C105.456 7.73528 105.379 7.66526 105.283 7.64221L100.723 6.53878L98.2423 2.63178C98.1902 2.54975 98.0986 2.5 98 2.5C97.9014 2.5 97.8098 2.54975 97.7577 2.63178L95.2772 6.53878L90.7169 7.64221C90.6212 7.66526 90.5444 7.73528 90.5139 7.82709C90.4835 7.9189 90.5036 8.0198 90.5671 8.09358L93.5944 11.6117L93.2565 16.2005C93.2494 16.2968 93.2938 16.3898 93.3734 16.4467C93.4536 16.5035 93.5576 16.5158 93.6486 16.4794L98 14.7467L102.351 16.4794C102.386 16.4933 102.422 16.5 102.459 16.5C102.518 16.5 102.577 16.4818 102.627 16.4466C102.706 16.3898 102.751 16.2968 102.743 16.2003L102.406 11.6115L105.433 8.09344C105.496 8.0198 105.516 7.91904 105.486 7.82709Z" fill="#C1C1C1"/>
</svg>
