<svg width="41" height="30" viewBox="0 0 41 30" fill="none" xmlns="http://www.w3.org/2000/svg">
<path d="M31.4086 18.0361C32.0173 18.0361 32.5325 18.5847 32.2674 19.1326C32.2452 19.1784 32.2222 19.2237 32.1983 19.2685C31.9709 19.8858 31.616 20.4208 31.263 20.9599C30.9679 21.5431 30.4475 21.9379 30.0646 22.4369C29.6638 22.9218 29.1174 23.2445 28.6847 23.6473C28.26 24.0681 27.7036 24.2786 27.261 24.5752C26.7983 24.8417 26.3955 25.1363 25.9648 25.2766L24.89 25.7214C24.3464 25.9485 24.05 26.5385 24.1923 27.1102L24.616 28.8114C24.7797 29.469 25.4437 29.8711 26.1024 29.7114C26.4833 29.6152 26.9479 29.503 27.4763 29.3687C28.0167 29.2685 28.593 28.994 29.2351 28.7435C29.8692 28.4589 30.603 28.2665 31.285 27.8096C31.9709 27.3727 32.7626 27.008 33.4605 26.4228C34.1365 25.8196 34.9521 25.2966 35.5543 24.5291C36.2123 23.8116 36.8624 23.0581 37.3669 22.2004C37.9511 21.3828 38.348 20.485 38.7667 19.5972C39.1456 18.7094 39.4507 17.8016 39.6999 16.9198C40.1725 15.1523 40.3839 13.4729 40.4656 12.0361C40.5334 10.5972 40.4936 9.4008 40.4098 8.53507C40.3799 8.12626 40.3241 7.72946 40.2842 7.45491L40.2384 7.14539C40.2362 7.13077 40.222 7.1211 40.2076 7.12444C40.1938 7.12764 40.1801 7.11889 40.1771 7.10505C39.8196 5.44983 39.0054 3.92906 37.8276 2.71708C36.6438 1.49894 35.141 0.642506 33.4931 0.246847C31.8452 -0.148811 30.1196 -0.0675259 28.5157 0.481298C26.9119 1.03012 25.4954 2.02406 24.4302 3.34813C23.3649 4.67221 22.6945 6.27231 22.4963 7.96334C22.2981 9.65437 22.5804 11.3672 23.3104 12.9038C24.0405 14.4403 25.1884 15.7377 26.6215 16.646C28.0547 17.5542 29.7143 18.0362 31.4086 18.0361ZM9.47389 18.0361C10.0826 18.0361 10.5978 18.5847 10.3327 19.1326C10.3105 19.1784 10.2875 19.2237 10.2635 19.2685C10.0362 19.8858 9.68127 20.4208 9.32833 20.9599C9.03321 21.5431 8.51275 21.9379 8.12989 22.4369C7.72909 22.9218 7.18271 23.2445 6.75 23.6473C6.32527 24.0681 5.76892 24.2786 5.32624 24.5752C4.86361 24.8417 4.46082 25.1363 4.0301 25.2766L2.9553 25.7214C2.41166 25.9485 2.11526 26.5385 2.25763 27.1102L2.68124 28.8114C2.84501 29.469 3.50902 29.8711 4.16769 29.7114C4.54856 29.6152 5.01317 29.503 5.5416 29.3687C6.08199 29.2685 6.65827 28.994 7.30036 28.7435C7.93248 28.4569 8.66829 28.2665 9.35026 27.8076C10.0362 27.3707 10.8279 27.006 11.5258 26.4208C12.2018 25.8176 13.0173 25.2946 13.6196 24.5291C14.2776 23.8116 14.9277 23.0581 15.4322 22.2004C16.0164 21.3828 16.4132 20.485 16.832 19.5972C17.2109 18.7094 17.516 17.8016 17.7652 16.9198C18.2378 15.1523 18.4492 13.4729 18.5309 12.0361C18.5987 10.5972 18.5589 9.4008 18.4751 8.53507C18.4452 8.12626 18.3894 7.72946 18.3495 7.45491L18.3036 7.14539C18.3015 7.13077 18.2873 7.1211 18.2729 7.12444C18.2591 7.12764 18.2454 7.11889 18.2424 7.10505C17.8849 5.44983 17.0707 3.92906 15.8929 2.71708C14.7091 1.49894 13.2063 0.642506 11.5584 0.246847C9.91052 -0.148811 8.18484 -0.0675259 6.581 0.481298C4.97715 1.03012 3.56068 2.02406 2.49545 3.34813C1.43021 4.67221 0.759735 6.27231 0.561584 7.96334C0.36343 9.65437 0.645699 11.3672 1.37573 12.9038C2.10576 14.4403 3.25373 15.7377 4.68684 16.646C6.11995 17.5542 7.77962 18.0362 9.47389 18.0361Z" fill="url(#paint0_linear_103_1225)"/>
<defs>
<linearGradient id="paint0_linear_103_1225" x1="40.5" y1="15" x2="0.5" y2="15" gradientUnits="userSpaceOnUse">
<stop stop-color="#00C4CC"/>
<stop offset="1" stop-color="#8B3DFF"/>
</linearGradient>
</defs>
</svg>
