<svg aria-hidden="true" xmlns="http://www.w3.org/2000/svg" xmlns:xlink="http://www.w3.org/1999/xlink"><symbol viewBox="0 0 29 33" fill="none" id="arrow-play" xmlns="http://www.w3.org/2000/svg">
<path d="M28 14.768C29.3333 15.5378 29.3333 17.4622 28 18.232L3.25 32.5215C1.91666 33.2913 0.25 32.329 0.25 30.7894L0.25 2.21058C0.25 0.670975 1.91667 -0.29127 3.25 0.47853L28 14.768Z" fill="currentColor"/>
</symbol><symbol viewBox="0 0 14 8" fill="none" id="arrow-slide" xmlns="http://www.w3.org/2000/svg">
<path d="M13.5987 3.56272H2.18977L4.81464 0.93786L4.19593 0.319153L0.514832 4.00025L4.19593 7.68135L4.81464 7.06264L2.18972 4.43772H13.5987V3.56272Z" fill="currentColor"/>
</symbol><symbol viewBox="0 0 11 19" fill="none" id="facebook" xmlns="http://www.w3.org/2000/svg">
<path d="M9.64844 10.8906L10.1335 7.70269H7.04963V5.62364C7.04963 4.72272 7.46544 3.8911 8.85147 3.8911H10.2722V1.15369C10.2722 1.15369 8.99007 0.911133 7.77729 0.911133C5.24778 0.911133 3.58455 2.47042 3.58455 5.24248V7.70269H0.743179V10.8906H3.58455V18.6523H7.04963V10.8906H9.64844Z" fill="currentColor"/>
</symbol><symbol viewBox="0 0 23 14" fill="none" id="google" xmlns="http://www.w3.org/2000/svg">
<path d="M13.9487 6.16291H7.64226V8.44986H11.4192C11.2806 9.42009 10.2757 11.3259 7.64226 11.3259C5.38996 11.3259 3.51881 9.45474 3.51881 7.09848C3.51881 4.77688 5.38996 2.90573 7.64226 2.90573C8.95899 2.90573 9.82526 3.46015 10.3104 3.94526L12.1122 2.21272C10.9341 1.10389 9.4441 0.445526 7.64226 0.445526C3.96927 0.445526 0.989304 3.4255 0.989304 7.09848C0.989304 10.8061 3.96927 13.7514 7.64226 13.7514C11.4885 13.7514 14.0527 11.0833 14.0527 7.27174C14.0527 6.82128 13.9834 6.50942 13.9487 6.16291ZM20.3591 6.37081V4.46502H18.4187V6.37081H16.4782V8.31126H18.4187V10.2517H20.3591V8.31126H22.2996V6.37081H20.3591Z" fill="currentColor"/>
</symbol><symbol viewBox="0 0 17 16" fill="none" id="linkedin" xmlns="http://www.w3.org/2000/svg">
<path d="M4.28393 15.6673V5.30666H1.0614V15.6673H4.28393ZM2.65534 3.92063C3.69486 3.92063 4.52648 3.05436 4.52648 2.01484C4.52648 1.00996 3.69486 0.178345 2.65534 0.178345C1.65047 0.178345 0.818848 1.00996 0.818848 2.01484C0.818848 3.05436 1.65047 3.92063 2.65534 3.92063ZM16.3078 15.6673H16.3424V9.98452C16.3424 7.21246 15.7187 5.06411 12.4615 5.06411C10.9022 5.06411 9.86271 5.93038 9.41225 6.72735H9.3776V5.30666H6.29368V15.6673H9.5162V10.5389C9.5162 9.18756 9.75876 7.90548 11.422 7.90548C13.0852 7.90548 13.1199 9.43011 13.1199 10.6429V15.6673H16.3078Z" fill="currentColor"/>
</symbol><symbol viewBox="0 0 18 15" fill="none" id="twitter" xmlns="http://www.w3.org/2000/svg">
<path d="M16.1355 4.01386C16.8285 3.4941 17.4522 2.87038 17.9373 2.14271C17.3136 2.41992 16.5859 2.62783 15.8582 2.69713C16.6206 2.24667 17.175 1.55365 17.4522 0.68738C16.7592 1.10319 15.9622 1.41505 15.1652 1.5883C14.4722 0.860634 13.5366 0.444824 12.4971 0.444824C10.4874 0.444824 8.85878 2.07341 8.85878 4.08316C8.85878 4.36037 8.89343 4.63757 8.96273 4.91478C5.94811 4.74152 3.24535 3.28619 1.44351 1.10319C1.13165 1.62295 0.958395 2.24667 0.958395 2.93968C0.958395 4.18711 1.58211 5.29594 2.58698 5.9543C1.99792 5.91965 1.40886 5.78105 0.923744 5.50384V5.53849C0.923744 7.30569 2.17117 8.76102 3.83441 9.10753C3.55721 9.17683 3.2107 9.24613 2.89884 9.24613C2.65629 9.24613 2.44838 9.21148 2.20582 9.17683C2.65629 10.6322 4.00767 11.6717 5.6016 11.7063C4.35417 12.6766 2.79489 13.2656 1.097 13.2656C0.785141 13.2656 0.507935 13.231 0.230728 13.1963C1.82467 14.2358 3.73046 14.8249 5.80951 14.8249C12.4971 14.8249 16.1355 9.31543 16.1355 4.49897C16.1355 4.32572 16.1355 4.18711 16.1355 4.01386Z" fill="currentColor"/>
</symbol></svg>