<?xml version="1.0" encoding="UTF-8" standalone="no"?>
<svg
   width="18"
   height="16"
   viewBox="0 0 18 16"
   fill="none"
   version="1.1"
   id="svg2"
   sodipodi:docname="arrow-link.svg"
   inkscape:version="1.3.2 (091e20e, 2023-11-25, custom)"
   xmlns:inkscape="http://www.inkscape.org/namespaces/inkscape"
   xmlns:sodipodi="http://sodipodi.sourceforge.net/DTD/sodipodi-0.dtd"
   xmlns="http://www.w3.org/2000/svg"
   xmlns:svg="http://www.w3.org/2000/svg">
  <defs
     id="defs2" />
  <sodipodi:namedview
     id="namedview2"
     pagecolor="#ffffff"
     bordercolor="#000000"
     borderopacity="0.25"
     inkscape:showpageshadow="2"
     inkscape:pageopacity="0.0"
     inkscape:pagecheckerboard="0"
     inkscape:deskcolor="#d1d1d1"
     inkscape:zoom="48.5625"
     inkscape:cx="8.998713"
     inkscape:cy="8"
     inkscape:window-width="1920"
     inkscape:window-height="991"
     inkscape:window-x="-9"
     inkscape:window-y="-9"
     inkscape:window-maximized="1"
     inkscape:current-layer="svg2" />
  <path
     style="color:#000000;fill:#ff7235;stroke-linecap:round;stroke-linejoin:round;-inkscape-stroke:none"
     d="M 1,7 A 1,1 0 0 0 0,8 1,1 0 0 0 1,9 H 17 A 1,1 0 0 0 18,8 1,1 0 0 0 17,7 Z"
     id="path1" />
  <path
     style="color:#000000;fill:#ff7235;stroke-linecap:round;stroke-linejoin:round;-inkscape-stroke:none"
     d="m 10,0 a 1,1 0 0 0 -0.7070312,0.29296875 1,1 0 0 0 0,1.41406245 L 15.585938,8 9.2929688,14.292969 a 1,1 0 0 0 0,1.414062 1,1 0 0 0 1.4140622,0 l 7,-6.9999997 a 1.0001,1.0001 0 0 0 0,-1.4140626 l -7,-6.99999995 A 1,1 0 0 0 10,0 Z"
     id="path2" />
</svg>
