<svg width="34" height="41" viewBox="0 0 34 41" fill="none" xmlns="http://www.w3.org/2000/svg">
<path d="M33.7138 16.0301C33.4347 13.1258 32.4083 10.3432 30.7345 7.95333C29.0606 5.56346 26.7965 3.64778 24.1624 2.3928C21.5284 1.13783 18.6143 0.586344 15.7038 0.792048C12.7933 0.997751 9.98572 1.95363 7.55438 3.56661C5.46559 4.96333 3.71206 6.80533 2.41978 8.96029C1.12749 11.1152 0.328512 13.5297 0.0802461 16.0301C-0.163295 18.5142 0.149171 21.0213 0.994973 23.3696C1.84077 25.7179 3.1987 27.8485 4.97023 29.6068L15.5056 40.162C15.6904 40.3483 15.9102 40.4962 16.1525 40.5971C16.3947 40.698 16.6545 40.75 16.9169 40.75C17.1793 40.75 17.4391 40.698 17.6814 40.5971C17.9236 40.4962 18.1435 40.3483 18.3283 40.162L28.8238 29.6068C30.5954 27.8485 31.9533 25.7179 32.7991 23.3696C33.6449 21.0213 33.9574 18.5142 33.7138 16.0301ZM26.0409 26.804L16.897 35.9479L7.75316 26.804C6.4056 25.4564 5.37336 23.8269 4.73064 22.0328C4.08792 20.2387 3.85068 18.3244 4.03597 16.4277C4.22246 14.5017 4.83459 12.6412 5.82811 10.9808C6.82163 9.32035 8.1717 7.90142 9.78071 6.8266C11.8897 5.42567 14.3652 4.67838 16.897 4.67838C19.4289 4.67838 21.9044 5.42567 24.0134 6.8266C25.6175 7.89727 26.9646 9.30993 27.9579 10.9631C28.9511 12.6163 29.5659 14.4689 29.7581 16.3879C29.9494 18.2911 29.7152 20.213 29.0723 22.0145C28.4294 23.816 27.3939 25.452 26.0409 26.804ZM16.897 8.8144C15.1279 8.8144 13.3984 9.33903 11.9274 10.3219C10.4564 11.3048 9.30987 12.7019 8.63284 14.3364C7.95581 15.9709 7.77866 17.7694 8.12381 19.5046C8.46896 21.2398 9.3209 22.8337 10.5719 24.0846C11.8229 25.3356 13.4168 26.1876 15.1519 26.5327C16.8871 26.8779 18.6857 26.7007 20.3202 26.0237C21.9547 25.3467 23.3517 24.2002 24.3346 22.7291C25.3175 21.2581 25.8421 19.5287 25.8421 17.7595C25.8369 15.3887 24.8928 13.1166 23.2164 11.4402C21.54 9.76377 19.2678 8.81966 16.897 8.8144ZM16.897 22.729C15.9142 22.729 14.9534 22.4375 14.1361 21.8915C13.3189 21.3454 12.6819 20.5693 12.3058 19.6613C11.9297 18.7532 11.8313 17.754 12.023 16.79C12.2148 15.826 12.6881 14.9405 13.3831 14.2455C14.0781 13.5505 14.9635 13.0772 15.9275 12.8855C16.8915 12.6937 17.8907 12.7922 18.7988 13.1683C19.7068 13.5444 20.483 14.1814 21.029 14.9986C21.5751 15.8158 21.8665 16.7766 21.8665 17.7595C21.8665 19.0775 21.343 20.3415 20.411 21.2735C19.479 22.2054 18.215 22.729 16.897 22.729Z" fill="#FFBC57"/>
</svg>
