<svg width="68" height="63" viewBox="0 0 68 63" fill="none" xmlns="http://www.w3.org/2000/svg">
<g filter="url(#filter0_d_151_146)">
<path d="M58.3108 32.3986C55.0359 31.284 50.7048 30.6702 46.1158 30.6702C45.8289 30.6702 45.5431 30.6725 45.2586 30.6773C40.9894 30.7488 36.991 31.3536 33.9207 32.3986C33.428 32.5653 32.9424 32.7523 32.4651 32.9589V14.2325C32.4651 6.38472 26.0805 0 18.2325 0C10.3846 0 4 6.38472 4 14.2325V39.9261C4 47.7739 10.3846 54.1587 18.2325 54.1587C20.722 54.1587 23.1722 53.5062 25.3188 52.2717C26.6721 51.4934 27.8881 50.4936 28.9168 49.3257C29.6645 50.3761 31.1451 51.4856 33.9208 52.4303C37.1957 53.5448 41.5266 54.1587 46.1157 54.1587C50.7047 54.1587 55.0357 53.5448 58.3107 52.4303C63.0129 50.83 64 48.7566 64 47.299V37.5299C64 36.0723 63.0129 33.9989 58.3108 32.3986ZM30.5754 37.5299C30.5759 37.4863 30.5798 37.4428 30.5871 37.3998L30.5891 37.3882C30.6289 37.1764 30.7563 36.9305 30.9907 36.6639L30.9952 36.6589C31.0307 36.6187 31.0695 36.578 31.1099 36.5368C31.137 36.5096 31.1641 36.4823 31.193 36.4552L31.2271 36.4233C31.4235 36.2422 31.6601 36.0603 31.9332 35.8825C31.9379 35.8794 31.9418 35.8757 31.9464 35.8726C32.5871 35.4565 33.478 35.025 34.6759 34.6173C37.7141 33.5834 41.7769 33.0138 46.1158 33.0138C50.0691 33.0139 53.7904 33.488 56.719 34.3541L31.6397 38.9756C30.8868 38.4213 30.5767 37.9077 30.5754 37.5323V37.5299ZM30.1213 34.2903C29.2179 34.9825 28.7144 35.6857 28.4591 36.3382C28.3731 36.5576 28.3108 36.7855 28.2733 37.0181C28.2561 37.1239 28.2443 37.2305 28.2379 37.3375L28.2359 37.3677C28.2331 37.4224 28.2313 37.4766 28.2313 37.5298V46.3609C26.0289 49.7824 22.315 51.8149 18.2325 51.8149C11.6771 51.8149 6.34375 46.4816 6.34375 39.9261V28.2512H8.6875V34.5793C8.6875 35.2266 9.21227 35.7512 9.85938 35.7512C10.5065 35.7512 11.0312 35.2266 11.0312 34.5793V28.2512H30.1213V34.2903ZM30.1213 25.9075H11.0312V14.2325C11.0312 10.2618 14.2616 7.03125 18.2325 7.03125C22.2034 7.03125 25.4338 10.2618 25.4338 14.2325C25.4338 14.8798 25.9586 15.4044 26.6057 15.4044C27.2529 15.4044 27.7776 14.8798 27.7776 14.2325C27.7776 8.96941 23.4957 4.6875 18.2325 4.6875C12.9694 4.6875 8.6875 8.96941 8.6875 14.2325V25.9075H6.34375V14.2325C6.34375 7.67707 11.6771 2.34375 18.2325 2.34375C24.788 2.34375 30.1213 7.67707 30.1213 14.2325V25.9075ZM61.6562 47.299C61.6562 47.9987 60.5823 49.1814 57.5556 50.2116C54.5174 51.2455 50.4546 51.815 46.1158 51.815C41.7769 51.815 37.7141 51.2456 34.6759 50.2116C31.6492 49.1815 30.5753 47.9988 30.5753 47.299V46.6986L30.5754 46.697V41.0932C31.3962 41.6393 32.4844 42.1724 33.9208 42.6612C37.1957 43.7757 41.5267 44.3896 46.1158 44.3896C50.7048 44.3896 55.0359 43.7757 58.3108 42.6612C59.7471 42.1723 60.8355 41.6393 61.6562 41.0931V47.299ZM57.5556 40.4423C54.5174 41.4763 50.4548 42.0458 46.1158 42.0458C42.1056 42.0458 38.3334 41.5584 35.386 40.6685L60.525 36.036C61.3278 36.6098 61.6562 37.1435 61.6562 37.5299C61.6562 38.2296 60.5823 39.4123 57.5556 40.4423Z" fill="#F1CDB3"/>
<path d="M10.6878 38.402C10.6339 38.3481 10.5742 38.2989 10.5098 38.2567C10.4459 38.2141 10.378 38.178 10.307 38.1489C10.2367 38.1196 10.163 38.0973 10.088 38.0821C9.93718 38.0516 9.78179 38.0516 9.63097 38.0821C9.55597 38.0973 9.48214 38.1196 9.41066 38.1489C9.34023 38.1782 9.27238 38.2145 9.2091 38.2567C9.14452 38.2989 9.08476 38.3481 9.03085 38.402C8.97695 38.4559 8.92773 38.5157 8.88554 38.5802C8.84218 38.6434 8.80702 38.7114 8.77773 38.7829C8.74843 38.8532 8.72499 38.927 8.71105 39.002C8.6957 39.077 8.68761 39.1544 8.68761 39.2305C8.68761 39.3079 8.6957 39.3841 8.71105 39.4602C8.72499 39.5352 8.74843 39.6091 8.77773 39.6794C8.80702 39.7497 8.84218 39.8177 8.88554 39.8821C8.92773 39.9454 8.97695 40.0052 9.03085 40.0602C9.19533 40.2232 9.40397 40.3345 9.63097 40.3802C9.70597 40.3954 9.78331 40.4024 9.85949 40.4024C10.0131 40.4028 10.1653 40.3725 10.307 40.3134C10.378 40.2842 10.4459 40.2481 10.5098 40.2055C10.5742 40.1622 10.634 40.1141 10.6879 40.0602C10.7419 40.0052 10.7911 39.9454 10.8332 39.8821C10.8754 39.8177 10.9117 39.7497 10.941 39.6794C10.9703 39.6091 10.9937 39.5352 11.009 39.4602C11.0242 39.3841 11.0312 39.3079 11.0312 39.2305C11.0312 38.9223 10.9059 38.62 10.6878 38.402Z" fill="#F1CDB3"/>
</g>
<defs>
<filter id="filter0_d_151_146" x="0" y="0" width="68" height="62.1587" filterUnits="userSpaceOnUse" color-interpolation-filters="sRGB">
<feFlood flood-opacity="0" result="BackgroundImageFix"/>
<feColorMatrix in="SourceAlpha" type="matrix" values="0 0 0 0 0 0 0 0 0 0 0 0 0 0 0 0 0 0 127 0" result="hardAlpha"/>
<feOffset dy="4"/>
<feGaussianBlur stdDeviation="2"/>
<feComposite in2="hardAlpha" operator="out"/>
<feColorMatrix type="matrix" values="0 0 0 0 0 0 0 0 0 0 0 0 0 0 0 0 0 0 0.25 0"/>
<feBlend mode="normal" in2="BackgroundImageFix" result="effect1_dropShadow_151_146"/>
<feBlend mode="normal" in="SourceGraphic" in2="effect1_dropShadow_151_146" result="shape"/>
</filter>
</defs>
</svg>
