<svg width="58" height="33" viewBox="0 0 58 33" fill="none" xmlns="http://www.w3.org/2000/svg">
<path d="M6.01529 11.1198V31.5059C6.01529 32.0618 5.64284 32.4325 5.08417 32.4325H1.35971C0.801035 32.4325 0.428589 32.0618 0.428589 31.5059V11.1198C0.428589 10.5638 0.801035 10.1931 1.35971 10.1931H5.08417C5.64284 10.1931 6.01529 10.6564 6.01529 11.1198ZM56.6403 10.1931H52.9159C52.3572 10.1931 51.9847 10.5638 51.9847 11.1198V31.5059C51.9847 32.0618 52.3572 32.4325 52.9159 32.4325H56.6403C57.199 32.4325 57.5714 32.0618 57.5714 31.5059V11.1198C57.5714 10.6564 57.199 10.1931 56.6403 10.1931Z" fill="#FFBC57"/>
<path d="M50.1226 16.6795V22.2394C50.1226 22.7954 49.7501 23.166 49.1915 23.166H8.80868C8.25001 23.166 7.87756 22.7954 7.87756 22.2394V16.6795C7.87756 16.1236 8.25001 15.7529 8.80868 15.7529H49.1915C49.7501 15.7529 50.1226 16.1236 50.1226 16.6795ZM8.80868 13.8996H19.7866C20.3453 13.8996 20.7177 13.529 20.7177 12.973V0.926641C20.7177 0.370656 20.3453 0 19.7866 0H8.80868C8.25001 0 7.87756 0.370656 7.87756 0.926641V12.973C7.87756 13.529 8.25001 13.8996 8.80868 13.8996ZM23.5111 13.8996H34.489C35.0477 13.8996 35.4202 13.529 35.4202 12.973V0.926641C35.4202 0.370656 35.0477 0 34.489 0H23.5111C22.9524 0 22.58 0.370656 22.58 0.926641V12.973C22.58 13.529 22.9524 13.8996 23.5111 13.8996ZM49.1915 0H38.2135C37.6548 0 37.2824 0.370656 37.2824 0.926641V12.973C37.2824 13.529 37.6548 13.8996 38.2135 13.8996H49.1915C49.7501 13.8996 50.1226 13.529 50.1226 12.973V0.926641C50.1226 0.370656 49.7501 0 49.1915 0ZM49.1915 25.0193H8.80868C8.25001 25.0193 7.87756 25.39 7.87756 25.9459V31.5058C7.87756 32.0618 8.25001 32.4324 8.80868 32.4324H14.1999C14.7586 32.4324 15.131 32.0618 15.131 31.5058V30.5791H42.8691V31.5058C42.8691 32.0618 43.2415 32.4324 43.8002 32.4324H49.1915C49.7501 32.4324 50.1226 32.0618 50.1226 31.5058V25.9459C50.1226 25.39 49.7501 25.0193 49.1915 25.0193Z" fill="#FFBC57"/>
</svg>
