<svg width="215" height="36" viewBox="0 0 215 36" fill="none" xmlns="http://www.w3.org/2000/svg">
<path d="M84.4511 27.8812H81.3369V26.2789H89.1759V27.8812H86.0618V35.7863H84.3437V27.8812H84.4511ZM96.9076 35.7863H91.2162V26.2789H96.6928V27.8812H92.827V30.2314H96.2633V31.8338H92.827V34.2907H96.8002V35.7863H96.9076ZM105.176 26.2789H107.109L103.888 30.8723L107.216 35.6795H105.284L102.814 32.1542L100.344 35.6795H98.411L101.74 30.8723L98.5184 26.2789H100.451L102.814 29.6973L105.176 26.2789ZM116.988 35.7863H115.27V31.7269H110.975V35.7863H109.257V26.2789H110.975V30.1246H115.378V26.2789H116.988V35.7863ZM119.458 31.086C119.458 29.6973 119.888 28.5222 120.854 27.5608C121.821 26.5993 123.002 26.172 124.398 26.172C125.794 26.172 126.975 26.5993 127.942 27.5608C128.908 28.5222 129.338 29.6973 129.338 31.086C129.338 32.4747 128.908 33.6498 127.942 34.6112C126.975 35.5726 125.794 35.9999 124.398 35.9999C123.002 35.9999 121.821 35.5726 120.854 34.6112C119.888 33.6498 119.458 32.4747 119.458 31.086ZM121.176 31.086C121.176 32.0474 121.499 32.7952 122.035 33.4361C122.572 34.0771 123.431 34.3976 124.291 34.3976C125.257 34.3976 126.009 34.0771 126.653 33.4361C127.19 32.7952 127.512 32.0474 127.512 31.086C127.512 30.1246 127.19 29.27 126.546 28.7358C125.901 28.0949 125.15 27.7744 124.291 27.7744C123.324 27.7744 122.572 28.0949 122.035 28.7358C121.499 29.27 121.176 30.1246 121.176 31.086ZM138.787 35.7863H137.177V27.8812H134.385L134.17 29.6973C134.062 30.7655 133.955 31.7269 133.74 32.4747C133.526 33.2225 133.418 33.8634 133.203 34.2907C132.989 34.718 132.774 35.1453 132.452 35.359C132.13 35.5726 131.915 35.7863 131.593 35.7863C131.27 35.8931 130.948 35.8931 130.519 35.7863V34.1839C130.734 34.1839 130.841 34.1839 131.056 34.1839C131.163 34.1839 131.378 33.9703 131.485 33.7566C131.7 33.543 131.807 33.2225 131.915 32.7952C132.237 31.8338 132.452 30.3382 132.666 28.2017L132.774 26.2789H138.787V35.7863ZM141.257 31.086C141.257 29.6973 141.687 28.5222 142.653 27.5608C143.62 26.5993 144.801 26.172 146.197 26.172C147.593 26.172 148.774 26.5993 149.741 27.5608C150.707 28.5222 151.137 29.6973 151.137 31.086C151.137 32.4747 150.707 33.6498 149.741 34.6112C148.774 35.5726 147.593 35.9999 146.197 35.9999C144.801 35.9999 143.62 35.5726 142.653 34.6112C141.687 33.6498 141.257 32.4747 141.257 31.086ZM143.083 31.086C143.083 32.0474 143.405 32.7952 143.942 33.4361C144.479 34.0771 145.338 34.3976 146.197 34.3976C147.163 34.3976 147.915 34.0771 148.559 33.4361C149.096 32.7952 149.418 32.0474 149.418 31.086C149.418 30.1246 149.096 29.27 148.452 28.7358C147.808 28.0949 147.056 27.7744 146.197 27.7744C145.23 27.7744 144.479 28.0949 143.942 28.7358C143.297 29.27 143.083 30.1246 143.083 31.086ZM155.325 35.7863H153.606V26.2789H158.976V27.8812H155.325V35.7863ZM162.949 35.7863H161.231V26.2789H162.949V35.7863ZM165.419 24.6765C165.419 24.4628 165.526 24.2492 165.633 24.0355C165.848 23.9287 166.063 23.8219 166.278 23.8219C166.492 23.8219 166.707 23.9287 166.922 24.0355C167.137 24.1424 167.137 24.356 167.137 24.6765C167.137 24.997 167.029 25.2106 166.922 25.3174C166.815 25.4243 166.6 25.5311 166.278 25.5311C166.063 25.5311 165.848 25.4243 165.633 25.3174C165.526 25.1038 165.419 24.8901 165.419 24.6765ZM168.211 35.7863H166.492V26.2789H168.211V35.7863ZM167.674 24.6765C167.674 24.4628 167.781 24.2492 167.888 24.0355C168.103 23.9287 168.318 23.8219 168.533 23.8219C168.748 23.8219 168.962 23.9287 169.177 24.0355C169.392 24.2492 169.392 24.356 169.392 24.6765C169.392 24.997 169.284 25.2106 169.177 25.3174C169.07 25.5311 168.855 25.5311 168.533 25.5311C168.211 25.5311 167.996 25.4243 167.888 25.3174C167.781 25.1038 167.674 24.8901 167.674 24.6765ZM181.634 33.6498L182.278 34.9317C181.956 35.2522 181.526 35.4658 180.989 35.6795C180.452 35.8931 179.808 35.9999 179.271 35.9999C177.768 35.9999 176.587 35.5726 175.727 34.6112C174.868 33.7566 174.331 32.5815 174.331 31.086C174.331 29.6973 174.761 28.5222 175.62 27.5608C176.479 26.5993 177.66 26.172 179.164 26.172C180.345 26.172 181.311 26.4925 182.063 27.1335L181.311 28.4154C180.667 27.9881 179.915 27.7744 179.164 27.7744C178.305 27.7744 177.553 28.0949 176.909 28.629C176.372 29.27 176.05 30.0177 176.05 31.086C176.05 32.0474 176.372 32.902 176.909 33.543C177.553 34.1839 178.305 34.5044 179.271 34.5044C180.238 34.3976 180.989 34.1839 181.634 33.6498ZM192.157 35.7863H190.546V31.7269H186.144V35.7863H184.426V26.2789H186.144V30.1246H190.546V26.2789H192.157V35.7863ZM201.5 26.2789H203.218L199.996 33.543C199.674 34.2907 199.245 34.8249 198.922 35.2522C198.493 35.5726 198.063 35.7863 197.419 35.7863C196.775 35.7863 196.453 35.6795 196.13 35.359L196.667 33.9703C196.882 34.0771 197.097 34.1839 197.419 34.1839C197.849 34.1839 198.171 33.9703 198.385 33.543L198.493 33.2225L194.305 26.2789H196.238L199.352 31.6201L201.5 26.2789Z" fill="#535353"/>
<path d="M79.41 10.0415L88.645 21.2581H82.7389L75.3294 11.9644V21.2581H70.7119V0.213636H75.3294V8.75963L82.4168 0.213636H88.1081L79.41 10.0415ZM173.586 4.59346H180.029V21.2581H184.646V4.59346H191.089V0.213636H173.478V4.59346H173.586ZM101.961 12.819L108.511 21.2581H102.927L97.4505 13.7804H95.7324V21.2581H91.1149V0.213636H91.6518C92.6182 0.213636 93.6921 0.213636 94.8733 0.213636C96.0545 0.213636 97.021 0.213636 97.7727 0.213636C104.216 0.213636 105.612 3.84568 105.612 6.94361C105.612 8.54598 105.182 9.93471 104.323 11.003C103.571 11.7507 102.82 12.3917 101.961 12.819ZM96.2693 4.59346C96.0545 4.59346 95.9472 4.59346 95.7324 4.59346V9.40058H97.4505C98.417 9.40058 99.2761 9.18693 99.9204 8.65281C100.457 8.22551 100.779 7.58456 100.779 6.83678C100.779 5.76853 100.457 4.48663 97.5579 4.48663C97.4505 4.48663 97.3431 4.48663 97.1284 4.48663C96.9136 4.59346 96.5915 4.59346 96.2693 4.59346ZM166.176 0.213636L175.089 21.2581H170.149L168.109 16.1306H160.27L158.23 21.2581H153.505L162.31 0.213636H166.176ZM164.136 6.62313L161.988 11.7507H166.284L164.136 6.62313ZM213.855 10.7893C213.855 13.8872 212.781 16.5578 210.741 18.5875C208.7 20.6172 206.016 21.6854 202.902 21.6854C199.787 21.6854 197.103 20.724 195.063 18.6943C193.022 16.6647 191.948 14.1009 191.948 10.8961C191.948 7.90503 193.022 5.23441 195.063 3.20473C197.103 1.17506 199.787 0.106812 202.902 0.106812C206.016 0.106812 208.7 1.06824 210.741 3.09791C212.781 4.91393 213.855 7.58456 213.855 10.7893ZM207.412 15.3828C208.593 14.1009 209.13 12.6053 209.13 10.6825C209.13 8.75963 208.593 7.26408 207.304 5.98218C206.123 4.80711 204.62 4.16616 202.902 4.16616C201.076 4.16616 199.68 4.80711 198.499 5.98218C197.318 7.15726 196.781 8.75963 196.781 10.6825C196.781 12.6053 197.318 14.1009 198.499 15.276C199.68 16.5579 201.076 17.092 202.902 17.092C204.835 17.1988 206.23 16.6647 207.412 15.3828ZM150.928 0.213636L145.559 14.1009L139.975 0.213636H135.035L143.733 21.2581H147.169L155.653 0.213636H150.928Z" fill="#535353"/>
<path d="M131.231 2.13799C129.939 0.855195 128.216 0.106899 126.386 0.106899C124.556 0.106899 122.834 0.855195 121.542 2.13799L121.219 2.45869L120.788 2.03109C119.497 0.748296 117.774 0 115.944 0C114.114 0 112.391 0.748296 111.1 2.03109C109.808 3.31388 109.054 5.02427 109.054 6.84156C109.054 8.65885 109.808 10.3692 111.1 11.652L120.465 20.9523C120.681 21.1661 120.896 21.273 121.219 21.273C121.542 21.273 121.757 21.1661 121.973 20.9523L131.338 11.652C132.63 10.3692 133.384 8.65885 133.384 6.84156C133.384 5.02427 132.63 3.42078 131.231 2.13799Z" fill="#00B5FF"/>
<mask id="mask0_2014_10135" style="mask-type:alpha" maskUnits="userSpaceOnUse" x="109" y="0" width="25" height="22">
<path d="M131.231 2.13799C129.939 0.855195 128.216 0.106899 126.386 0.106899C124.556 0.106899 122.834 0.855195 121.542 2.13799L121.219 2.45869L120.788 2.03109C119.497 0.748296 117.774 0 115.944 0C114.114 0 112.391 0.748296 111.1 2.03109C109.808 3.31388 109.054 5.02427 109.054 6.84156C109.054 8.65885 109.808 10.3692 111.1 11.652L120.465 20.9523C120.681 21.1661 120.896 21.273 121.219 21.273C121.542 21.273 121.757 21.1661 121.973 20.9523L131.338 11.652C132.63 10.3692 133.384 8.65885 133.384 6.84156C133.384 5.02427 132.63 3.42078 131.231 2.13799Z" fill="#00B5FF"/>
</mask>
<g mask="url(#mask0_2014_10135)">
<rect x="108.252" y="8.84802" width="25.7722" height="12.9295" fill="#FFBC00"/>
</g>
<path d="M6.20123 12.3429V34.9715C6.20123 35.5886 5.78782 36 5.1677 36H1.03354C0.413416 36 0 35.5886 0 34.9715V12.3429C0 11.7258 0.413416 11.3143 1.03354 11.3143H5.1677C5.78782 11.3143 6.20123 11.8286 6.20123 12.3429ZM62.395 11.3143H58.2609C57.6408 11.3143 57.2273 11.7258 57.2273 12.3429V34.9715C57.2273 35.5886 57.6408 36 58.2609 36H62.395C63.0152 36 63.4286 35.5886 63.4286 34.9715V12.3429C63.4286 11.8286 63.0152 11.3143 62.395 11.3143Z" fill="#FFBC57"/>
<path d="M55.1605 18.5143V24.6857C55.1605 25.3029 54.7471 25.7143 54.127 25.7143H9.30209C8.68197 25.7143 8.26855 25.3029 8.26855 24.6857V18.5143C8.26855 17.8971 8.68197 17.4857 9.30209 17.4857H54.127C54.7471 17.4857 55.1605 17.8971 55.1605 18.5143ZM9.30209 15.4286H21.4876C22.1077 15.4286 22.5212 15.0171 22.5212 14.4V1.02857C22.5212 0.411428 22.1077 0 21.4876 0H9.30209C8.68197 0 8.26855 0.411428 8.26855 1.02857V14.4C8.26855 15.0171 8.68197 15.4286 9.30209 15.4286ZM25.6218 15.4286H37.8073C38.4274 15.4286 38.8408 15.0171 38.8408 14.4V1.02857C38.8408 0.411428 38.4274 0 37.8073 0H25.6218C25.0016 0 24.5882 0.411428 24.5882 1.02857V14.4C24.5882 15.0171 25.0016 15.4286 25.6218 15.4286ZM54.127 0H41.9414C41.3213 0 40.9079 0.411428 40.9079 1.02857V14.4C40.9079 15.0171 41.3213 15.4286 41.9414 15.4286H54.127C54.7471 15.4286 55.1605 15.0171 55.1605 14.4V1.02857C55.1605 0.411428 54.7471 0 54.127 0ZM54.127 27.7714H9.30209C8.68197 27.7714 8.26855 28.1829 8.26855 28.8V34.9714C8.26855 35.5886 8.68197 36 9.30209 36H15.2864C15.9065 36 16.3199 35.5886 16.3199 34.9714V33.9428H47.1091V34.9714C47.1091 35.5886 47.5226 36 48.1427 36H54.127C54.7471 36 55.1605 35.5886 55.1605 34.9714V28.8C55.1605 28.1829 54.7471 27.7714 54.127 27.7714Z" fill="#FFBC57"/>
</svg>
