<svg width="120" height="24" viewBox="0 0 120 24" fill="none" xmlns="http://www.w3.org/2000/svg">
<g clip-path="url(#clip0_125_6453)">
<path d="M22 10.1C22.1 9.6 21.7 9 21.2 9L15.5 8.2L12.9 3C12.8 2.8 12.7 2.7 12.5 2.6C12 2.3 11.4 2.5 11.1 3L8.6 8.2L2.9 9C2.6 9 2.4 9.1 2.3 9.3C1.9 9.7 1.9 10.3 2.3 10.7L6.4 14.7L5.4 20.4C5.4 20.6 5.4 20.8 5.5 21C5.8 21.5 6.4 21.7 6.9 21.4L12 18.7L17.1 21.4C17.2 21.5 17.4 21.5 17.6 21.5C17.7 21.5 17.7 21.5 17.8 21.5C18.3 21.4 18.7 20.9 18.6 20.3L17.6 14.6L21.7 10.6C21.9 10.5 22 10.3 22 10.1Z" fill="#FFBC57"/>
<path d="M46 10.1C46.1 9.6 45.7 9 45.2 9L39.5 8.2L36.9 3C36.8 2.8 36.7 2.7 36.5 2.6C36 2.3 35.4 2.5 35.1 3L32.6 8.2L26.9 9C26.6 9 26.4 9.1 26.3 9.3C25.9 9.7 25.9 10.3 26.3 10.7L30.4 14.7L29.4 20.4C29.4 20.6 29.4 20.8 29.5 21C29.8 21.5 30.4 21.7 30.9 21.4L36 18.7L41.1 21.4C41.2 21.5 41.4 21.5 41.6 21.5C41.7 21.5 41.7 21.5 41.8 21.5C42.3 21.4 42.7 20.9 42.6 20.3L41.6 14.6L45.7 10.6C45.9 10.5 46 10.3 46 10.1Z" fill="#FFBC57"/>
<path d="M70 10.1C70.1 9.6 69.7 9 69.2 9L63.5 8.2L60.9 3C60.8 2.8 60.7 2.7 60.5 2.6C60 2.3 59.4 2.5 59.1 3L56.6 8.2L50.9 9C50.6 9 50.4 9.1 50.3 9.3C49.9 9.7 49.9 10.3 50.3 10.7L54.4 14.7L53.4 20.4C53.4 20.6 53.4 20.8 53.5 21C53.8 21.5 54.4 21.7 54.9 21.4L60 18.7L65.1 21.4C65.2 21.5 65.4 21.5 65.6 21.5C65.7 21.5 65.7 21.5 65.8 21.5C66.3 21.4 66.7 20.9 66.6 20.3L65.6 14.6L69.7 10.6C69.9 10.5 70 10.3 70 10.1Z" fill="#FFBC57"/>
<path d="M94 10.1C94.1 9.6 93.7 9 93.2 9L87.5 8.2L84.9 3C84.8 2.8 84.7 2.7 84.5 2.6C84 2.3 83.4 2.5 83.1 3L80.6 8.2L74.9 9C74.6 9 74.4 9.1 74.3 9.3C73.9 9.7 73.9 10.3 74.3 10.7L78.4 14.7L77.4 20.4C77.4 20.6 77.4 20.8 77.5 21C77.8 21.5 78.4 21.7 78.9 21.4L84 18.7L89.1 21.4C89.2 21.5 89.4 21.5 89.6 21.5C89.7 21.5 89.7 21.5 89.8 21.5C90.3 21.4 90.7 20.9 90.6 20.3L89.6 14.6L93.7 10.6C93.9 10.5 94 10.3 94 10.1Z" fill="#FFBC57"/>
<path d="M118 10.1C118.1 9.6 117.7 9 117.2 9L111.5 8.2L108.9 3C108.8 2.8 108.7 2.7 108.5 2.6C108 2.3 107.4 2.5 107.1 3L104.6 8.2L98.9 9C98.6 9 98.4 9.1 98.3 9.3C97.9 9.7 97.9 10.3 98.3 10.7L102.4 14.7L101.4 20.4C101.4 20.6 101.4 20.8 101.5 21C101.8 21.5 102.4 21.7 102.9 21.4L108 18.7L113.1 21.4C113.2 21.5 113.4 21.5 113.6 21.5C113.7 21.5 113.7 21.5 113.8 21.5C114.3 21.4 114.7 20.9 114.6 20.3L113.6 14.6L117.7 10.6C117.9 10.5 118 10.3 118 10.1Z" fill="#FFBC57"/>
</g>
<defs>
<clipPath id="clip0_125_6453">
<rect width="120" height="24" fill="white"/>
</clipPath>
</defs>
</svg>
