<svg width="200" height="40" viewBox="0 0 200 40" fill="none" xmlns="http://www.w3.org/2000/svg">
<g clip-path="url(#clip0_128_3022)">
<path d="M36.6667 16.1167C36.5614 15.8118 36.37 15.544 36.1156 15.3458C35.8611 15.1476 35.5547 15.0275 35.2333 15L25.75 13.6167L21.5 5C21.3635 4.71821 21.1504 4.48057 20.8851 4.31429C20.6199 4.14801 20.3131 4.05981 20 4.05981C19.6869 4.05981 19.3801 4.14801 19.1149 4.31429C18.8496 4.48057 18.6365 4.71821 18.5 5L14.25 13.6L4.76666 15C4.4582 15.0438 4.1682 15.1733 3.92958 15.3736C3.69096 15.5739 3.51326 15.8371 3.41666 16.1333C3.32824 16.4228 3.3203 16.7309 3.39371 17.0245C3.46712 17.3181 3.61909 17.5862 3.83333 17.8L10.7167 24.4667L9.05 33.9333C8.98271 34.2474 9.00759 34.5742 9.12164 34.8744C9.23569 35.1746 9.43406 35.4355 9.69288 35.6257C9.9517 35.8158 10.26 35.9271 10.5805 35.9462C10.9011 35.9653 11.2204 35.8914 11.5 35.7333L20 31.2833L28.5 35.7333C28.7339 35.8653 28.9981 35.9342 29.2667 35.9333C29.6197 35.9346 29.964 35.8237 30.25 35.6167C30.5086 35.4314 30.7087 35.1761 30.8269 34.8807C30.945 34.5854 30.9762 34.2625 30.9167 33.95L29.25 24.4833L36.1333 17.8167C36.374 17.6128 36.5518 17.3448 36.6462 17.0439C36.7406 16.743 36.7477 16.4215 36.6667 16.1167ZM26.4167 22.7833C26.2238 22.9707 26.079 23.2019 25.9949 23.4573C25.9107 23.7127 25.8896 23.9847 25.9333 24.25L27.1333 31.25L20.8667 27.9167C20.6231 27.7962 20.3551 27.7335 20.0833 27.7335C19.8116 27.7335 19.5435 27.7962 19.3 27.9167L13.0333 31.25L14.2333 24.25C14.2771 23.9847 14.2559 23.7127 14.1718 23.4573C14.0876 23.2019 13.9429 22.9707 13.75 22.7833L8.75 17.7833L15.7667 16.7667C16.0367 16.7291 16.2933 16.6259 16.5142 16.4661C16.735 16.3063 16.9133 16.0947 17.0333 15.85L20 9.5L23.1333 15.8667C23.2534 16.1114 23.4317 16.3229 23.6525 16.4828C23.8733 16.6426 24.13 16.7458 24.4 16.7833L31.4167 17.8L26.4167 22.7833Z" fill="#B1B1B1"/>
<path d="M76.6667 16.1167C76.5614 15.8118 76.37 15.544 76.1156 15.3458C75.8611 15.1476 75.5547 15.0275 75.2333 15L65.75 13.6167L61.5 5C61.3635 4.71821 61.1504 4.48057 60.8851 4.31429C60.6199 4.14801 60.3131 4.05981 60 4.05981C59.6869 4.05981 59.3801 4.14801 59.1149 4.31429C58.8496 4.48057 58.6365 4.71821 58.5 5L54.25 13.6L44.7667 15C44.4582 15.0438 44.1682 15.1733 43.9296 15.3736C43.691 15.5739 43.5133 15.8371 43.4167 16.1333C43.3282 16.4228 43.3203 16.7309 43.3937 17.0245C43.4671 17.3181 43.6191 17.5862 43.8333 17.8L50.7167 24.4667L49.05 33.9333C48.9827 34.2474 49.0076 34.5742 49.1216 34.8744C49.2357 35.1746 49.4341 35.4355 49.6929 35.6257C49.9517 35.8158 50.26 35.9271 50.5805 35.9462C50.9011 35.9653 51.2204 35.8914 51.5 35.7333L60 31.2833L68.5 35.7333C68.7339 35.8653 68.9981 35.9342 69.2667 35.9333C69.6197 35.9346 69.964 35.8237 70.25 35.6167C70.5086 35.4314 70.7087 35.1761 70.8269 34.8807C70.945 34.5854 70.9762 34.2625 70.9167 33.95L69.25 24.4833L76.1333 17.8167C76.374 17.6128 76.5518 17.3448 76.6462 17.0439C76.7406 16.743 76.7477 16.4215 76.6667 16.1167ZM66.4167 22.7833C66.2238 22.9707 66.079 23.2019 65.9949 23.4573C65.9107 23.7127 65.8896 23.9847 65.9333 24.25L67.1333 31.25L60.8667 27.9167C60.6231 27.7962 60.3551 27.7335 60.0833 27.7335C59.8116 27.7335 59.5436 27.7962 59.3 27.9167L53.0333 31.25L54.2333 24.25C54.2771 23.9847 54.2559 23.7127 54.1718 23.4573C54.0876 23.2019 53.9429 22.9707 53.75 22.7833L48.75 17.7833L55.7667 16.7667C56.0367 16.7291 56.2933 16.6259 56.5142 16.4661C56.735 16.3063 56.9133 16.0947 57.0333 15.85L60 9.5L63.1333 15.8667C63.2534 16.1114 63.4317 16.3229 63.6525 16.4828C63.8733 16.6426 64.13 16.7458 64.4 16.7833L71.4167 17.8L66.4167 22.7833Z" fill="#B1B1B1"/>
<path d="M116.667 16.1167C116.561 15.8118 116.37 15.544 116.116 15.3458C115.861 15.1476 115.555 15.0275 115.233 15L105.75 13.6167L101.5 5C101.364 4.71821 101.15 4.48057 100.885 4.31429C100.62 4.14801 100.313 4.05981 100 4.05981C99.6869 4.05981 99.3801 4.14801 99.1149 4.31429C98.8496 4.48057 98.6365 4.71821 98.5 5L94.25 13.6L84.7667 15C84.4582 15.0438 84.1682 15.1733 83.9296 15.3736C83.691 15.5739 83.5133 15.8371 83.4167 16.1333C83.3282 16.4228 83.3203 16.7309 83.3937 17.0245C83.4671 17.3181 83.6191 17.5862 83.8333 17.8L90.7167 24.4667L89.05 33.9333C88.9827 34.2474 89.0076 34.5742 89.1216 34.8744C89.2357 35.1746 89.4341 35.4355 89.6929 35.6257C89.9517 35.8158 90.26 35.9271 90.5805 35.9462C90.9011 35.9653 91.2204 35.8914 91.5 35.7333L100 31.2833L108.5 35.7333C108.734 35.8653 108.998 35.9342 109.267 35.9333C109.62 35.9346 109.964 35.8237 110.25 35.6167C110.509 35.4314 110.709 35.1761 110.827 34.8807C110.945 34.5854 110.976 34.2625 110.917 33.95L109.25 24.4833L116.133 17.8167C116.374 17.6128 116.552 17.3448 116.646 17.0439C116.741 16.743 116.748 16.4215 116.667 16.1167ZM106.417 22.7833C106.224 22.9707 106.079 23.2019 105.995 23.4573C105.911 23.7127 105.89 23.9847 105.933 24.25L107.133 31.25L100.867 27.9167C100.623 27.7962 100.355 27.7335 100.083 27.7335C99.8116 27.7335 99.5435 27.7962 99.3 27.9167L93.0333 31.25L94.2333 24.25C94.2771 23.9847 94.2559 23.7127 94.1718 23.4573C94.0876 23.2019 93.9429 22.9707 93.75 22.7833L88.75 17.7833L95.7667 16.7667C96.0367 16.7291 96.2933 16.6259 96.5142 16.4661C96.735 16.3063 96.9133 16.0947 97.0333 15.85L100 9.5L103.133 15.8667C103.253 16.1114 103.432 16.3229 103.653 16.4828C103.873 16.6426 104.13 16.7458 104.4 16.7833L111.417 17.8L106.417 22.7833Z" fill="#B1B1B1"/>
<path d="M156.667 16.1167C156.561 15.8118 156.37 15.544 156.116 15.3458C155.861 15.1476 155.555 15.0275 155.233 15L145.75 13.6167L141.5 5C141.364 4.71821 141.15 4.48057 140.885 4.31429C140.62 4.14801 140.313 4.05981 140 4.05981C139.687 4.05981 139.38 4.14801 139.115 4.31429C138.85 4.48057 138.636 4.71821 138.5 5L134.25 13.6L124.767 15C124.458 15.0438 124.168 15.1733 123.93 15.3736C123.691 15.5739 123.513 15.8371 123.417 16.1333C123.328 16.4228 123.32 16.7309 123.394 17.0245C123.467 17.3181 123.619 17.5862 123.833 17.8L130.717 24.4667L129.05 33.9333C128.983 34.2474 129.008 34.5742 129.122 34.8744C129.236 35.1746 129.434 35.4355 129.693 35.6257C129.952 35.8158 130.26 35.9271 130.581 35.9462C130.901 35.9653 131.22 35.8914 131.5 35.7333L140 31.2833L148.5 35.7333C148.734 35.8653 148.998 35.9342 149.267 35.9333C149.62 35.9346 149.964 35.8237 150.25 35.6167C150.509 35.4314 150.709 35.1761 150.827 34.8807C150.945 34.5854 150.976 34.2625 150.917 33.95L149.25 24.4833L156.133 17.8167C156.374 17.6128 156.552 17.3448 156.646 17.0439C156.741 16.743 156.748 16.4215 156.667 16.1167ZM146.417 22.7833C146.224 22.9707 146.079 23.2019 145.995 23.4573C145.911 23.7127 145.89 23.9847 145.933 24.25L147.133 31.25L140.867 27.9167C140.623 27.7962 140.355 27.7335 140.083 27.7335C139.812 27.7335 139.544 27.7962 139.3 27.9167L133.033 31.25L134.233 24.25C134.277 23.9847 134.256 23.7127 134.172 23.4573C134.088 23.2019 133.943 22.9707 133.75 22.7833L128.75 17.7833L135.767 16.7667C136.037 16.7291 136.293 16.6259 136.514 16.4661C136.735 16.3063 136.913 16.0947 137.033 15.85L140 9.5L143.133 15.8667C143.253 16.1114 143.432 16.3229 143.653 16.4828C143.873 16.6426 144.13 16.7458 144.4 16.7833L151.417 17.8L146.417 22.7833Z" fill="#B1B1B1"/>
<path d="M196.667 16.1167C196.561 15.8118 196.37 15.544 196.116 15.3458C195.861 15.1476 195.555 15.0275 195.233 15L185.75 13.6167L181.5 5C181.364 4.71821 181.15 4.48057 180.885 4.31429C180.62 4.14801 180.313 4.05981 180 4.05981C179.687 4.05981 179.38 4.14801 179.115 4.31429C178.85 4.48057 178.636 4.71821 178.5 5L174.25 13.6L164.767 15C164.458 15.0438 164.168 15.1733 163.93 15.3736C163.691 15.5739 163.513 15.8371 163.417 16.1333C163.328 16.4228 163.32 16.7309 163.394 17.0245C163.467 17.3181 163.619 17.5862 163.833 17.8L170.717 24.4667L169.05 33.9333C168.983 34.2474 169.008 34.5742 169.122 34.8744C169.236 35.1746 169.434 35.4355 169.693 35.6257C169.952 35.8158 170.26 35.9271 170.581 35.9462C170.901 35.9653 171.22 35.8914 171.5 35.7333L180 31.2833L188.5 35.7333C188.734 35.8653 188.998 35.9342 189.267 35.9333C189.62 35.9346 189.964 35.8237 190.25 35.6167C190.509 35.4314 190.709 35.1761 190.827 34.8807C190.945 34.5854 190.976 34.2625 190.917 33.95L189.25 24.4833L196.133 17.8167C196.374 17.6128 196.552 17.3448 196.646 17.0439C196.741 16.743 196.748 16.4215 196.667 16.1167ZM186.417 22.7833C186.224 22.9707 186.079 23.2019 185.995 23.4573C185.911 23.7127 185.89 23.9847 185.933 24.25L187.133 31.25L180.867 27.9167C180.623 27.7962 180.355 27.7335 180.083 27.7335C179.812 27.7335 179.544 27.7962 179.3 27.9167L173.033 31.25L174.233 24.25C174.277 23.9847 174.256 23.7127 174.172 23.4573C174.088 23.2019 173.943 22.9707 173.75 22.7833L168.75 17.7833L175.767 16.7667C176.037 16.7291 176.293 16.6259 176.514 16.4661C176.735 16.3063 176.913 16.0947 177.033 15.85L180 9.5L183.133 15.8667C183.253 16.1114 183.432 16.3229 183.653 16.4828C183.873 16.6426 184.13 16.7458 184.4 16.7833L191.417 17.8L186.417 22.7833Z" fill="#B1B1B1"/>
</g>
<defs>
<clipPath id="clip0_128_3022">
<rect width="200" height="40" fill="white"/>
</clipPath>
</defs>
</svg>
