<svg width="28" height="28" viewBox="0 0 28 28" fill="none" xmlns="http://www.w3.org/2000/svg">
<path d="M8.00132 5.99998C7.60576 5.99998 7.21908 6.11728 6.89018 6.33704C6.56129 6.55681 6.30494 6.86916 6.15357 7.23461C6.00219 7.60007 5.96258 8.0022 6.03975 8.39016C6.11692 8.77812 6.30741 9.13449 6.58711 9.4142C6.86682 9.6939 7.22318 9.88438 7.61114 9.96155C7.99911 10.0387 8.40124 9.99912 8.76669 9.84774C9.13214 9.69637 9.4445 9.44002 9.66426 9.11112C9.88403 8.78222 10.0013 8.39554 10.0013 7.99998C10.0013 7.46955 9.79061 6.96084 9.41554 6.58577C9.04047 6.2107 8.53176 5.99998 8.00132 5.99998ZM26.1613 12.28L14.948 1.05331C14.8234 0.92974 14.6757 0.831973 14.5132 0.76562C14.3508 0.699267 14.1768 0.665634 14.0013 0.666648H2.00132C1.6477 0.666648 1.30856 0.807124 1.05852 1.05717C0.808467 1.30722 0.667991 1.64636 0.667991 1.99998V14C0.666977 14.1755 0.70061 14.3494 0.766963 14.5119C0.833316 14.6743 0.931082 14.8221 1.05466 14.9466L12.2813 26.16C13.0313 26.9091 14.048 27.3298 15.108 27.3298C16.168 27.3298 17.1847 26.9091 17.9347 26.16L26.1613 18C26.9104 17.25 27.3311 16.2333 27.3311 15.1733C27.3311 14.1133 26.9104 13.0967 26.1613 12.3466V12.28ZM24.2813 16.04L16.0413 24.2667C15.7915 24.515 15.4536 24.6544 15.1013 24.6544C14.7491 24.6544 14.4111 24.515 14.1613 24.2667L3.33466 13.4533V3.33331H13.4547L24.2813 14.16C24.4049 14.2846 24.5027 14.4323 24.569 14.5948C24.6354 14.7572 24.669 14.9312 24.668 15.1066C24.6665 15.4564 24.5277 15.7916 24.2813 16.04Z" fill="#FFBC57"/>
</svg>
