<svg width="30" height="30" viewBox="0 0 30 30" fill="none" xmlns="http://www.w3.org/2000/svg">
<path d="M29.9102 30H24.0449V9C24.0449 8.58984 23.9629 8.20703 23.7988 7.85156C23.6484 7.49609 23.4365 7.18848 23.1631 6.92871C22.9033 6.65527 22.5957 6.44336 22.2402 6.29297C21.8848 6.14258 21.502 6.06738 21.0918 6.06738C20.6816 6.06738 20.2988 6.14258 19.9434 6.29297C19.5879 6.44336 19.2734 6.65527 19 6.92871C18.7402 7.18848 18.5352 7.49609 18.3848 7.85156C18.2344 8.20703 18.1592 8.58984 18.1592 9V30H12.2734V9C12.2734 8.58984 12.1982 8.20703 12.0479 7.85156C11.8975 7.49609 11.6855 7.18848 11.4121 6.92871C11.1523 6.65527 10.8447 6.44336 10.4893 6.29297C10.1338 6.14258 9.75098 6.06738 9.34082 6.06738C8.93066 6.06738 8.54785 6.14258 8.19238 6.29297C7.83691 6.44336 7.52246 6.65527 7.24902 6.92871C6.98926 7.18848 6.78418 7.49609 6.63379 7.85156C6.4834 8.20703 6.4082 8.58984 6.4082 9V30H0.522461V9C0.522461 7.7832 0.748047 6.6416 1.19922 5.5752C1.66406 4.49512 2.29297 3.55859 3.08594 2.76562C3.89258 1.95898 4.8291 1.33008 5.89551 0.878906C6.97559 0.414062 8.12402 0.181641 9.34082 0.181641C10.4346 0.181641 11.4873 0.379883 12.499 0.776367C13.5107 1.15918 14.4199 1.71973 15.2266 2.45801C16.0332 1.71973 16.9355 1.15918 17.9336 0.776367C18.9453 0.379883 19.998 0.181641 21.0918 0.181641C22.3086 0.181641 23.4502 0.414062 24.5166 0.878906C25.5967 1.33008 26.5332 1.95898 27.3262 2.76562C28.1328 3.55859 28.7617 4.49512 29.2129 5.5752C29.6777 6.6416 29.9102 7.7832 29.9102 9V30Z" fill="white" fill-opacity="0.2"/>
</svg>
