<svg width="23" height="32" viewBox="0 0 23 32" fill="none" xmlns="http://www.w3.org/2000/svg">
<path d="M5.77246 31.3672H0.132812V1.03613H1.48633L3.72168 3.68164C4.22754 3.20312 4.78125 2.75195 5.38281 2.32812C5.98438 1.9043 6.60645 1.54199 7.24902 1.24121C7.90527 0.926758 8.58203 0.680664 9.2793 0.50293C9.97656 0.325195 10.6807 0.236328 11.3916 0.236328C12.9365 0.236328 14.3857 0.516602 15.7393 1.07715C17.1064 1.62402 18.2959 2.40332 19.3076 3.41504C20.333 4.42676 21.1396 5.65039 21.7275 7.08594C22.3154 8.50781 22.6094 10.0869 22.6094 11.8232C22.6094 13.6279 22.3154 15.2549 21.7275 16.7041C21.1396 18.1396 20.333 19.3633 19.3076 20.375C18.2959 21.373 17.1064 22.1387 15.7393 22.6719C14.3857 23.2051 12.9365 23.4717 11.3916 23.4717C10.8994 23.4717 10.4072 23.417 9.91504 23.3076C9.43652 23.1982 8.95801 23.0547 8.47949 22.877C8.01465 22.6855 7.5498 22.4736 7.08496 22.2412C6.63379 22.0088 6.19629 21.7695 5.77246 21.5234V31.3672ZM16.9902 11.8232C16.9902 10.8936 16.8398 10.0596 16.5391 9.32129C16.252 8.58301 15.8555 7.96094 15.3496 7.45508C14.8438 6.93555 14.249 6.53906 13.5654 6.26562C12.8818 5.99219 12.1572 5.85547 11.3916 5.85547C10.626 5.85547 9.90137 5.99219 9.21777 6.26562C8.54785 6.53906 7.95996 6.93555 7.4541 7.45508C6.94824 7.96094 6.54492 8.58301 6.24414 9.32129C5.95703 10.0596 5.81348 10.8936 5.81348 11.8232C5.81348 12.7119 5.95703 13.5254 6.24414 14.2637C6.54492 15.002 6.94824 15.6309 7.4541 16.1504C7.95996 16.6699 8.54785 17.0732 9.21777 17.3604C9.90137 17.6475 10.626 17.791 11.3916 17.791C12.1572 17.791 12.8818 17.6475 13.5654 17.3604C14.249 17.0732 14.8438 16.6699 15.3496 16.1504C15.8555 15.6309 16.252 15.002 16.5391 14.2637C16.8398 13.5254 16.9902 12.7119 16.9902 11.8232Z" fill="white" fill-opacity="0.2"/>
</svg>
