<svg width="24" height="24" viewBox="0 0 24 24" fill="none" xmlns="http://www.w3.org/2000/svg">
<path d="M23.3584 11.8232C23.3584 13.4639 23.0645 14.9951 22.4766 16.417C21.8887 17.8252 21.0889 19.0488 20.0771 20.0879C19.0654 21.1133 17.876 21.9268 16.5088 22.5283C15.1553 23.1162 13.6992 23.4102 12.1406 23.4102C10.5957 23.4102 9.13965 23.1162 7.77246 22.5283C6.41895 21.9268 5.22949 21.1133 4.2041 20.0879C3.19238 19.0488 2.39258 17.8252 1.80469 16.417C1.2168 14.9951 0.922852 13.4639 0.922852 11.8232C0.922852 10.1553 1.2168 8.61035 1.80469 7.18848C2.39258 5.7666 3.19238 4.54297 4.2041 3.51758C5.22949 2.47852 6.41895 1.66504 7.77246 1.07715C9.13965 0.489258 10.5957 0.195312 12.1406 0.195312C13.6992 0.195312 15.1553 0.475586 16.5088 1.03613C17.876 1.58301 19.0654 2.36914 20.0771 3.39453C21.0889 4.40625 21.8887 5.62988 22.4766 7.06543C23.0645 8.4873 23.3584 10.0732 23.3584 11.8232ZM17.7188 11.8232C17.7188 10.9209 17.5684 10.1074 17.2676 9.38281C16.9805 8.64453 16.584 8.01562 16.0781 7.49609C15.5723 6.96289 14.9775 6.55957 14.2939 6.28613C13.624 5.99902 12.9062 5.85547 12.1406 5.85547C11.375 5.85547 10.6504 5.99902 9.9668 6.28613C9.29688 6.55957 8.70898 6.96289 8.20312 7.49609C7.71094 8.01562 7.32129 8.64453 7.03418 9.38281C6.74707 10.1074 6.60352 10.9209 6.60352 11.8232C6.60352 12.6709 6.74707 13.457 7.03418 14.1816C7.32129 14.9062 7.71094 15.5352 8.20312 16.0684C8.70898 16.6016 9.29688 17.0254 9.9668 17.3398C10.6504 17.6406 11.375 17.791 12.1406 17.791C12.9062 17.791 13.624 17.6475 14.2939 17.3604C14.9775 17.0732 15.5723 16.6699 16.0781 16.1504C16.584 15.6309 16.9805 15.002 17.2676 14.2637C17.5684 13.5254 17.7188 12.7119 17.7188 11.8232Z" fill="white" fill-opacity="0.2"/>
</svg>
