<svg width="39" height="54" viewBox="0 0 39 54" fill="none" xmlns="http://www.w3.org/2000/svg">
<path d="M38.8594 37.2637C38.8594 39.8613 38.4017 42.1992 37.4863 44.2773C36.571 46.3555 35.3464 48.112 33.8125 49.5469C32.2786 50.9818 30.4974 52.0827 28.4688 52.8496C26.4648 53.6165 24.362 54 22.1602 54H0.710938V43.3496H22.1602C22.8776 43.3496 23.5951 43.2383 24.3125 43.0156C25.0547 42.793 25.7103 42.4342 26.2793 41.9395C26.873 41.4447 27.3431 40.8138 27.6895 40.0469C28.0605 39.2799 28.2461 38.3522 28.2461 37.2637C28.2461 36.2741 28.0605 35.4082 27.6895 34.666C27.3431 33.8991 26.873 33.2682 26.2793 32.7734C25.7103 32.2539 25.0547 31.8704 24.3125 31.623C23.5951 31.3509 22.8776 31.2148 22.1602 31.2148H0.710938L3.82812 0.785156H36.6699V11.4355H13.4023L12.4375 20.5645H22.1602C24.362 20.5645 26.4648 20.9479 28.4688 21.7148C30.4974 22.4818 32.2786 23.5951 33.8125 25.0547C35.3464 26.4896 36.571 28.2461 37.4863 30.3242C38.4017 32.3776 38.8594 34.6908 38.8594 37.2637Z" fill="white" fill-opacity="0.1"/>
</svg>
