<svg width="25" height="31" viewBox="0 0 25 31" fill="none" xmlns="http://www.w3.org/2000/svg">
<path d="M18.5645 15.2959C18.5645 12.0283 18.0176 9.60156 16.9238 8.01562C15.8438 6.42969 14.333 5.63672 12.3916 5.63672C10.4639 5.63672 8.9668 6.42285 7.90039 7.99512C6.83398 9.56738 6.30078 12.001 6.30078 15.2959C6.30078 18.5635 6.83398 20.9902 7.90039 22.5762C8.9668 24.1621 10.4639 24.9551 12.3916 24.9551C13.3623 24.9551 14.2305 24.7637 14.9961 24.3809C15.7617 23.9844 16.4043 23.3896 16.9238 22.5967C17.457 21.8037 17.8604 20.8057 18.1338 19.6025C18.4209 18.3857 18.5645 16.9502 18.5645 15.2959ZM24.1631 15.2959C24.1631 18.085 23.8555 20.4434 23.2402 22.3711C22.625 24.2988 21.7842 25.8574 20.7178 27.0469C19.6514 28.2363 18.4004 29.0977 16.9648 29.6309C15.543 30.1504 14.0186 30.4102 12.3916 30.4102C10.7646 30.4102 9.2334 30.1436 7.79785 29.6104C6.37598 29.0635 5.13184 28.1953 4.06543 27.0059C3.0127 25.8027 2.17871 24.2441 1.56348 22.3301C0.948242 20.4023 0.640625 18.0576 0.640625 15.2959C0.640625 12.5068 0.948242 10.1553 1.56348 8.24121C2.17871 6.31348 3.0127 4.75488 4.06543 3.56543C5.13184 2.37598 6.37598 1.51465 7.79785 0.981445C9.2334 0.448242 10.7646 0.181641 12.3916 0.181641C14.0186 0.181641 15.543 0.455078 16.9648 1.00195C18.4004 1.53516 19.6514 2.40332 20.7178 3.60645C21.7842 4.80957 22.625 6.36816 23.2402 8.28223C23.8555 10.1963 24.1631 12.5342 24.1631 15.2959Z" fill="white" fill-opacity="0.2"/>
</svg>
