<svg width="17" height="33" viewBox="0 0 17 33" fill="none" xmlns="http://www.w3.org/2000/svg">
<path d="M8.4729 33H2.87427V16.6143H0.146729V11.0361H2.87427V9.99023C2.87427 8.63672 3.1272 7.36523 3.63306 6.17578C4.15259 4.98633 4.85669 3.9541 5.74536 3.0791C6.64771 2.19043 7.6936 1.49316 8.88306 0.987305C10.0725 0.467773 11.344 0.208008 12.6975 0.208008H16.9016V5.78613H12.6975C12.0959 5.78613 11.5354 5.89551 11.0159 6.11426C10.51 6.31934 10.0657 6.61328 9.68286 6.99609C9.31372 7.36523 9.01978 7.80957 8.80103 8.3291C8.58228 8.83496 8.4729 9.38867 8.4729 9.99023V11.0361H15.343V16.6143H8.4729V33Z" fill="white" fill-opacity="0.2"/>
</svg>
