<svg width="24" height="30" viewBox="0 0 24 30" fill="none" xmlns="http://www.w3.org/2000/svg">
<path d="M23.9067 21.1816C23.9067 22.3984 23.6743 23.54 23.2095 24.6064C22.7446 25.6729 22.1089 26.6094 21.3022 27.416C20.5093 28.209 19.5796 28.8379 18.5132 29.3027C17.4468 29.7676 16.3052 30 15.0884 30H0.384277V0.591797H15.0884C16.3052 0.591797 17.4468 0.824219 18.5132 1.28906C19.5796 1.75391 20.5093 2.38965 21.3022 3.19629C22.1089 3.98926 22.7446 4.91895 23.2095 5.98535C23.6743 7.05176 23.9067 8.19336 23.9067 9.41016C23.9067 9.95703 23.8315 10.5176 23.6812 11.0918C23.5308 11.666 23.3188 12.2197 23.0454 12.7529C22.772 13.2861 22.4438 13.7715 22.061 14.209C21.6782 14.6465 21.2544 15.0088 20.7896 15.2959C21.2681 15.5557 21.6987 15.9111 22.0815 16.3623C22.4644 16.7998 22.7925 17.2852 23.0659 17.8184C23.3394 18.3516 23.5444 18.9121 23.6812 19.5C23.8315 20.0742 23.9067 20.6348 23.9067 21.1816ZM6.27002 24.1143H15.0884C15.4985 24.1143 15.8813 24.0391 16.2368 23.8887C16.5923 23.7383 16.8999 23.5332 17.1597 23.2734C17.4331 23 17.645 22.6855 17.7954 22.3301C17.9458 21.9746 18.021 21.5918 18.021 21.1816C18.021 20.7715 17.9458 20.3887 17.7954 20.0332C17.645 19.6777 17.4331 19.3701 17.1597 19.1104C16.8999 18.8369 16.5923 18.625 16.2368 18.4746C15.8813 18.3242 15.4985 18.249 15.0884 18.249H6.27002V24.1143ZM6.27002 12.3633H15.0884C15.4985 12.3633 15.8813 12.2881 16.2368 12.1377C16.5923 11.9873 16.8999 11.7822 17.1597 11.5225C17.4331 11.249 17.645 10.9346 17.7954 10.5791C17.9458 10.21 18.021 9.82031 18.021 9.41016C18.021 9 17.9458 8.61719 17.7954 8.26172C17.645 7.90625 17.4331 7.59863 17.1597 7.33887C16.8999 7.06543 16.5923 6.85352 16.2368 6.70312C15.8813 6.55273 15.4985 6.47754 15.0884 6.47754H6.27002V12.3633Z" fill="white" fill-opacity="0.2"/>
</svg>
