<svg width="24" height="32" viewBox="0 0 24 32" fill="none" xmlns="http://www.w3.org/2000/svg">
<path d="M23.4863 22.5918C23.4863 23.918 23.1855 25.1416 22.584 26.2627C21.9824 27.3838 21.1553 28.3545 20.1025 29.1748C19.0635 29.9814 17.8467 30.6104 16.4521 31.0615C15.0576 31.5264 13.5674 31.7588 11.9814 31.7588C10.3955 31.7588 8.90527 31.5264 7.51074 31.0615C6.11621 30.6104 4.89258 29.9814 3.83984 29.1748C2.80078 28.3545 1.98047 27.3838 1.37891 26.2627C0.777344 25.1416 0.476562 23.918 0.476562 22.5918C0.476562 21.8262 0.579102 21.0811 0.78418 20.3564C0.989258 19.6182 1.2832 18.9277 1.66602 18.2852C2.0625 17.6426 2.53418 17.0547 3.08105 16.5215C3.62793 15.9746 4.24316 15.5098 4.92676 15.127C4.50293 14.7578 4.12012 14.334 3.77832 13.8555C3.4502 13.377 3.16309 12.8711 2.91699 12.3379C2.68457 11.8047 2.50684 11.2578 2.38379 10.6973C2.26074 10.123 2.19922 9.55566 2.19922 8.99512C2.19922 7.84668 2.45215 6.77344 2.95801 5.77539C3.47754 4.76367 4.18164 3.88184 5.07031 3.12988C5.95898 2.36426 6.99805 1.7627 8.1875 1.3252C9.37695 0.887695 10.6416 0.668945 11.9814 0.668945C13.335 0.668945 14.6064 0.887695 15.7959 1.3252C16.9854 1.7627 18.0244 2.36426 18.9131 3.12988C19.8154 3.88184 20.5195 4.76367 21.0254 5.77539C21.5449 6.77344 21.8047 7.84668 21.8047 8.99512C21.8047 9.55566 21.7363 10.123 21.5996 10.6973C21.4766 11.2578 21.2988 11.8115 21.0664 12.3584C20.834 12.8916 20.5469 13.3975 20.2051 13.876C19.877 14.3545 19.501 14.7852 19.0771 15.168C19.7471 15.5508 20.3555 16.0088 20.9023 16.542C21.4492 17.0752 21.9141 17.6631 22.2969 18.3057C22.6797 18.9482 22.9736 19.6318 23.1787 20.3564C23.3838 21.0811 23.4863 21.8262 23.4863 22.5918ZM16.042 9.63086C16.042 9.15234 15.9326 8.70801 15.7139 8.29785C15.5088 7.87402 15.2217 7.50488 14.8525 7.19043C14.4971 6.87598 14.0732 6.62988 13.5811 6.45215C13.0889 6.27441 12.5693 6.18555 12.0225 6.18555C11.4619 6.18555 10.9355 6.27441 10.4434 6.45215C9.95117 6.62988 9.52051 6.87598 9.15137 7.19043C8.7959 7.50488 8.50879 7.87402 8.29004 8.29785C8.08496 8.70801 7.98242 9.15234 7.98242 9.63086C7.98242 10.1094 8.08496 10.5537 8.29004 10.9639C8.50879 11.374 8.7959 11.7295 9.15137 12.0303C9.52051 12.3311 9.95117 12.5703 10.4434 12.748C10.9355 12.9258 11.4619 13.0146 12.0225 13.0146C12.5693 13.0146 13.0889 12.9258 13.5811 12.748C14.0732 12.5703 14.4971 12.3311 14.8525 12.0303C15.2217 11.7295 15.5088 11.374 15.7139 10.9639C15.9326 10.5537 16.042 10.1094 16.042 9.63086ZM17.6416 22.4277C17.6416 21.7715 17.4912 21.1631 17.1904 20.6025C16.9033 20.0283 16.5 19.5293 15.9805 19.1055C15.4746 18.6816 14.873 18.3467 14.1758 18.1006C13.4922 17.8545 12.7607 17.7314 11.9814 17.7314C11.2021 17.7314 10.4707 17.8545 9.78711 18.1006C9.10352 18.3467 8.50195 18.6816 7.98242 19.1055C7.47656 19.5293 7.07324 20.0283 6.77246 20.6025C6.48535 21.1631 6.3418 21.7715 6.3418 22.4277C6.3418 23.084 6.48535 23.6855 6.77246 24.2324C7.07324 24.7793 7.47656 25.251 7.98242 25.6475C8.50195 26.0439 9.10352 26.3584 9.78711 26.5908C10.4707 26.8096 11.2021 26.9189 11.9814 26.9189C12.7607 26.9189 13.4922 26.8096 14.1758 26.5908C14.873 26.3584 15.4746 26.0439 15.9805 25.6475C16.5 25.251 16.9033 24.7793 17.1904 24.2324C17.4912 23.6855 17.6416 23.084 17.6416 22.4277Z" fill="white" fill-opacity="0.2"/>
</svg>
