<svg width="138" height="142" viewBox="0 0 138 142" fill="none" xmlns="http://www.w3.org/2000/svg">
<path d="M66.0471 0.552171C64.9518 0.671231 64.3088 2.09997 60.356 17.3636C58.2129 25.6026 56.2365 33.4845 56.046 33.4606C56.046 33.4606 56.0222 33.4368 56.0222 33.3654C56.0222 32.27 53.0457 30.1031 43.8303 23.6024C34.615 17.1017 31.9004 12.4821 31.3528 13.8394C30.8051 15.1967 36.2343 27.9362 38.1392 33.3654C40.0442 38.7946 44.64 50.7007 44.64 50.7007C44.64 50.7007 33.2577 51.7961 27.0189 53.4153C20.7801 55.0345 -0.365107 56.9157 0.444503 60.1779C1.25412 63.4402 18.8752 71.0125 25.114 74.8225C31.3527 78.6324 40.2823 81.0613 40.2823 81.0613C40.2823 81.0613 28.3524 92.7054 23.4709 99.23C18.5894 105.731 10.1837 118.47 13.1602 117.399C16.1367 116.327 56.5223 100.587 66.0233 95.4438C66.0233 95.4438 68.7379 120.923 70.0952 129.591C71.4525 138.258 71.7144 144.497 75.5244 139.901C79.3343 135.305 86.097 110.636 88.5259 105.469C90.9547 100.325 95.8362 86.2285 95.8362 86.2285C95.8362 86.2285 108.314 92.7292 116.172 95.9915C124.03 99.254 135.96 108.183 137.031 105.755C138.127 103.326 121.577 81.0851 117.791 74.8463C114.005 68.6075 103.98 54.2487 103.98 54.2487C103.98 54.2487 123.506 26.3408 126.483 17.3874C126.697 16.7445 126.935 15.792 126.435 15.1729C124.578 12.7678 114.576 18.2208 96.9316 25.7931C90.8118 28.4125 85.8827 30.3889 83.1205 31.4842C81.406 28.2458 78.7152 23.0547 75.5244 16.5778C69.6904 4.67168 68.0474 0.314051 66.0471 0.552171Z" fill="url(#paint0_linear_49_1306)"/>
<defs>
<linearGradient id="paint0_linear_49_1306" x1="0.421876" y1="70.9991" x2="137.083" y2="70.9991" gradientUnits="userSpaceOnUse">
<stop stop-color="#00C4CC"/>
<stop offset="1" stop-color="#8B3DFF"/>
</linearGradient>
</defs>
</svg>
