<svg width="125" height="150" viewBox="0 0 125 150" fill="none" xmlns="http://www.w3.org/2000/svg">
<g clip-path="url(#clip0_218_16474)">
<path d="M124.703 57.3004C123.671 46.4091 119.874 35.9745 113.683 27.0125C107.492 18.0505 99.1168 10.8667 89.3738 6.16051C79.6308 1.45436 68.8518 -0.613709 58.0863 0.157679C47.3209 0.929067 36.9359 4.51362 27.9427 10.5623C20.2165 15.8 13.7305 22.7075 8.95044 30.7886C4.17043 38.8697 1.21512 47.9238 0.29682 57.3004C-0.604006 66.6157 0.551764 76.0175 3.68028 84.8236C6.80879 93.6297 11.8316 101.619 18.3843 108.213L57.3532 147.795C58.0367 148.494 58.8499 149.048 59.7459 149.427C60.6419 149.805 61.6029 150 62.5735 150C63.5442 150 64.5052 149.805 65.4012 149.427C66.2972 149.048 67.1104 148.494 67.7939 147.795L106.616 108.213C113.168 101.619 118.191 93.6297 121.32 84.8236C124.448 76.0175 125.604 66.6157 124.703 57.3004Z" fill="#FFBC57"/>
<circle cx="62.5" cy="62.5" r="48.5" fill="white"/>
<g clip-path="url(#clip1_218_16474)">
<path d="M32.3325 55.4V81.8C32.3325 82.52 31.8437 83 31.1105 83H26.2221C25.4888 83 25 82.52 25 81.8V55.4C25 54.68 25.4888 54.2 26.2221 54.2H31.1105C31.8437 54.2 32.3325 54.8 32.3325 55.4ZM98.7779 54.2H93.8895C93.1563 54.2 92.6675 54.68 92.6675 55.4V81.8C92.6675 82.52 93.1563 83 93.8895 83H98.7779C99.5112 83 100 82.52 100 81.8V55.4C100 54.8 99.5112 54.2 98.7779 54.2Z" fill="#FFBC57"/>
<path d="M90.2239 62.6V69.8C90.2239 70.52 89.7351 71 89.0018 71H35.9994C35.2662 71 34.7773 70.52 34.7773 69.8V62.6C34.7773 61.88 35.2662 61.4 35.9994 61.4H89.0018C89.7351 61.4 90.2239 61.88 90.2239 62.6ZM35.9994 59H50.408C51.1412 59 51.6301 58.52 51.6301 57.8V42.2C51.6301 41.48 51.1412 41 50.408 41H35.9994C35.2662 41 34.7773 41.48 34.7773 42.2V57.8C34.7773 58.52 35.2662 59 35.9994 59ZM55.2964 59H69.7049C70.4382 59 70.927 58.52 70.927 57.8V42.2C70.927 41.48 70.4382 41 69.7049 41H55.2964C54.5631 41 54.0743 41.48 54.0743 42.2V57.8C54.0743 58.52 54.5631 59 55.2964 59ZM89.0018 41H74.5933C73.86 41 73.3712 41.48 73.3712 42.2V57.8C73.3712 58.52 73.86 59 74.5933 59H89.0018C89.7351 59 90.2239 58.52 90.2239 57.8V42.2C90.2239 41.48 89.7351 41 89.0018 41ZM89.0018 73.4H35.9994C35.2662 73.4 34.7773 73.88 34.7773 74.6V81.8C34.7773 82.52 35.2662 83 35.9994 83H43.0754C43.8087 83 44.2975 82.52 44.2975 81.8V80.6H80.7037V81.8C80.7037 82.52 81.1926 83 81.9258 83H89.0018C89.7351 83 90.2239 82.52 90.2239 81.8V74.6C90.2239 73.88 89.7351 73.4 89.0018 73.4Z" fill="#FFBC57"/>
</g>
</g>
<defs>
<clipPath id="clip0_218_16474">
<rect width="125" height="150" fill="white"/>
</clipPath>
<clipPath id="clip1_218_16474">
<rect width="75" height="42" fill="white" transform="translate(25 41)"/>
</clipPath>
</defs>
</svg>
