<?xml version="1.0" encoding="UTF-8" standalone="no"?>
<svg
   width="34"
   height="28"
   viewBox="0 0 34 28"
   fill="none"
   version="1.1"
   id="svg1"
   sodipodi:docname="twitter.svg"
   inkscape:version="1.3.2 (091e20e, 2023-11-25, custom)"
   xmlns:inkscape="http://www.inkscape.org/namespaces/inkscape"
   xmlns:sodipodi="http://sodipodi.sourceforge.net/DTD/sodipodi-0.dtd"
   xmlns="http://www.w3.org/2000/svg"
   xmlns:svg="http://www.w3.org/2000/svg">
  <defs
     id="defs1" />
  <sodipodi:namedview
     id="namedview1"
     pagecolor="#ffffff"
     bordercolor="#000000"
     borderopacity="0.25"
     inkscape:showpageshadow="2"
     inkscape:pageopacity="0.0"
     inkscape:pagecheckerboard="0"
     inkscape:deskcolor="#d1d1d1"
     inkscape:zoom="28.107143"
     inkscape:cx="17.006353"
     inkscape:cy="14"
     inkscape:window-width="1920"
     inkscape:window-height="1001"
     inkscape:window-x="-9"
     inkscape:window-y="-9"
     inkscape:window-maximized="1"
     inkscape:current-layer="svg1" />
  <path
     style="color:#000000;fill:#23b123;stroke-linecap:round;stroke-linejoin:round;-inkscape-stroke:none"
     d="m 22.943359,0.51171875 c -0.704714,0.042265 -1.403149,0.19182476 -2.070312,0.44726563 -1.334329,0.51088032 -2.47935,1.42057132 -3.28125,2.60546872 -0.801795,1.184901 -1.222291,2.5897518 -1.203125,4.0214844 V 8.4804688 C 14.100728,8.4641841 11.840801,7.9714601 9.7929688,6.9375 7.5985364,5.8294963 5.7109496,4.1948227 4.2988281,2.1777344 a 0.50005,0.50005 0 0 0 -0.8671875,0.083984 c 0,0 -1.4932107,3.351285 -1.3066406,7.46875 0.1771557,3.9096952 2.072654,8.5127532 7.945313,11.5117182 -2.7313578,1.65891 -5.8481369,2.584868 -9.0507818,2.457032 A 0.50005,0.50005 0 0 0 0.75585937,24.634766 C 7.3934242,28.333881 14.799829,28.346119 20.554687,25.273437 26.309546,22.200756 30.388672,16.025685 30.388672,7.5351562 a 0.50005,0.50005 0 0 0 0,-0.00195 c -0.0011,-0.3545325 -0.0471,-0.7065669 -0.101563,-1.0566406 1.440441,-1.4920557 2.485966,-3.3228709 2.976563,-5.34375 A 0.50005,0.50005 0 0 0 32.488281,0.60546875 C 31.215085,1.5063804 29.798027,2.1723959 28.314453,2.6464844 27.414439,1.7219593 26.307874,1.0240186 25.052734,0.70898437 24.359951,0.53509584 23.648073,0.46945376 22.943359,0.51171875 Z m 0.06055,0.99804685 c 0.60331,-0.036183 1.211472,0.021025 1.804688,0.1699219 1.186427,0.2977877 2.25377,0.9528228 3.05664,1.8789063 a 0.50005,0.50005 0 0 0 0.521485,0.1523437 C 29.62362,3.3373029 30.736209,2.6715089 31.847656,2.0175781 31.307907,3.4895825 30.541974,4.8684604 29.421875,5.9765625 A 0.50005,0.50005 0 0 0 29.28125,6.4257812 c 0.06981,0.3660822 0.106221,0.7386086 0.107422,1.1113282 C 29.388016,15.708695 25.523103,21.486526 20.083984,24.390625 15.119523,27.041291 8.8420092,27.13445 2.9433594,24.460937 5.9471079,24.233331 8.8814952,23.422748 11.392578,21.712891 A 0.50005,0.50005 0 0 0 11.314453,20.84375 C 4.9670059,18.013763 3.299537,13.537449 3.125,9.6855469 2.9828666,6.5487685 3.7568356,4.3217389 4.0957031,3.4335938 5.5280935,5.2457505 7.2756648,6.7868552 9.3417969,7.8300781 11.683708,9.0125203 14.281277,9.5955241 16.902344,9.5273438 a 0.50005,0.50005 0 0 0 0.486328,-0.5 V 7.578125 a 0.50005,0.50005 0 0 0 0,-0.00586 C 17.372238,6.3446609 17.732718,5.1405568 18.419922,4.125 19.10722,3.1094396 20.0878,2.33203 21.230469,1.8945312 21.801804,1.6757806 22.400596,1.5459491 23.003906,1.5097656 Z"
     id="path1" />
</svg>
