<?xml version="1.0" encoding="UTF-8" standalone="no"?>
<svg
   width="14"
   height="14"
   viewBox="0 0 14 14"
   fill="none"
   version="1.1"
   id="svg1"
   sodipodi:docname="arrow-pagination.svg"
   inkscape:version="1.3.2 (091e20e, 2023-11-25, custom)"
   xmlns:inkscape="http://www.inkscape.org/namespaces/inkscape"
   xmlns:sodipodi="http://sodipodi.sourceforge.net/DTD/sodipodi-0.dtd"
   xmlns="http://www.w3.org/2000/svg"
   xmlns:svg="http://www.w3.org/2000/svg">
  <defs
     id="defs1" />
  <sodipodi:namedview
     id="namedview1"
     pagecolor="#ffffff"
     bordercolor="#000000"
     borderopacity="0.25"
     inkscape:showpageshadow="2"
     inkscape:pageopacity="0.0"
     inkscape:pagecheckerboard="0"
     inkscape:deskcolor="#d1d1d1"
     inkscape:zoom="56.214286"
     inkscape:cx="6.9911055"
     inkscape:cy="7"
     inkscape:window-width="1920"
     inkscape:window-height="1001"
     inkscape:window-x="-9"
     inkscape:window-y="-9"
     inkscape:window-maximized="1"
     inkscape:current-layer="svg1" />
  <path
     style="color:#000000;fill:#000000;stroke-linecap:round;stroke-linejoin:round;-inkscape-stroke:none"
     d="M 7,0.33203125 A 0.83499998,0.83499998 0 0 0 6.4101562,0.57617187 L 0.57617187,6.4101562 A 0.83499998,0.83499998 0 0 0 0.33203125,7 0.83499998,0.83499998 0 0 0 0.57617187,7.5898437 L 6.4101562,13.423828 a 0.83499998,0.83499998 0 0 0 1.1796875,0 0.83499998,0.83499998 0 0 0 0,-1.18164 L 3.1816406,7.8339844 H 12.833984 A 0.83499998,0.83499998 0 0 0 13.667969,7 0.83499998,0.83499998 0 0 0 12.833984,6.1640625 H 3.1835938 l 4.4062499,-4.40625 a 0.83499998,0.83499998 0 0 0 0,-1.18164063 A 0.83499998,0.83499998 0 0 0 7,0.33203125 Z"
     id="path1" />
</svg>
