<svg width="24" height="24" viewBox="0 0 24 24" fill="none" xmlns="http://www.w3.org/2000/svg">
<path fill-rule="evenodd" clip-rule="evenodd" d="M6 1C6 0.447715 6.44772 0 7 0H23C23.5523 0 24 0.447715 24 1V17C24 17.5523 23.5523 18 23 18H17C16.4477 18 16 17.5523 16 17C16 16.4477 16.4477 16 17 16H22V2H8V7C8 7.55228 7.55228 8 7 8C6.44772 8 6 7.55228 6 7V1Z" fill="white"/>
<path fill-rule="evenodd" clip-rule="evenodd" d="M0 7C0 6.44772 0.447715 6 1 6H17C17.5523 6 18 6.44772 18 7V23C18 23.5523 17.5523 24 17 24H1C0.447715 24 0 23.5523 0 23V7ZM2 8V22H16V8H2Z" fill="white"/>
</svg>
