<svg width="30" height="24" viewBox="0 0 30 24" fill="none" xmlns="http://www.w3.org/2000/svg">
<path d="M11 15.5C11.8284 15.5 12.5 14.8284 12.5 14C12.5 13.1716 11.8284 12.5 11 12.5C10.1716 12.5 9.5 13.1716 9.5 14C9.5 14.8284 10.1716 15.5 11 15.5Z" fill="white"/>
<path d="M19 15.5C19.8284 15.5 20.5 14.8284 20.5 14C20.5 13.1716 19.8284 12.5 19 12.5C18.1716 12.5 17.5 13.1716 17.5 14C17.5 14.8284 18.1716 15.5 19 15.5Z" fill="white"/>
<path fill-rule="evenodd" clip-rule="evenodd" d="M14.9927 5.99959C12.8249 5.98356 10.6678 6.30551 8.59914 6.95385C8.07213 7.11902 7.51101 6.8257 7.34584 6.29869C7.18067 5.77168 7.474 5.21056 8.00101 5.04539C10.2656 4.33563 12.6269 3.98281 15.0001 3.99959C17.3732 3.98281 19.7345 4.33563 21.9991 5.04539C22.5261 5.21056 22.8195 5.77168 22.6543 6.29869C22.4891 6.8257 21.928 7.11902 21.401 6.95385C19.3323 6.30551 17.1753 5.98356 15.0075 5.99959H14.9927Z" fill="white"/>
<path fill-rule="evenodd" clip-rule="evenodd" d="M7.34584 17.7012C7.51101 17.1742 8.07213 16.8809 8.59914 17.046C10.6678 17.6944 12.8249 18.0163 14.9927 18.0003H15.0075C17.1753 18.0163 19.3323 17.6944 21.401 17.046C21.928 16.8809 22.4891 17.1742 22.6543 17.7012C22.8195 18.2282 22.5261 18.7893 21.9991 18.9545C19.7345 19.6643 17.3732 20.0171 15.0001 20.0003C12.6269 20.0171 10.2656 19.6643 8.00101 18.9545C7.474 18.7893 7.18067 18.2282 7.34584 17.7012Z" fill="white"/>
<path fill-rule="evenodd" clip-rule="evenodd" d="M19.2199 0.811214C19.6504 0.568515 20.1551 0.492673 20.6378 0.598117C21.9554 0.883658 23.2453 1.28424 24.4928 1.79524C24.7736 1.90352 25.0259 2.07496 25.2299 2.29638C25.4362 2.52018 25.5875 2.78885 25.672 3.08115L29.9079 17.2255C30.0183 17.594 30.0209 17.9865 29.9152 18.3563C29.8095 18.7262 29.6 19.0581 29.3116 19.3126L29.3064 19.3171C27.2389 21.1161 24.4376 22.4777 21.2556 23.2577C20.8136 23.3703 20.3462 23.3265 19.9327 23.1336C19.521 22.9414 19.1882 22.6132 18.9903 22.2044L17.482 19.2129C17.2334 18.7197 17.4316 18.1184 17.9248 17.8698C18.4179 17.6211 19.0193 17.8194 19.2679 18.3125L20.7804 21.3125L20.7815 21.3147C23.7194 20.5943 26.2136 19.3571 27.9936 17.8083L28.65 18.5627L27.9884 17.8128C27.9902 17.8113 27.9915 17.8092 27.9921 17.8069C27.9928 17.8046 27.9928 17.8022 27.9921 17.7999L23.756 3.65465C23.7525 3.65325 23.7489 3.65182 23.7454 3.65037C22.6025 3.18149 21.4206 2.81412 20.2132 2.55253L20.211 2.55205C20.208 2.55139 20.2049 2.55186 20.2022 2.55337C20.1998 2.55473 20.1979 2.55684 20.1969 2.55937L19.212 5.53905C19.0386 6.06343 18.473 6.34801 17.9486 6.17468C17.4243 6.00135 17.1397 5.43574 17.313 4.91136L18.3034 1.91516C18.4629 1.44707 18.7892 1.0541 19.2199 0.811214Z" fill="white"/>
<path fill-rule="evenodd" clip-rule="evenodd" d="M9.79772 2.55337C9.79504 2.55186 9.7919 2.55139 9.7889 2.55205L9.78673 2.55252C8.57939 2.81412 7.39743 3.18148 6.25453 3.65037C6.251 3.65182 6.24746 3.65324 6.24392 3.65465L2.00794 17.7996C2.00725 17.8019 2.00715 17.8046 2.00781 17.8069C2.0084 17.809 2.00951 17.8108 2.01103 17.8123C3.79072 19.3593 6.28311 20.5949 9.21846 21.3147L9.21954 21.3125L10.732 18.3125C10.9807 17.8194 11.582 17.6211 12.0752 17.8698C12.5683 18.1184 12.7665 18.7197 12.5179 19.2129L11.0097 22.2045C10.8118 22.6132 10.479 22.9414 10.0672 23.1336C9.65375 23.3265 9.18631 23.3703 8.74432 23.2577C5.56239 22.4777 2.76102 21.1161 0.693549 19.3171L0.68837 19.3126C0.399904 19.0581 0.190439 18.7262 0.0847573 18.3563C-0.0208975 17.9865 -0.0183814 17.5942 0.092004 17.2258C0.0919757 17.2259 0.0920324 17.2257 0.092004 17.2258L4.3279 3.08117C4.41243 2.78887 4.56377 2.52019 4.77003 2.29638C4.97408 2.07496 5.2263 1.90352 5.50711 1.79524C6.75497 1.28409 8.04529 0.883436 9.36321 0.59788C9.84563 0.492788 10.3499 0.568697 10.78 0.811213C11.2108 1.05409 11.537 1.44708 11.6965 1.91518L11.6995 1.92385L12.6869 4.91136C12.8603 5.43574 12.5757 6.00135 12.0513 6.17468C11.5269 6.34801 10.9613 6.06343 10.788 5.53905L9.80308 2.55937C9.80201 2.55684 9.80012 2.55473 9.79772 2.55337Z" fill="white"/>
<path d="M11 15.5C11.8284 15.5 12.5 14.8284 12.5 14C12.5 13.1716 11.8284 12.5 11 12.5C10.1716 12.5 9.5 13.1716 9.5 14C9.5 14.8284 10.1716 15.5 11 15.5Z" fill="white"/>
<path d="M19 15.5C19.8284 15.5 20.5 14.8284 20.5 14C20.5 13.1716 19.8284 12.5 19 12.5C18.1716 12.5 17.5 13.1716 17.5 14C17.5 14.8284 18.1716 15.5 19 15.5Z" fill="white"/>
<path fill-rule="evenodd" clip-rule="evenodd" d="M14.9927 5.99959C12.8249 5.98356 10.6678 6.30551 8.59914 6.95385C8.07213 7.11902 7.51101 6.8257 7.34584 6.29869C7.18067 5.77168 7.474 5.21056 8.00101 5.04539C10.2656 4.33563 12.6269 3.98281 15.0001 3.99959C17.3732 3.98281 19.7345 4.33563 21.9991 5.04539C22.5261 5.21056 22.8195 5.77168 22.6543 6.29869C22.4891 6.8257 21.928 7.11902 21.401 6.95385C19.3323 6.30551 17.1753 5.98356 15.0075 5.99959H14.9927Z" fill="white"/>
<path fill-rule="evenodd" clip-rule="evenodd" d="M7.34584 17.7012C7.51101 17.1742 8.07213 16.8809 8.59914 17.046C10.6678 17.6944 12.8249 18.0163 14.9927 18.0003H15.0075C17.1753 18.0163 19.3323 17.6944 21.401 17.046C21.928 16.8809 22.4891 17.1742 22.6543 17.7012C22.8195 18.2282 22.5261 18.7893 21.9991 18.9545C19.7345 19.6643 17.3732 20.0171 15.0001 20.0003C12.6269 20.0171 10.2656 19.6643 8.00101 18.9545C7.474 18.7893 7.18067 18.2282 7.34584 17.7012Z" fill="white"/>
<path fill-rule="evenodd" clip-rule="evenodd" d="M19.2199 0.811214C19.6504 0.568515 20.1551 0.492673 20.6378 0.598117C21.9554 0.883658 23.2453 1.28424 24.4928 1.79524C24.7736 1.90352 25.0259 2.07496 25.2299 2.29638C25.4362 2.52018 25.5875 2.78885 25.672 3.08115L29.9079 17.2255C30.0183 17.594 30.0209 17.9865 29.9152 18.3563C29.8095 18.7262 29.6 19.0581 29.3116 19.3126L29.3064 19.3171C27.2389 21.1161 24.4376 22.4777 21.2556 23.2577C20.8136 23.3703 20.3462 23.3265 19.9327 23.1336C19.521 22.9414 19.1882 22.6132 18.9903 22.2044L17.482 19.2129C17.2334 18.7197 17.4316 18.1184 17.9248 17.8698C18.4179 17.6211 19.0193 17.8194 19.2679 18.3125L20.7804 21.3125L20.7815 21.3147C23.7194 20.5943 26.2136 19.3571 27.9936 17.8083L28.65 18.5627L27.9884 17.8128C27.9902 17.8113 27.9915 17.8092 27.9921 17.8069C27.9928 17.8046 27.9928 17.8022 27.9921 17.7999L23.756 3.65465C23.7525 3.65325 23.7489 3.65182 23.7454 3.65037C22.6025 3.18149 21.4206 2.81412 20.2132 2.55253L20.211 2.55205C20.208 2.55139 20.2049 2.55186 20.2022 2.55337C20.1998 2.55473 20.1979 2.55684 20.1969 2.55937L19.212 5.53905C19.0386 6.06343 18.473 6.34801 17.9486 6.17468C17.4243 6.00135 17.1397 5.43574 17.313 4.91136L18.3034 1.91516C18.4629 1.44707 18.7892 1.0541 19.2199 0.811214Z" fill="white"/>
<path fill-rule="evenodd" clip-rule="evenodd" d="M9.79772 2.55337C9.79504 2.55186 9.7919 2.55139 9.7889 2.55205L9.78673 2.55252C8.57939 2.81412 7.39743 3.18148 6.25453 3.65037C6.251 3.65182 6.24746 3.65324 6.24392 3.65465L2.00794 17.7996C2.00725 17.8019 2.00715 17.8046 2.00781 17.8069C2.0084 17.809 2.00951 17.8108 2.01103 17.8123C3.79072 19.3593 6.28311 20.5949 9.21846 21.3147L9.21954 21.3125L10.732 18.3125C10.9807 17.8194 11.582 17.6211 12.0752 17.8698C12.5683 18.1184 12.7665 18.7197 12.5179 19.2129L11.0097 22.2045C10.8118 22.6132 10.479 22.9414 10.0672 23.1336C9.65375 23.3265 9.18631 23.3703 8.74432 23.2577C5.56239 22.4777 2.76102 21.1161 0.693549 19.3171L0.68837 19.3126C0.399904 19.0581 0.190439 18.7262 0.0847573 18.3563C-0.0208975 17.9865 -0.0183814 17.5942 0.092004 17.2258C0.0919757 17.2259 0.0920324 17.2257 0.092004 17.2258L4.3279 3.08117C4.41243 2.78887 4.56377 2.52019 4.77003 2.29638C4.97408 2.07496 5.2263 1.90352 5.50711 1.79524C6.75497 1.28409 8.04529 0.883436 9.36321 0.59788C9.84563 0.492788 10.3499 0.568697 10.78 0.811213C11.2108 1.05409 11.537 1.44708 11.6965 1.91518L11.6995 1.92385L12.6869 4.91136C12.8603 5.43574 12.5757 6.00135 12.0513 6.17468C11.5269 6.34801 10.9613 6.06343 10.788 5.53905L9.80308 2.55937C9.80201 2.55684 9.80012 2.55473 9.79772 2.55337Z" fill="white"/>
</svg>
