<svg width="26" height="20" viewBox="0 0 26 20" fill="none" xmlns="http://www.w3.org/2000/svg">
<path fill-rule="evenodd" clip-rule="evenodd" d="M0 1C0 0.447715 0.447715 0 1 0H25C25.5523 0 26 0.447715 26 1V18C26 18.5304 25.7893 19.0391 25.4142 19.4142C25.0391 19.7893 24.5304 20 24 20H2C1.46957 20 0.960861 19.7893 0.585787 19.4142C0.210714 19.0391 0 18.5304 0 18V1ZM2 2V18H24V2H2Z" fill="white"/>
<path fill-rule="evenodd" clip-rule="evenodd" d="M0.262852 0.324281C0.636044 -0.0828378 1.26861 -0.110341 1.67573 0.262852L13 10.6434L24.3243 0.262852C24.7314 -0.110341 25.364 -0.0828378 25.7372 0.324281C26.1104 0.7314 26.0828 1.36397 25.6757 1.73716L13.6757 12.7372C13.2934 13.0876 12.7066 13.0876 12.3243 12.7372L0.324281 1.73716C-0.0828378 1.36397 -0.110341 0.7314 0.262852 0.324281Z" fill="white"/>
</svg>
