<svg width="30" height="24" viewBox="0 0 30 24" fill="none" xmlns="http://www.w3.org/2000/svg">
<path fill-rule="evenodd" clip-rule="evenodd" d="M4.32733 0.260067C4.73599 -0.11144 5.36844 -0.0813234 5.73995 0.327334L25.7399 22.3273C26.1115 22.736 26.0813 23.3684 25.6727 23.7399C25.264 24.1115 24.6316 24.0813 24.2601 23.6727L4.26007 1.67268C3.88856 1.26402 3.91868 0.631574 4.32733 0.260067Z" fill="white"/>
<path fill-rule="evenodd" clip-rule="evenodd" d="M12.3775 7.6272C12.7489 8.0359 12.7188 8.66834 12.3101 9.03981C11.7126 9.58283 11.2935 10.2939 11.1078 11.0796C10.922 11.8653 10.9784 12.6888 11.2695 13.4418C11.5605 14.1949 12.0726 14.8422 12.7385 15.2988C13.4043 15.7553 14.1927 15.9997 15.0001 15.9998L15.0038 15.9998C15.9968 16.0036 16.9548 15.6332 17.687 14.9624C18.0942 14.5894 18.7268 14.6171 19.0998 15.0243C19.4729 15.4316 19.4452 16.0641 19.0379 16.4372C17.9354 17.4472 16.4931 18.005 14.998 17.9998C13.7876 17.9993 12.6057 17.6328 11.6075 16.9483C10.6087 16.2634 9.84052 15.2924 9.40395 14.1628C8.96737 13.0333 8.88283 11.798 9.16142 10.6195C9.44001 9.44098 10.0687 8.37434 10.9648 7.55981C11.3735 7.18834 12.006 7.21851 12.3775 7.6272Z" fill="white"/>
<path fill-rule="evenodd" clip-rule="evenodd" d="M9.14277 4.1247C9.39169 4.61771 9.19382 5.21916 8.70081 5.46808C6.32393 6.66817 4.62068 8.40663 3.50654 9.86153C2.95114 10.5868 2.54771 11.2344 2.28514 11.6964C2.22094 11.8094 2.16526 11.9111 2.11795 11.9999C2.23561 12.2203 2.40464 12.5198 2.62758 12.8738C3.12862 13.6696 3.89623 14.7323 4.9572 15.7933C7.07338 17.9095 10.3327 20.0004 15.0001 20.0004H15.0082C17.1925 20.0182 19.3494 19.515 21.3002 18.5323C21.7935 18.2839 22.3947 18.4823 22.6432 18.9755C22.8916 19.4688 22.6932 20.0701 22.2 20.3185C19.9664 21.4436 17.4968 22.0202 14.9959 22.0004C9.66557 21.9992 5.92619 19.5907 3.54299 17.2075C2.35396 16.0185 1.49657 14.8312 0.935114 13.9395C0.653895 13.4928 0.445493 13.1181 0.305671 12.8511C0.235723 12.7176 0.182825 12.6108 0.146458 12.5353C0.128271 12.4975 0.114207 12.4675 0.104203 12.4459L0.0922277 12.4198L0.0885056 12.4115L0.087208 12.4086L0.0866997 12.4075C0.0864846 12.407 0.086285 12.4065 1.0001 12.0004C0.0858967 11.5951 0.0860401 11.5948 0.0861918 11.5945L0.0873788 11.5918L0.0896672 11.5867L0.0966732 11.5713C0.102427 11.5586 0.110352 11.5415 0.120475 11.5199C0.140718 11.4769 0.169765 11.4163 0.207823 11.3402C0.283913 11.1878 0.396181 10.9725 0.546298 10.7083C0.846229 10.1805 1.29906 9.45464 1.91865 8.64555C3.15452 7.03169 5.07627 5.05765 7.79939 3.68274C8.29239 3.43382 8.89385 3.63169 9.14277 4.1247ZM1.0001 12.0004L0.0861918 11.5945C-0.0283436 11.8529 -0.0284977 12.1483 0.086285 12.4065L1.0001 12.0004Z" fill="white"/>
<path fill-rule="evenodd" clip-rule="evenodd" d="M12.2474 2.22625C13.1573 2.07394 14.0784 1.99826 15.001 2.00003C15.0007 2.00003 15.0013 2.00003 15.001 2.00003L15 3.00003V2.00003C15.0003 2.00003 15.0007 2.00003 15.001 2.00003C20.3331 2.00033 24.0734 4.40925 26.4571 6.79292C27.6461 7.98195 28.5035 9.16924 29.065 10.061C29.3462 10.5076 29.5546 10.8824 29.6944 11.1493C29.7644 11.2828 29.8173 11.3896 29.8536 11.4651C29.8718 11.5029 29.8859 11.5329 29.8959 11.5545L29.9079 11.5807L29.9116 11.5889L29.9129 11.5918L29.9134 11.593C29.9136 11.5934 29.9138 11.5939 29 12C28.0862 11.5939 28.0863 11.5937 28.0864 11.5935L28.0788 11.61C28.0717 11.6253 28.0599 11.6503 28.0435 11.6842C28.0105 11.7522 27.9586 11.856 27.8873 11.99C27.8855 11.9933 27.8837 11.9967 27.8819 12C27.7643 11.7797 27.5953 11.4804 27.3725 11.1266C26.8715 10.3308 26.1039 9.26811 25.0429 8.20714C22.9267 6.09096 19.6674 4.00003 15 4.00003H14.998C14.1871 3.99843 13.3774 4.06492 12.5776 4.19881C12.0329 4.28999 11.5174 3.92233 11.4262 3.37763C11.3351 2.83292 11.7027 2.31743 12.2474 2.22625ZM29 12L29.9138 12.4062C30.0287 12.1476 30.0287 11.8525 29.9138 11.5939L29 12ZM27.8819 12C27.739 12.2677 27.5207 12.6513 27.2224 13.1074C26.617 14.0333 25.6904 15.2454 24.4083 16.3922C23.9967 16.7604 23.9615 17.3926 24.3297 17.8042C24.6979 18.2159 25.3301 18.2511 25.7417 17.8829C27.1846 16.5922 28.2205 15.2355 28.8963 14.202C29.2349 13.6842 29.4852 13.2444 29.6526 12.93C29.7363 12.7727 29.7995 12.6466 29.8428 12.5574C29.8644 12.5128 29.8811 12.4774 29.8929 12.4519L29.907 12.4213L29.9113 12.4118L29.9128 12.4085L29.9134 12.4072C29.9135 12.407 29.9138 12.4062 29 12C28.0862 12.4062 28.0864 12.4065 28.0865 12.4069L28.0806 12.3939C28.0748 12.3815 28.0652 12.3609 28.0516 12.3328C28.0245 12.2765 27.9817 12.1899 27.9228 12.0773C27.9099 12.0528 27.8963 12.027 27.8819 12Z" fill="white"/>
<path fill-rule="evenodd" clip-rule="evenodd" d="M14.9549 6.90191C15.0577 6.35928 15.581 6.00274 16.1236 6.10555C17.4001 6.34742 18.5633 6.99792 19.4377 7.9589C20.312 8.91987 20.8501 10.1392 20.9706 11.4328C21.0219 11.9827 20.6176 12.47 20.0677 12.5213C19.5178 12.5725 19.0305 12.1683 18.9793 11.6184C18.899 10.7569 18.5406 9.94485 17.9583 9.30486C17.376 8.66488 16.6014 8.23167 15.7513 8.07059C15.2086 7.96778 14.8521 7.44454 14.9549 6.90191Z" fill="white"/>
</svg>
