<svg width="30" height="20" viewBox="0 0 30 20" fill="none" xmlns="http://www.w3.org/2000/svg">
<path fill-rule="evenodd" clip-rule="evenodd" d="M3.54289 4.79289C5.92672 2.40907 9.66742 0 15 0C20.3326 0 24.0733 2.40907 26.4571 4.79289C27.6461 5.98192 28.5035 7.16921 29.065 8.06094C29.3462 8.50758 29.5546 8.88234 29.6944 9.14927C29.7644 9.28281 29.8173 9.38958 29.8536 9.46511C29.8718 9.50288 29.8859 9.53287 29.8959 9.55451L29.9079 9.58064L29.9116 9.58889L29.9129 9.59179L29.9134 9.59293C29.9136 9.59341 29.9138 9.59386 29 10C29.9138 10.4061 29.9136 10.4066 29.9134 10.4071L29.9129 10.4082L29.9116 10.4111L29.9079 10.4194L29.8959 10.4455C29.8859 10.4671 29.8718 10.4971 29.8536 10.5349C29.8173 10.6104 29.7644 10.7172 29.6944 10.8507C29.5546 11.1177 29.3462 11.4924 29.065 11.9391C28.5035 12.8308 27.6461 14.0181 26.4571 15.2071C24.0733 17.5909 20.3326 20 15 20C9.66742 20 5.92672 17.5909 3.54289 15.2071C2.35387 14.0181 1.49647 12.8308 0.935017 11.9391C0.653799 11.4924 0.445396 11.1177 0.305575 10.8507C0.235627 10.7172 0.182729 10.6104 0.146362 10.5349C0.128175 10.4971 0.114111 10.4671 0.104106 10.4455L0.0921312 10.4194L0.088409 10.4111L0.0871114 10.4082L0.0866031 10.4071C0.0863881 10.4066 0.0861884 10.4061 1 10C0.0861884 9.59386 0.0863881 9.59341 0.0866031 9.59293L0.0871114 9.59179L0.088409 9.58889L0.0921312 9.58064L0.104106 9.55451C0.114111 9.53287 0.128175 9.50288 0.146362 9.46511C0.182729 9.38958 0.235627 9.28281 0.305575 9.14927C0.445396 8.88234 0.653799 8.50758 0.935017 8.06094C1.49647 7.16921 2.35387 5.98192 3.54289 4.79289ZM1 10L0.0861884 9.59386C-0.0287295 9.85243 -0.0287295 10.1476 0.0861884 10.4061L1 10ZM2.11811 10C2.23576 10.2204 2.4047 10.5196 2.62748 10.8734C3.12853 11.6692 3.89613 12.7319 4.95711 13.7929C7.07328 15.9091 10.3326 18 15 18C19.6674 18 22.9267 15.9091 25.0429 13.7929C26.1039 12.7319 26.8715 11.6692 27.3725 10.8734C27.5953 10.5196 27.7642 10.2204 27.8819 10C27.7642 9.77963 27.5953 9.48039 27.3725 9.12656C26.8715 8.33079 26.1039 7.26808 25.0429 6.20711C22.9267 4.09093 19.6674 2 15 2C10.3326 2 7.07328 4.09093 4.95711 6.20711C3.89613 7.26808 3.12853 8.33079 2.62748 9.12656C2.4047 9.48039 2.23576 9.77963 2.11811 10ZM29 10L29.9138 10.4061C30.0287 10.1476 30.0287 9.85243 29.9138 9.59386L29 10Z" fill="white"/>
<path fill-rule="evenodd" clip-rule="evenodd" d="M15 6C12.7909 6 11 7.79086 11 10C11 12.2091 12.7909 14 15 14C17.2091 14 19 12.2091 19 10C19 7.79086 17.2091 6 15 6ZM9 10C9 6.68629 11.6863 4 15 4C18.3137 4 21 6.68629 21 10C21 13.3137 18.3137 16 15 16C11.6863 16 9 13.3137 9 10Z" fill="white"/>
</svg>
