<svg width="26" height="26" viewBox="0 0 26 26" fill="none" xmlns="http://www.w3.org/2000/svg">
<path fill-rule="evenodd" clip-rule="evenodd" d="M13 2C6.92487 2 2 6.92487 2 13C2 19.0751 6.92487 24 13 24C19.0751 24 24 19.0751 24 13C24 6.92487 19.0751 2 13 2ZM0 13C0 5.8203 5.8203 0 13 0C20.1797 0 26 5.8203 26 13C26 20.1797 20.1797 26 13 26C5.8203 26 0 20.1797 0 13Z" fill="white"/>
<path fill-rule="evenodd" clip-rule="evenodd" d="M0.6875 9C0.6875 8.44772 1.13522 8 1.6875 8H24.3125C24.8648 8 25.3125 8.44772 25.3125 9C25.3125 9.55228 24.8648 10 24.3125 10H1.6875C1.13522 10 0.6875 9.55228 0.6875 9Z" fill="white"/>
<path fill-rule="evenodd" clip-rule="evenodd" d="M0.6875 17C0.6875 16.4477 1.13522 16 1.6875 16H24.3125C24.8648 16 25.3125 16.4477 25.3125 17C25.3125 17.5523 24.8648 18 24.3125 18H1.6875C1.13522 18 0.6875 17.5523 0.6875 17Z" fill="white"/>
<path fill-rule="evenodd" clip-rule="evenodd" d="M10.3837 5.13841C9.54386 7.09946 9 9.87834 9 13.0002C9 16.1221 9.54386 18.9009 10.3837 20.862C10.8044 21.8443 11.2797 22.5753 11.7565 23.0462C12.229 23.5129 12.6481 23.6752 13 23.6752C13.3519 23.6752 13.771 23.5129 14.2435 23.0462C14.7203 22.5753 15.1956 21.8443 15.6163 20.862C16.4561 18.9009 17 16.1221 17 13.0002C17 9.87834 16.4561 7.09946 15.6163 5.13841C15.1956 4.15609 14.7203 3.42507 14.2435 2.95417C13.771 2.4875 13.3519 2.3252 13 2.3252C12.6481 2.3252 12.229 2.4875 11.7565 2.95417C11.2797 3.42507 10.8044 4.15609 10.3837 5.13841ZM10.3511 1.53118C11.075 0.816273 11.9712 0.325195 13 0.325195C14.0288 0.325195 14.9251 0.816273 15.6489 1.53118C16.3685 2.24186 16.9707 3.2206 17.4548 4.35104C18.4246 6.61551 19 9.67413 19 13.0002C19 16.3263 18.4246 19.3849 17.4548 21.6493C16.9707 22.7798 16.3685 23.7585 15.6489 24.4692C14.925 25.1841 14.0288 25.6752 13 25.6752C11.9712 25.6752 11.075 25.1841 10.3511 24.4692C9.6315 23.7585 9.02935 22.7798 8.54522 21.6493C7.57543 19.3849 7 16.3263 7 13.0002C7 9.67413 7.57543 6.61551 8.54522 4.35104C9.02935 3.2206 9.6315 2.24186 10.3511 1.53118Z" fill="white"/>
</svg>
