<svg width="24" height="27" viewBox="0 0 24 27" fill="none" xmlns="http://www.w3.org/2000/svg">
<path fill-rule="evenodd" clip-rule="evenodd" d="M12 15C11.1716 15 10.5 15.6716 10.5 16.5C10.5 17.3284 11.1716 18 12 18C12.8284 18 13.5 17.3284 13.5 16.5C13.5 15.6716 12.8284 15 12 15ZM8.5 16.5C8.5 14.567 10.067 13 12 13C13.933 13 15.5 14.567 15.5 16.5C15.5 18.433 13.933 20 12 20C10.067 20 8.5 18.433 8.5 16.5Z" fill="white"/>
<path fill-rule="evenodd" clip-rule="evenodd" d="M12 18C12.5523 18 13 18.4477 13 19V22C13 22.5523 12.5523 23 12 23C11.4477 23 11 22.5523 11 22V19C11 18.4477 11.4477 18 12 18Z" fill="white"/>
<path fill-rule="evenodd" clip-rule="evenodd" d="M0 11C0 9.89543 0.89543 9 2 9H22C23.1046 9 24 9.89543 24 11V25C24 26.1046 23.1046 27 22 27H2C0.89543 27 0 26.1046 0 25V11ZM22 11H2V25H22V11Z" fill="white"/>
<path fill-rule="evenodd" clip-rule="evenodd" d="M12 2C11.0717 2 10.1815 2.36875 9.52513 3.02513C8.86875 3.6815 8.5 4.57174 8.5 5.5V10C8.5 10.5523 8.05228 11 7.5 11C6.94772 11 6.5 10.5523 6.5 10V5.5C6.5 4.04131 7.07946 2.64236 8.11091 1.61091C9.14236 0.579463 10.5413 0 12 0C13.4587 0 14.8576 0.579463 15.8891 1.61091C16.9205 2.64236 17.5 4.04131 17.5 5.5V10C17.5 10.5523 17.0523 11 16.5 11C15.9477 11 15.5 10.5523 15.5 10V5.5C15.5 4.57174 15.1313 3.6815 14.4749 3.02513C13.8185 2.36875 12.9283 2 12 2Z" fill="white"/>
</svg>
