<svg width="26" height="26" viewBox="0 0 26 26" fill="none" xmlns="http://www.w3.org/2000/svg">
<path fill-rule="evenodd" clip-rule="evenodd" d="M6.87284 16.9188C7.04888 17.4423 6.76722 18.0094 6.24374 18.1854C4.54867 18.7554 3.64783 20.1784 3.16596 21.6254C2.97462 22.2 2.85902 22.7531 2.78956 23.2105C3.24694 23.1411 3.80009 23.0255 4.37468 22.8341C5.82168 22.3523 7.24463 21.4514 7.81466 19.7563C7.9907 19.2329 8.55777 18.9512 9.08124 19.1272C9.60472 19.3033 9.88638 19.8703 9.71034 20.3938C8.85536 22.9362 6.74082 24.1542 5.00657 24.7317C4.13049 25.0234 3.31032 25.1674 2.71168 25.2392C2.41091 25.2753 2.16226 25.2936 1.98561 25.3029C1.89719 25.3076 1.82652 25.31 1.77608 25.3112C1.75085 25.3119 1.73066 25.3122 1.7158 25.3124L1.69754 25.3125L1.69148 25.3126L1.68923 25.3126L1.6883 25.3126C1.68789 25.3126 1.6875 25.3126 1.6875 24.3126C0.6875 24.3126 0.6875 24.3122 0.6875 24.3118L0.687501 24.3108L0.687506 24.3086L0.687534 24.3025L0.687702 24.2843C0.687881 24.2694 0.688216 24.2492 0.688842 24.224C0.690092 24.1736 0.692505 24.1029 0.697158 24.0145C0.706454 23.8378 0.72475 23.5892 0.760829 23.2884C0.83264 22.6898 0.976669 21.8696 1.26841 20.9935C1.84592 19.2593 3.06383 17.1447 5.60626 16.2897C6.12974 16.1137 6.6968 16.3954 6.87284 16.9188ZM1.6875 24.3126H0.6875C0.6875 24.8649 1.13522 25.3126 1.6875 25.3126V24.3126Z" fill="white"/>
<path fill-rule="evenodd" clip-rule="evenodd" d="M23.4738 2.52591C22.3131 2.35851 19.456 2.29544 16.532 5.21946L8.75162 12.9999L12.9999 17.2481L20.7803 9.46775C23.7043 6.54373 23.6412 3.68663 23.4738 2.52591ZM23.7638 0.547044C22.1675 0.315926 18.6091 0.313923 15.1178 3.80525L6.6303 12.2928C6.44276 12.4803 6.3374 12.7346 6.3374 12.9999C6.3374 13.2651 6.44276 13.5194 6.6303 13.707L12.2928 19.3695C12.6833 19.76 13.3165 19.76 13.707 19.3695L22.1945 10.882C25.6858 7.39064 25.6838 3.83225 25.4527 2.23593C25.3942 1.80869 25.1975 1.41226 24.8925 1.10726C24.5875 0.802255 24.1911 0.60553 23.7638 0.547044Z" fill="white"/>
<path fill-rule="evenodd" clip-rule="evenodd" d="M20.075 10.5879C20.6272 10.5879 21.075 11.0356 21.075 11.5879V19.6629L21.0748 19.6771C21.0674 20.2024 20.8535 20.7035 20.4797 21.0723L16.4441 25.1204C16.188 25.3763 15.8671 25.5578 15.5158 25.6457C15.1646 25.7335 14.796 25.7243 14.4496 25.6191C14.1031 25.5138 13.7917 25.3165 13.5486 25.0482C13.3057 24.7801 13.14 24.4511 13.0693 24.0962C13.0693 24.0959 13.0694 24.0965 13.0693 24.0962L12.0195 18.8595C11.9109 18.3179 12.2619 17.791 12.8034 17.6824C13.3449 17.5738 13.8719 17.9248 13.9804 18.4663L15.0307 23.7054L19.0749 19.6487V11.5879C19.0749 11.0356 19.5227 10.5879 20.075 10.5879Z" fill="white"/>
<path fill-rule="evenodd" clip-rule="evenodd" d="M6.32317 4.92491L6.33741 4.9248H14.4124C14.9647 4.9248 15.4124 5.37252 15.4124 5.9248C15.4124 6.47709 14.9647 6.9248 14.4124 6.9248H6.35155L6.34347 6.93305L6.34342 6.933L2.29492 10.969L2.29647 10.9693L7.53397 12.0193C8.07548 12.1279 8.42646 12.6549 8.3179 13.1964C8.20934 13.7379 7.68235 14.0889 7.14084 13.9803L1.90489 12.9306C1.90459 12.9305 1.90429 12.9305 1.90399 12.9304C1.5492 12.8597 1.22022 12.6941 0.952104 12.4512C0.683762 12.2081 0.486454 11.8967 0.381231 11.5502C0.276008 11.2037 0.266817 10.8352 0.35464 10.4839C0.442463 10.1326 0.624004 9.81179 0.879894 9.5556L0.881394 9.5541L0.881395 9.55411L4.92796 5.52003C5.29678 5.14622 5.79791 4.93239 6.32317 4.92491Z" fill="white"/>
</svg>
