<svg width="26" height="26" viewBox="0 0 26 26" fill="none" xmlns="http://www.w3.org/2000/svg">
<path fill-rule="evenodd" clip-rule="evenodd" d="M11.5 2C6.25329 2 2 6.25329 2 11.5C2 16.7467 6.25329 21 11.5 21C16.7467 21 21 16.7467 21 11.5C21 6.25329 16.7467 2 11.5 2ZM0 11.5C0 5.14873 5.14873 0 11.5 0C17.8513 0 23 5.14873 23 11.5C23 17.8513 17.8513 23 11.5 23C5.14873 23 0 17.8513 0 11.5Z" fill="white"/>
<path fill-rule="evenodd" clip-rule="evenodd" d="M18.2177 18.2177C18.6082 17.8272 19.2414 17.8272 19.6319 18.2177L25.7069 24.2927C26.0974 24.6832 26.0974 25.3164 25.7069 25.7069C25.3164 26.0974 24.6832 26.0974 24.2927 25.7069L18.2177 19.6319C17.8272 19.2414 17.8272 18.6082 18.2177 18.2177Z" fill="white"/>
</svg>
