<?xml version="1.0" encoding="UTF-8" standalone="no"?>
<svg
   width="28"
   height="24"
   viewBox="0 0 28 24"
   fill="none"
   version="1.1"
   id="svg1"
   sodipodi:docname="twitter.svg"
   inkscape:version="1.3.2 (091e20e, 2023-11-25, custom)"
   xmlns:inkscape="http://www.inkscape.org/namespaces/inkscape"
   xmlns:sodipodi="http://sodipodi.sourceforge.net/DTD/sodipodi-0.dtd"
   xmlns="http://www.w3.org/2000/svg"
   xmlns:svg="http://www.w3.org/2000/svg">
  <defs
     id="defs1" />
  <sodipodi:namedview
     id="namedview1"
     pagecolor="#ffffff"
     bordercolor="#000000"
     borderopacity="0.25"
     inkscape:showpageshadow="2"
     inkscape:pageopacity="0.0"
     inkscape:pagecheckerboard="0"
     inkscape:deskcolor="#d1d1d1"
     inkscape:zoom="32.791667"
     inkscape:cx="13.997459"
     inkscape:cy="12"
     inkscape:window-width="1920"
     inkscape:window-height="1001"
     inkscape:window-x="-9"
     inkscape:window-y="-9"
     inkscape:window-maximized="1"
     inkscape:current-layer="svg1" />
  <path
     style="color:#000000;fill:#ffffff;stroke-linecap:round;stroke-linejoin:round;-inkscape-stroke:none"
     d="M 18.074219,0 C 14.763075,-0.04403453 12,2.6900611 12,6 V 6.6386719 C 6.9603974,5.2988741 2.7070313,1.2929687 2.7070313,1.2929687 A 1.0001,1.0001 0 0 0 1.015625,1.8222656 c -1.04579396,5.7518889 0.5433707,9.8364764 2.4296875,12.3964844 1.1360456,1.54178 2.2144503,2.412538 3.0351562,2.978516 -1.8863864,2.116802 -4.8320312,3.367187 -4.8320312,3.367187 a 1.0001,1.0001 0 0 0 -0.4804688,1.490234 c 0,0 0.1589041,0.224069 0.3808594,0.423829 0.2219554,0.199759 0.5494021,0.438763 1.0039063,0.666015 C 3.4617427,23.599035 4.8750021,24 7,24 c 4.317998,0.0021 8.474674,-1.640831 11.625,-4.59375 3.046499,-2.855701 4.898226,-6.737481 5.269531,-10.8867187 l 3.8125,-3.8125001 A 1.0001,1.0001 0 0 0 27,3 H 23 C 22.543034,2.2449326 22.061381,1.491276 21.320312,1 20.357669,0.36175541 19.231128,0.01370192 18.076172,0 Z m -0.02539,2 a 1.0001,1.0001 0 0 0 0.002,0 c 0.770576,0.0089 1.521837,0.2402122 2.164063,0.6660156 0.642295,0.4257964 1.146872,1.0280774 1.455078,1.734375 A 1.0001,1.0001 0 0 0 22.587891,5 h 1.998046 L 22.255859,7.3300781 A 1.0001,1.0001 0 0 0 21.964844,7.9746094 C 21.720523,11.777002 20.037682,15.341495 17.257812,17.947266 14.477944,20.552941 10.810194,22.001875 7,22 5.6045647,22 4.7521979,21.798796 4.109375,21.578125 5.5442825,20.84918 7.4039157,19.696861 8.8320313,17.554687 A 1.0001,1.0001 0 0 0 8.4472656,16.105469 c 0,0 -1.7788981,-0.882266 -3.3925781,-3.072266 C 3.6409706,11.114583 2.4806542,8.172779 2.8320313,3.9648438 4.4830614,5.4269715 7.8709198,8.1588252 12.835938,8.9863281 A 1.0001,1.0001 0 0 0 14,8 V 6 c 0,-2.1893917 1.860861,-4.0298319 4.048828,-4 z"
     id="path1" />
</svg>
