<svg width="28" height="25" viewBox="0 0 28 25" fill="none" xmlns="http://www.w3.org/2000/svg">
<path fill-rule="evenodd" clip-rule="evenodd" d="M14 2C10.134 2 7 5.13401 7 9C7 12.866 10.134 16 14 16C17.866 16 21 12.866 21 9C21 5.13401 17.866 2 14 2ZM5 9C5 4.02944 9.02944 0 14 0C18.9706 0 23 4.02944 23 9C23 13.9706 18.9706 18 14 18C9.02944 18 5 13.9706 5 9Z" fill="white"/>
<path fill-rule="evenodd" clip-rule="evenodd" d="M13.9999 17.999C11.7177 17.999 9.47578 18.5998 7.4994 19.741C5.52303 20.8822 3.8819 22.5235 2.74099 24.5001C2.4649 24.9784 1.85332 25.1423 1.375 24.8662C0.896685 24.5901 0.732753 23.9785 1.00885 23.5002C2.32528 21.2196 4.21889 19.3257 6.49932 18.009C8.77976 16.6922 11.3666 15.999 13.9999 15.999C16.6332 15.999 19.2201 16.6922 21.5005 18.009C23.781 19.3257 25.6746 21.2196 26.991 23.5002C27.2671 23.9785 27.1032 24.5901 26.6248 24.8662C26.1465 25.1423 25.535 24.9784 25.2589 24.5001C24.1179 22.5235 22.4768 20.8822 20.5004 19.741C18.5241 18.5998 16.2821 17.999 13.9999 17.999Z" fill="white"/>
</svg>
