<svg width="131" height="115" viewBox="0 0 131 115" fill="none" xmlns="http://www.w3.org/2000/svg">
<path d="M22.4081 58.2976C21.7431 59.2286 21.078 60.1596 20.147 60.8246C19.083 61.6226 13.3641 61.7556 8.57605 60.6916C8.31005 60.5586 7.64505 62.2876 7.37905 62.2876C7.11305 62.4206 6.71405 62.5536 6.58105 62.8196C6.44805 63.4846 7.11305 64.1496 7.64505 64.1496C11.3691 64.8146 15.2261 64.9476 19.2161 64.9476C19.8811 64.9476 20.5461 64.9476 21.2111 64.6816C21.8761 64.4156 22.5411 64.0166 23.0731 63.6176C24.4031 62.6866 25.6 61.4896 26.664 60.4256C29.59 57.4996 32.5161 54.4406 34.6441 51.1156C35.1761 50.3176 35.5751 49.6526 35.7081 48.8546C35.8411 48.1896 35.5751 47.5246 35.3091 46.9926C34.6441 45.6626 33.1811 44.7316 31.3191 44.9976C29.8561 45.1306 28.7921 45.7956 28.3931 47.1256C27.9941 48.4556 27.462 49.7856 26.7971 50.9826C25.8661 53.3766 24.1371 55.7706 22.4081 58.2976Z" fill="#ED7115"/>
<path d="M43.289 20.2597C46.88 18.2647 51.136 17.4667 55.259 16.9347C73.613 14.4077 92.366 14.1417 110.321 18.3977C112.715 18.9297 115.109 19.5947 116.971 21.3237C119.498 23.5847 120.163 27.4417 119.631 30.8997C119.099 34.3577 117.503 37.4167 116.04 40.6087C109.523 54.7067 105.799 71.0657 110.853 85.8287C111.784 88.4887 112.848 91.1487 112.715 93.9417C112.316 98.0647 109.124 101.257 105.799 103.518C101.144 106.71 95.824 108.971 90.238 110.301C88.775 110.567 87.312 110.833 85.982 110.567C84.519 110.301 83.189 109.636 81.992 108.838C74.81 104.449 69.091 97.9317 64.436 91.0157C59.781 83.9667 55.924 76.5187 51.668 69.2037C48.077 63.0857 44.087 57.2337 41.161 50.7167C36.772 41.6727 32.383 26.3777 43.289 20.2597Z" fill="#FFB133"/>
<path d="M39.964 21.3236C43.555 19.3286 47.811 18.5306 51.934 17.9986C70.288 15.4716 89.041 15.2056 106.996 19.4616C109.39 19.9936 111.784 20.7916 113.646 22.3876C116.173 24.7816 116.838 28.5056 116.306 31.9636C115.774 35.4216 114.178 38.4806 112.715 41.6726C106.198 55.9036 102.474 72.3956 107.528 87.2916C108.459 89.9516 109.523 92.6116 109.39 95.4046C108.991 99.5276 105.799 102.72 102.474 105.114C97.686 108.439 92.366 110.7 86.78 112.03C85.317 112.296 83.854 112.562 82.524 112.296C81.061 112.03 79.731 111.365 78.534 110.567C71.352 106.178 65.633 99.6606 60.978 92.6116C56.323 85.5626 52.466 77.9816 48.21 70.6666C44.619 64.5486 40.629 58.5636 37.703 52.0466C33.447 42.8696 29.058 27.4416 39.964 21.3236Z" fill="#FF931D"/>
<path d="M71.219 26.6436L40.762 23.8506C37.836 23.5846 35.176 25.1806 33.979 27.8406C31.319 33.6926 27.196 44.8646 27.196 57.3666C27.196 71.1986 29.856 91.9466 31.186 101.523C31.585 104.582 33.979 106.976 37.038 107.375L83.322 112.961C87.844 113.493 91.568 109.503 90.77 105.114C89.174 95.6706 87.179 80.5086 88.11 68.1396C89.041 56.5686 92.1001 44.5986 94.494 37.0176C95.8241 32.8946 92.898 28.6386 88.509 28.2396L71.219 26.6436Z" fill="#FFB133"/>
<path d="M92.366 24.117C96.622 24.915 101.41 26.245 103.538 29.969C105.267 32.895 104.868 36.619 104.203 39.944C102.74 46.727 100.213 53.244 98.75 60.16C97.154 66.943 96.4891 74.258 98.4841 80.908C97.0211 73.46 98.4841 65.879 101.144 58.83C103.804 51.781 107.395 45.131 110.587 38.348C111.917 35.422 113.247 32.097 112.449 28.905C111.784 26.644 110.188 24.649 108.193 23.452C106.198 22.122 103.804 21.457 101.543 20.925C95.691 19.595 89.8391 19.063 83.854 18.664C75.475 18.132 67.0961 17.733 58.7171 17.467C55.7911 17.334 52.732 17.334 49.8061 17.866C48.3431 18.132 47.146 18.664 45.8161 19.196C44.885 19.595 43.023 20.127 41.826 20.659C45.018 20.792 48.609 20.526 51.8011 20.526C55.126 20.526 58.451 20.526 61.7761 20.659C68.2931 20.925 74.8101 21.59 81.3271 22.388C84.9181 22.787 88.642 23.452 92.366 24.117Z" fill="#AA4E0F"/>
<path d="M98.351 23.3189C102.208 24.3829 106.464 26.2449 108.193 29.9689C109.124 32.2299 108.991 34.8899 108.459 37.2839C107.927 39.6779 107.129 42.0719 106.863 44.5989C108.991 41.6729 110.853 38.6139 111.651 35.0229C112.316 31.5649 111.784 27.5749 109.257 24.9149C106.73 22.2549 102.873 21.3239 99.282 20.6589C87.046 18.7969 74.81 17.9989 62.707 17.5999C61.244 17.5999 59.781 17.4669 58.318 17.4669C57.786 17.4669 54.195 17.0679 53.929 17.4669C53.53 18.1319 56.722 18.1319 57.121 18.1319C58.584 18.2649 60.047 18.3979 61.51 18.5309C67.362 18.9299 73.214 19.3289 79.066 19.9939C85.583 20.5259 92.1 21.5899 98.351 23.3189Z" fill="#843D0D"/>
<path d="M50.072 17.7326C53.663 17.4666 57.254 17.4666 60.845 17.5996C64.702 17.7326 68.559 17.8656 72.416 18.1316C79.997 18.6636 87.578 19.4616 95.159 20.3926C99.016 20.9246 103.006 21.4566 106.331 23.4516C109.124 25.0476 111.518 27.5746 111.651 31.0326C111.651 33.1606 110.853 35.1556 110.055 37.1506C109.257 39.0126 108.326 40.8746 107.528 42.7366C105.799 46.4606 104.07 50.1846 102.474 53.9086C99.016 62.1546 96.356 70.7996 97.021 79.8436C97.021 80.6416 98.351 80.6416 98.351 79.8436C97.686 71.4646 100.08 63.3516 103.139 55.7706C104.735 51.9136 106.597 48.0566 108.326 44.1996C109.257 42.2046 110.188 40.3426 111.119 38.3476C112.05 36.4856 112.848 34.6236 113.114 32.6286C113.646 29.1706 112.05 26.1116 109.523 23.9836C106.73 21.5896 103.272 20.5256 99.681 19.9936C95.824 19.3286 91.967 18.9296 88.11 18.5306C84.12 18.2646 80.13 17.8656 76.14 17.5996C71.618 17.2006 67.096 16.9346 62.707 16.9346C58.584 16.9346 54.328 17.2006 50.072 17.5996C49.939 17.4666 49.939 17.7326 50.072 17.7326Z" fill="#ED7115"/>
<path d="M104.602 36.7515C104.336 37.9485 104.203 39.2785 103.937 40.4755C103.804 41.4065 103.538 42.3375 103.272 43.4015L120.163 25.5795L116.04 22.5205L104.602 34.4905C104.868 35.1555 104.735 35.9535 104.602 36.7515Z" fill="#FF3627"/>
<path d="M104.602 36.7519C104.602 36.8849 104.602 37.0179 104.469 37.1509L117.237 23.7179L116.173 22.2549L104.735 34.3579C104.868 35.1559 104.735 35.9539 104.602 36.7519Z" fill="#E22924"/>
<path d="M120.695 24.7819C120.429 25.1809 120.163 25.5799 119.764 25.7129C119.365 25.8459 118.833 25.5799 118.833 25.1809C118.567 25.3139 118.168 25.3139 117.902 25.1809C117.636 24.9149 117.503 24.5159 117.769 24.2499C117.503 24.3829 117.104 24.3829 116.838 24.2499C116.572 24.1169 116.572 23.5849 116.838 23.4519C116.439 23.4519 116.04 23.3189 116.04 23.0529C115.907 22.6539 116.173 22.3879 116.572 22.1219C118.966 20.2599 121.36 18.5309 123.887 16.9349C124.02 16.8019 124.286 16.6689 124.552 16.6689C124.951 16.6689 125.35 16.9349 125.35 17.3339C125.483 17.8659 125.084 18.3979 124.685 18.7969C124.286 19.4619 123.754 20.1269 123.355 20.7919C122.424 22.1219 121.493 23.4519 120.695 24.7819Z" fill="#FFD98D"/>
<path opacity="0.39" d="M120.163 24.7818C120.03 24.9148 119.897 25.0478 119.764 25.0478C119.631 25.0478 119.631 24.7818 119.631 24.6488C119.498 24.7818 119.498 24.9148 119.232 25.0478C119.099 25.0478 118.833 24.9148 118.966 24.7818C118.833 24.9148 118.567 25.0478 118.434 24.9148C118.301 24.7818 118.434 24.5158 118.567 24.2498C120.429 22.3878 122.291 20.3928 124.02 18.2648C124.286 17.9988 124.552 17.5998 124.818 17.3338C125.084 17.0678 125.217 17.3338 125.084 17.5998C125.084 17.8658 124.818 17.9988 124.685 18.1318C124.286 18.6638 123.887 19.1958 123.488 19.7278C122.69 20.7918 122.025 21.9888 121.227 23.1858C120.961 23.5848 120.562 24.2498 120.163 24.7818Z" fill="white"/>
<path d="M127.345 14.9397C127.478 14.6737 127.611 14.5407 127.611 14.2747C127.611 14.1417 127.611 14.1417 127.478 14.0087C127.345 13.8757 127.079 14.0087 126.946 14.1417C125.749 14.9397 124.685 15.8707 123.754 16.8017C123.621 16.9347 123.621 16.9347 123.488 17.0677C123.355 17.4667 123.488 17.8657 123.887 18.1317C124.153 18.2647 124.685 18.3977 124.951 18.2647C125.217 18.1317 125.616 17.4667 125.749 17.2007C126.281 16.5357 126.813 15.7377 127.345 14.9397Z" fill="#FF3627"/>
<path d="M98.218 25.7129C98.75 25.9789 99.282 26.2449 99.814 26.5109C99.947 26.6439 100.213 26.6439 100.346 26.7769L105.267 13.7429L100.479 12.5459L95.824 24.7819C96.622 25.1809 97.42 25.3139 98.218 25.7129Z" fill="#6A9E2E"/>
<path d="M97.42 25.3138L101.942 13.2108L100.479 12.2798L95.824 24.6488C96.356 24.9148 96.888 25.1808 97.42 25.3138Z" fill="#5E8729"/>
<path d="M105.4 12.8119C105.4 13.2109 105.267 13.6099 105.001 14.0089C104.735 14.4079 104.07 14.2749 103.937 13.8759C103.804 14.1419 103.405 14.2749 103.139 14.1419C102.873 14.0089 102.607 13.7429 102.607 13.3439C102.474 13.6099 102.075 13.7429 101.809 13.7429C101.543 13.6099 101.277 13.3439 101.41 13.0779C101.144 13.2109 100.745 13.2109 100.479 12.9449C100.213 12.6789 100.346 12.2799 100.612 12.0139C102.075 9.48692 103.538 7.09292 105.134 4.69892C105.267 4.56592 105.4 4.29992 105.533 4.16692C105.932 4.03392 106.331 4.16692 106.597 4.43292C106.863 4.96492 106.73 5.49692 106.597 6.02892C106.464 6.82692 106.331 7.49192 106.065 8.28992C105.932 9.88592 105.666 11.3489 105.4 12.8119Z" fill="#FFD98D"/>
<path opacity="0.39" d="M105.001 13.0779C105.001 13.2109 104.868 13.4769 104.735 13.4769C104.602 13.4769 104.469 13.3439 104.336 13.0779C104.336 13.2109 104.336 13.4769 104.203 13.4769C104.07 13.6099 103.804 13.4769 103.804 13.3439C103.671 13.4769 103.538 13.7429 103.405 13.6099C103.139 13.4769 103.272 13.2109 103.272 13.0779C104.203 10.6839 105.134 8.15689 105.799 5.76289C105.932 5.36389 106.065 4.96489 106.198 4.56589C106.331 4.29989 106.464 4.43289 106.597 4.69889C106.597 4.83189 106.464 5.09789 106.464 5.36389C106.331 6.02889 106.198 6.56089 106.065 7.22589C105.799 8.55589 105.533 9.75289 105.4 11.0829C105.267 11.7479 105.134 12.4129 105.001 13.0779Z" fill="white"/>
<path d="M107.661 1.6398C107.661 1.3738 107.794 1.1078 107.528 0.974797L107.395 0.841797C107.262 0.841797 107.129 0.974797 106.996 1.1078C106.198 2.3048 105.666 3.5018 105.134 4.6988C105.134 4.8318 105.001 4.9648 105.001 5.0978C105.001 5.4968 105.267 5.8958 105.666 5.8958C105.932 5.8958 106.464 5.8958 106.73 5.6298C106.996 5.3638 106.996 4.6988 106.996 4.4328C107.262 3.5018 107.528 2.5708 107.661 1.6398Z" fill="#5E8729"/>
<path d="M81.061 21.8557C81.46 21.8557 81.992 21.9887 82.391 21.9887L79.864 10.9497L75.874 12.4127L78.135 21.8557C79.066 21.8557 80.13 21.8557 81.061 21.8557Z" fill="#A150FF"/>
<path d="M79.598 21.8558L77.337 12.2798H75.874L78.135 21.7228C78.534 21.8558 79.066 21.8558 79.598 21.8558Z" fill="#893EFF"/>
<path d="M79.598 10.2846C79.731 10.5506 79.864 10.9496 79.864 11.3486C79.731 11.7476 79.332 12.0136 79.066 11.7476C79.066 12.0136 78.933 12.2796 78.667 12.4126C78.401 12.5456 78.135 12.4126 78.002 12.1466C78.002 12.4126 77.869 12.6786 77.603 12.8116C77.337 12.9446 77.071 12.6786 77.071 12.4126C76.938 12.6786 76.672 12.8116 76.406 12.8116C76.14 12.6786 76.007 12.4126 76.007 12.1466C75.874 9.75262 75.741 7.22562 75.741 4.83162C75.741 4.69862 75.741 4.43262 75.874 4.29962C76.007 4.03362 76.406 3.90062 76.805 4.03362C77.204 4.16662 77.337 4.69862 77.603 5.09762C77.869 5.76262 78.135 6.29462 78.268 6.95962C78.534 8.02362 79.066 9.22062 79.598 10.2846Z" fill="#FFD98D"/>
<path opacity="0.39" d="M79.4649 10.6838C79.4649 10.8168 79.5979 10.9498 79.4649 11.0828C79.3319 11.2158 79.1989 11.0828 79.0659 10.9498C79.0659 11.0828 79.1989 11.2158 79.1989 11.3488C79.1989 11.4818 78.9329 11.4818 78.9329 11.4818C78.9329 11.6148 78.9329 11.8808 78.7999 11.8808C78.6669 11.8808 78.5339 11.7478 78.4009 11.4818C78.0019 9.35384 77.3369 7.22584 76.8049 5.09784C76.6719 4.83184 76.5389 4.43284 76.5389 4.03384C76.5389 3.76784 76.6719 3.76784 76.8049 3.90084C76.9379 4.03384 76.9379 4.29984 76.9379 4.43284C77.0709 4.96484 77.3369 5.49684 77.4699 5.89584C77.8689 6.95984 78.4009 7.89084 78.7999 8.95484C78.9329 9.61984 79.1989 10.1518 79.4649 10.6838Z" fill="white"/>
<path d="M75.874 1.37361C75.741 1.24061 75.741 0.974609 75.475 0.974609H75.342C75.209 0.974609 75.209 1.24061 75.209 1.37361C75.209 2.57061 75.342 3.63461 75.608 4.83161C75.608 4.96461 75.608 5.09761 75.741 5.09761C75.874 5.36361 76.273 5.49661 76.672 5.36361C76.938 5.23061 77.204 4.96461 77.337 4.69861C77.337 4.43261 77.071 3.90061 76.938 3.63461C76.539 2.83661 76.273 2.17161 75.874 1.37361Z" fill="#A150FF"/>
<path d="M98.75 106.976C100.612 106.311 101.011 103.385 101.543 101.789C102.208 99.129 102.607 96.602 102.208 93.942C101.41 88.755 98.75 83.967 98.085 78.647C97.819 77.051 95.558 77.317 95.824 78.913C96.888 83.701 99.016 88.09 100.08 92.878C100.346 94.208 100.612 95.405 100.612 96.735C100.612 97.932 100.346 99.262 100.213 100.459C100.08 101.523 99.947 102.72 99.814 103.917C99.681 104.449 99.681 104.848 99.415 105.247C99.282 105.779 98.883 106.311 98.617 106.843C98.617 106.843 98.617 106.976 98.75 106.976Z" fill="#ED7115"/>
<path d="M35.4421 104.316C34.6441 102.986 34.2451 101.523 33.9791 99.927C31.8511 89.154 31.7181 78.115 31.5851 67.209C31.4521 58.83 31.3191 50.318 33.3141 42.072C34.6441 36.752 37.0381 31.299 41.8261 28.639C44.7521 27.043 48.2101 26.777 51.5351 26.378C54.1951 26.112 56.8551 25.979 59.5151 25.713C54.4611 24.782 49.2741 24.117 44.0871 23.718C42.0921 23.585 40.0971 23.452 38.2351 24.117C34.9101 25.314 32.9151 28.905 31.7181 32.23C29.5901 37.949 28.6591 43.934 27.7281 49.919C27.1961 53.377 26.6641 56.835 26.6641 60.293C26.6641 63.884 27.3291 67.475 27.7281 71.066C28.9251 81.041 28.5261 91.415 31.3191 100.991C31.8511 102.853 32.6491 104.848 34.3781 105.779C35.9741 106.71 38.1021 106.311 39.6981 107.375C38.1021 106.577 36.5061 106.045 35.4421 104.316Z" fill="#FF931D"/>
<path d="M84.519 114.158C84.253 114.158 83.854 114.158 83.588 114.158L37.304 108.572C33.713 108.173 30.787 105.38 30.255 101.656C28.792 90.8829 26.265 70.9329 26.265 57.2339C26.265 44.3329 30.521 32.8949 33.048 27.1759C34.511 24.1169 37.703 22.1219 41.161 22.5209L71.618 25.3139L89.174 26.7769C91.568 27.0429 93.829 28.2399 95.159 30.2349C96.489 32.2299 96.888 34.7569 96.223 37.1509C93.829 44.8649 90.77 56.5689 89.839 67.8739C88.908 79.8439 90.77 94.4739 92.499 104.582C92.898 107.109 92.1 109.636 90.371 111.498C88.775 113.227 86.78 114.158 84.519 114.158ZM40.363 25.0479C38.235 25.0479 36.24 26.3779 35.309 28.3729C32.782 33.8259 28.659 44.9979 28.659 57.3669C28.659 71.3319 31.452 92.7449 32.649 101.39C33.048 103.917 35.043 105.779 37.437 106.178L83.721 111.764C85.45 112.03 87.179 111.365 88.376 110.035C89.573 108.705 90.105 106.976 89.839 105.247C88.11 95.0059 86.248 80.2429 87.179 67.8739C88.11 56.3029 91.169 44.4659 93.696 36.4859C94.228 34.8899 93.962 33.1609 93.031 31.6979C92.1 30.2349 90.637 29.4369 88.908 29.3039L71.352 27.8409L40.895 25.0479C40.762 25.0479 40.629 25.0479 40.363 25.0479Z" fill="#FFDB45"/>
<path d="M35.841 33.693C35.708 33.826 35.575 34.092 35.575 34.225C35.575 34.491 35.974 34.757 36.24 34.757C36.506 34.757 36.905 34.624 37.171 34.491C39.299 33.56 41.427 32.496 43.555 31.432C43.821 31.299 44.2199 31.033 44.3529 30.767C44.6189 30.501 44.6189 30.102 44.3529 29.836C44.2199 29.703 43.9539 29.57 43.6879 29.437C41.0279 28.905 37.437 31.565 35.841 33.693Z" fill="#AA4E0F"/>
<path d="M80.13 37.2839C80.263 37.5499 80.263 37.6829 80.263 37.9489C80.13 38.2149 79.731 38.4809 79.465 38.3479C79.199 38.3479 78.8 38.0819 78.534 37.9489C76.672 36.4859 74.81 35.1559 72.948 33.5599C72.682 33.2939 72.416 33.0279 72.283 32.7619C72.15 32.4959 72.15 31.9639 72.416 31.8309C72.549 31.6979 72.815 31.6979 73.081 31.5649C76.273 31.4319 79.066 34.7569 80.13 37.2839Z" fill="#AA4E0F"/>
<path d="M50.072 72.6619C51.934 74.7899 54.86 76.1199 57.52 75.5879C59.382 75.1889 60.9779 74.1249 62.3079 72.7949C64.569 70.6669 66.298 68.1399 67.362 65.2139C66.298 71.0659 65.101 76.9179 62.84 82.3709C61.909 84.6319 60.978 86.8929 58.85 88.0899C57.254 88.8879 53.5299 89.4199 51.6679 87.0259C46.3479 79.9769 45.816 70.4009 44.752 63.0859C45.151 64.6819 48.742 71.3319 50.072 72.6619Z" fill="#413E49"/>
<path d="M62.308 72.7948C60.978 74.1248 59.382 75.1888 57.52 75.5878C54.727 76.1198 51.934 74.6568 50.072 72.6618C49.54 72.1298 48.875 71.0658 48.077 69.7358C48.077 69.8688 48.077 70.0018 48.077 70.1348C48.343 71.8638 48.609 73.5928 48.875 75.3218C49.141 76.6518 49.274 77.9818 50.205 78.9128C51.402 80.3758 53.53 80.6418 55.392 80.6418C56.988 80.6418 58.451 80.5088 60.047 80.3758C60.978 80.2428 62.042 79.9768 62.441 79.0458C62.574 78.7798 62.574 78.5138 62.574 78.2478C62.84 76.1198 63.106 74.1248 63.239 71.9968C62.973 72.1298 62.574 72.5288 62.308 72.7948Z" fill="white"/>
<path d="M43.289 63.086C43.422 62.953 43.555 62.687 43.688 62.554C43.821 62.421 43.954 62.288 44.087 62.155C44.486 61.889 44.885 61.889 45.284 62.022C45.284 61.889 45.417 61.756 45.417 61.623C45.284 61.49 45.151 61.49 45.151 61.623C45.151 61.756 45.151 61.889 45.284 62.022C45.55 62.022 45.683 61.756 45.417 61.623C44.885 61.357 44.353 61.49 43.954 61.756C43.688 61.889 43.555 62.022 43.422 62.288C43.289 62.554 43.156 62.687 43.289 63.086Z" fill="#413E49"/>
<path d="M66.963 64.2828C67.096 64.2828 67.229 64.2828 67.362 64.2828C67.495 64.2828 67.628 64.2828 67.761 64.4158C68.027 64.5488 68.293 64.6818 68.426 64.9478C68.559 65.2138 68.692 65.3468 68.692 65.6128C68.692 65.7458 68.692 66.0118 68.692 66.1448C68.692 66.2778 68.559 66.5438 68.692 66.6768C68.692 66.8098 68.825 66.8098 68.958 66.6768C69.091 66.5438 69.091 66.2778 69.091 66.1448C69.091 65.8788 69.091 65.7458 69.091 65.4798C69.091 65.0808 68.958 64.8148 68.692 64.5488C68.426 64.2828 68.16 64.0168 67.894 64.0168C67.761 64.0168 67.495 63.8838 67.362 63.8838C67.229 63.8838 66.963 63.8838 66.963 64.0168C66.697 64.1498 66.83 64.2828 66.963 64.2828Z" fill="#413E49"/>
<path d="M6.448 58.9626C6.049 58.4306 5.65 57.4996 5.65 56.8346C5.65 56.1696 5.783 55.5046 5.65 54.8396C5.65 54.5736 5.517 54.3076 5.251 54.3076C4.985 54.3076 4.719 54.5736 4.586 54.9726C4.32 55.9036 4.054 56.9676 4.054 57.8986C3.256 57.6326 2.325 57.8986 1.66 58.4306C1.394 58.6966 1.261 58.9626 1.261 59.2286C1.261 59.4946 1.394 59.8936 1.66 60.0266C1.128 60.0266 0.729004 60.4256 0.729004 60.9576C0.729004 61.3566 0.995004 61.8886 1.394 62.0216C0.995004 62.2876 0.729004 62.8196 0.995004 63.2186C1.128 63.6176 1.527 64.0166 2.059 64.1496C2.591 64.2826 2.99 64.2826 3.522 64.2826C5.384 64.2826 7.246 63.7506 8.975 64.0166C9.507 64.0166 10.039 64.1496 10.438 63.8836C10.837 63.6176 10.837 63.0856 10.97 62.6866C10.97 62.2876 10.97 61.8886 10.704 61.4896C10.571 61.2236 10.305 61.2236 10.039 61.0906C8.576 60.6916 7.512 60.1596 6.448 58.9626Z" fill="#ED7115"/>
<path d="M103.538 70.7999C108.459 77.8489 115.641 83.3019 123.754 85.9619C123.754 85.2969 123.754 84.7649 123.754 84.0999C119.764 82.2379 115.774 79.9769 112.582 76.9179C109.39 73.8589 106.73 70.0019 105.932 65.6129C105.666 64.1499 105.533 62.6869 105.267 61.2239C105.267 60.9579 105.134 60.6919 105.001 60.5589C104.469 60.0269 103.538 60.6919 103.272 61.4899C101.011 64.9479 101.144 67.4749 103.538 70.7999Z" fill="#ED7115"/>
<path d="M122.291 83.0359C122.956 83.0359 123.488 82.9029 124.153 82.7699C124.818 82.6369 125.483 82.3709 126.148 82.1049C126.414 81.9719 126.813 81.9719 126.946 82.2379C127.079 82.3709 126.946 82.6369 126.68 82.7699C126.547 83.0359 126.281 83.1689 126.148 83.4349C127.079 83.4349 127.877 83.3019 128.808 83.3019C129.074 83.3019 129.207 83.3019 129.473 83.3019C129.739 83.3019 129.872 83.4349 129.872 83.7009C129.872 83.8339 129.872 84.0999 129.606 84.2329C129.872 84.0999 130.271 84.2329 130.404 84.4989C130.537 84.7649 130.404 85.1639 130.271 85.2969C130.005 85.5629 129.739 85.5629 129.473 85.5629C129.739 85.5629 130.005 85.6959 130.005 85.8289V85.9619C129.872 86.2279 129.606 86.3609 129.473 86.3609C127.877 86.8929 126.148 86.7599 124.419 86.3609C122.823 85.9619 121.227 85.1639 119.897 84.2329C119.365 83.8339 118.966 83.5679 118.567 83.0359C118.434 82.9029 118.301 82.6369 118.434 82.5039C118.567 82.3709 118.7 82.3709 118.833 82.3709C120.03 82.2379 121.094 83.0359 122.291 83.0359Z" fill="#ED7115"/>
<path d="M37.5701 85.5629L36.7721 83.1689L34.3781 82.3709L36.3731 80.9079V78.3809L38.3681 79.8439L40.7621 79.0459L39.9641 81.4399L41.5601 83.4349H39.0331L37.5701 85.5629Z" fill="#FFDD4D"/>
<path d="M56.0571 98.8626L54.0621 97.5326L51.8011 98.4636L52.3331 96.2026L50.7371 94.3406L53.2641 94.2076L54.4611 92.0796L55.3921 94.3406L57.7861 94.8726L55.9241 96.4686L56.0571 98.8626Z" fill="#FFDD4D"/>
<path d="M41.427 104.05L40.762 102.587L39.033 102.321L40.23 101.257L39.964 99.6606L41.427 100.326L42.89 99.6606L42.624 101.257L43.821 102.321L42.092 102.587L41.427 104.05Z" fill="#FFDD4D"/>
<path d="M78.401 101.124L80.263 98.5967L79.199 95.6707L82.125 96.6017L84.519 94.7397L84.652 97.7988L87.179 99.5277L84.253 100.459L83.455 103.518L81.593 100.991L78.401 101.124Z" fill="#FFDD4D"/>
<path d="M77.8689 84.8977L75.874 83.3017L73.347 84.0997L74.145 81.7057L72.549 79.5777H75.209L76.672 77.4497L77.47 79.9767L79.997 80.6417L77.8689 82.2377V84.8977Z" fill="#FFDD4D"/>
<path d="M79.066 61.4896L79.864 59.7606L78.933 58.2976L80.662 58.4306L81.726 57.1006L82.125 58.8296L83.854 59.4946L82.258 60.4256L82.125 62.1546L80.795 60.9576L79.066 61.4896Z" fill="#FFDD4D"/>
<path d="M38.7669 65.3469L36.2399 64.4159L33.9789 65.8789L34.1119 63.0859L32.1169 61.4899L34.6439 60.8249L35.5749 58.2979L37.0379 60.5589L39.6979 60.6919L37.9689 62.8199L38.7669 65.3469Z" fill="#FFDD4D"/>
<path d="M57.121 39.279L56.722 37.018L54.594 36.22L56.589 35.023L56.855 32.895L58.451 34.358L60.712 33.826L59.648 35.954L60.845 37.816L58.584 37.55L57.121 39.279Z" fill="#FFDD4D"/>
<path d="M85.8489 38.2149L84.3859 36.3529L81.9919 36.6189L83.1889 34.6239L82.3909 32.4959L84.6519 33.0279L86.3809 31.5649L86.5139 33.8259L88.5089 35.0229L86.3809 35.9539L85.8489 38.2149Z" fill="#FFDD4D"/>
<path d="M37.437 11.8806C38.235 9.61962 39.831 7.75763 41.693 6.42763C43.555 4.96463 45.683 4.03362 47.944 3.23562C53.131 1.50662 58.717 0.841625 64.037 1.50663C66.165 7.62462 66.564 14.2746 66.963 20.7916C64.702 20.1266 62.441 20.1266 60.18 19.9936C56.323 19.8606 52.333 19.7276 48.476 19.9936C47.146 19.9936 45.949 20.2596 45.018 19.3286C43.954 18.2646 43.156 16.8016 42.092 15.7376C40.629 14.1416 39.166 12.9446 37.437 11.8806Z" fill="#97FFFF"/>
<path d="M57.786 9.75282C57.786 9.61982 57.919 9.61982 57.919 9.48682C58.052 9.48682 58.185 9.48682 58.185 9.48682C68.16 10.4178 77.47 15.0728 86.115 20.2598C85.317 21.1908 84.652 22.2548 84.12 23.3188C80.795 22.6538 77.47 22.1218 74.145 21.5898C70.82 21.0578 67.362 20.6588 63.904 20.3928C60.978 20.1268 58.052 19.9938 55.126 20.1268C53.53 20.1268 53.796 19.3288 54.195 18.1318C54.594 16.8018 55.126 15.4718 55.658 14.1418C56.589 12.5458 57.121 11.0828 57.786 9.75282Z" fill="#80D2FF"/>
<path d="M103.671 28.6388C101.543 25.3138 97.287 24.2498 93.43 23.5848C76.406 20.5258 59.781 18.6638 42.624 19.8608L39.432 21.4568C59.914 19.7278 75.741 22.9198 92.632 25.4468C95.691 25.8458 99.814 27.4418 101.543 30.3678C104.336 35.2888 100.745 44.7318 99.548 49.2538C98.484 53.3768 96.888 57.3668 95.957 61.6228C94.76 67.7408 95.159 74.1248 97.154 79.9768C97.952 77.4498 97.42 74.7898 97.287 72.2628C96.489 59.7608 104.469 48.3228 105.001 35.8208C105.267 33.1608 105.001 30.6338 103.671 28.6388Z" fill="#ED7115"/>
<path d="M99.0159 76.6518L96.09 76.7848C95.292 76.7848 94.627 77.5828 94.76 78.3808L95.159 84.3658C95.159 85.1638 95.957 85.8288 96.755 85.8288L99.6809 85.5628C100.479 85.5628 101.144 84.7648 101.011 83.9668L100.612 77.9818C100.479 77.1838 99.8139 76.5188 99.0159 76.6518ZM100.08 83.8338C100.08 84.3658 99.814 84.7648 99.282 84.7648L96.8879 84.8978C96.3559 84.8978 95.957 84.4988 95.957 84.0998V83.5678C95.957 83.0358 96.223 82.6368 96.755 82.6368L99.149 82.5038C99.681 82.5038 100.08 82.9028 100.08 83.3018V83.8338Z" fill="#63636B"/>
<path d="M95.9569 94.4739C95.8239 94.7399 95.6909 94.8729 95.6909 95.1389C95.6909 95.4049 95.8239 95.6709 96.0899 95.8039C96.6219 96.2029 97.2869 96.3358 97.9519 96.3358C98.3509 96.3358 98.8829 96.2029 99.1489 95.9369C99.4149 95.6709 99.4149 95.4049 99.5479 95.1389C99.9469 93.6759 99.8139 92.2129 99.6809 90.7498C99.5479 89.9518 99.5479 89.2869 99.4149 88.4889C99.4149 88.0899 99.2819 87.6909 99.1489 87.2919C99.0159 86.8929 98.6169 86.6269 98.2179 86.4939C97.8189 86.3609 97.2869 86.6269 97.2869 87.1589C97.2869 87.2919 97.2869 87.2919 97.1539 87.2919C97.1539 88.4889 97.2869 89.6858 97.1539 91.0158C96.8879 92.2128 96.6219 93.4099 95.9569 94.4739Z" fill="#FFDD4D"/>
<path d="M98.8829 88.0899L97.9519 88.2229C97.2869 88.2229 96.8879 87.8239 96.7549 87.1589L96.6219 84.4989C96.6219 83.8339 97.0209 83.4349 97.6859 83.3019L98.6169 83.1689C99.2819 83.1689 99.681 83.5679 99.814 84.2329L99.9469 86.8929C99.9469 87.5579 99.4149 88.0899 98.8829 88.0899Z" fill="#85858E"/>
<path opacity="0.49" d="M97.021 83.9669C96.755 84.2329 96.755 84.7649 96.755 85.1639C96.755 85.6959 96.888 86.0949 96.888 86.6269C96.888 87.0259 97.021 87.2919 97.287 87.5579C97.287 87.5579 97.42 87.6909 97.42 87.5579C97.42 87.1589 97.42 86.8929 97.42 86.4939C97.42 86.0949 97.287 85.8289 97.42 85.4299C97.553 85.0309 97.686 84.7649 98.085 84.6319C98.218 84.6319 98.484 84.6319 98.617 84.4989C99.149 84.2329 98.75 83.7009 98.351 83.5679C97.952 83.5679 97.42 83.7009 97.021 83.9669Z" fill="white"/>
<path d="M39.299 42.0717C38.102 44.1997 37.969 46.7267 38.102 49.2537C38.235 51.9137 38.634 54.5737 40.097 56.8347C41.427 58.9627 44.087 60.4257 46.481 59.7607C47.678 59.3617 48.742 58.5637 49.54 57.4997C50.338 56.4357 50.87 55.2387 51.269 53.9087C52.067 51.3817 52.466 48.5887 52.333 45.9287C52.333 44.7317 52.2 43.6677 51.801 42.6037C50.87 40.0767 48.21 38.7467 45.816 38.8797C44.619 39.0127 43.422 38.8797 42.358 39.2787C41.028 39.8107 39.964 40.8747 39.299 42.0717Z" fill="#FFF3E9"/>
<path d="M52.466 45.796C52.466 44.599 52.333 43.535 51.934 42.471C51.535 41.54 51.003 40.742 50.338 40.21C50.471 40.476 50.604 40.609 50.604 40.875C51.003 41.939 51.136 43.003 51.136 44.2C51.269 46.86 50.87 49.653 50.072 52.18C49.673 53.51 49.141 54.707 48.343 55.771C47.545 56.835 46.481 57.766 45.284 58.032C43.422 58.564 41.56 57.766 40.097 56.569C40.097 56.569 40.097 56.702 40.23 56.702C41.56 58.83 44.22 60.293 46.614 59.628C47.811 59.229 48.875 58.431 49.673 57.367C50.471 56.303 51.003 55.106 51.402 53.776C52.2 51.249 52.599 48.589 52.466 45.796Z" fill="#FFE7C0"/>
<path d="M38.1019 46.9931C41.9589 44.2001 45.9489 44.5991 49.1409 46.5941C50.3379 47.2591 51.1359 48.7221 51.8009 49.6531C51.9339 48.8551 52.1999 45.9291 51.8009 45.1311C51.4019 44.4661 50.7369 44.0671 50.0719 43.6681C48.742 43.1361 47.4119 42.8701 45.9489 42.8701C44.4859 42.8701 43.1559 43.0031 41.8259 43.2691C41.1609 43.4021 40.4959 43.6681 39.8309 43.9341C39.2989 44.2001 38.5009 44.4661 38.1019 44.9981C37.9689 45.2641 37.9689 45.3971 38.1019 45.6631C38.1019 46.1951 38.1019 46.5941 38.1019 46.9931Z" fill="#FFE7C0"/>
<path d="M41.028 46.5938C40.629 47.5248 40.496 48.5888 40.496 49.6528C40.496 51.1158 40.762 52.5788 41.56 53.6428C42.358 54.7068 43.821 55.3718 45.018 54.8398C45.417 54.7068 45.683 54.3078 46.082 54.0418C47.545 52.4458 48.21 50.1848 47.678 48.0568C47.412 46.9928 47.013 46.0618 46.215 45.3968C44.619 44.0668 41.959 44.5988 41.028 46.5938Z" fill="#413E49"/>
<path d="M41.693 48.5887C41.693 48.8547 41.693 49.2537 41.959 49.3867C42.092 49.5197 42.225 49.5197 42.358 49.5197C42.89 49.5197 43.422 49.1207 43.688 48.7217C44.087 48.1897 44.486 47.5247 44.619 46.8597C44.885 45.7957 43.821 44.9977 42.89 45.5297C42.092 46.0617 41.693 47.6577 41.693 48.5887Z" fill="white"/>
<path d="M38.634 42.6039C39.432 41.1409 40.629 39.6779 42.092 38.8799C43.422 38.2149 44.885 37.8159 46.348 37.8159C47.678 37.8159 49.141 37.9489 50.338 38.7469C51.535 39.4119 52.2 40.6089 52.599 41.9389C52.998 43.2689 52.998 44.5989 52.998 45.9289C52.998 46.8599 52.998 47.1259 52.865 48.0569C51.535 46.9929 50.737 45.2639 47.013 43.9339C43.422 42.7369 38.501 43.1359 37.703 48.0569C37.836 47.6579 37.703 46.1949 37.836 45.6629C37.969 44.5989 38.102 43.6679 38.634 42.6039Z" fill="#FF931D"/>
<path d="M52.599 41.939C52.2 40.609 51.402 39.412 50.338 38.747C49.806 38.348 49.141 38.215 48.609 38.082C49.673 38.88 50.338 39.944 50.604 41.141C51.003 42.471 51.003 43.801 51.003 45.131C51.003 46.062 51.003 45.397 51.003 46.328C51.668 46.727 52.333 47.791 52.998 48.19C52.998 47.259 53.131 46.993 53.131 46.062C52.998 44.599 52.998 43.269 52.599 41.939Z" fill="#FF7915"/>
<path opacity="0.3" d="M40.762 40.7419C39.698 41.6729 39.033 42.7369 38.767 43.9339C38.767 44.0669 38.767 44.3329 38.9 44.3329C39.033 44.3329 39.033 44.1999 39.166 44.1999C40.629 42.3379 42.225 40.3429 44.486 39.1459C44.619 39.0129 44.885 38.8799 44.885 38.7469C44.087 38.4809 43.289 39.0129 42.757 39.4119C41.959 39.8109 41.294 40.2099 40.762 40.7419Z" fill="white"/>
<path d="M66.697 43.9339C65.5 46.0619 65.234 48.7219 65.234 51.2489C65.234 53.9089 65.633 56.8349 66.963 59.0959C68.293 61.3569 70.953 62.9529 73.347 62.4209C74.677 62.1549 75.741 61.2239 76.539 60.1599C77.337 59.0959 78.002 57.7659 78.401 56.5689C79.332 53.9089 79.864 51.2489 79.864 48.4559C79.864 47.2589 79.731 46.0619 79.332 44.9979C78.401 42.3379 75.874 40.8749 73.214 41.0079C72.017 41.1409 70.82 40.8749 69.623 41.2739C68.559 41.6729 67.362 42.7369 66.697 43.9339Z" fill="#FFF3E9"/>
<path d="M79.997 48.3232C79.997 47.1262 79.864 45.9292 79.465 44.8652C79.066 43.9342 78.534 43.1362 77.869 42.4712C78.002 42.7372 78.135 42.8702 78.135 43.1362C78.534 44.2002 78.667 45.3972 78.667 46.5942C78.667 49.3872 78.135 52.1802 77.204 54.7072C76.672 56.0372 76.14 57.2342 75.342 58.2982C74.544 59.3622 73.347 60.1602 72.15 60.5592C70.288 60.9582 68.293 60.1602 66.963 58.8302C66.963 58.8302 66.963 58.9632 67.096 58.9632C68.426 61.2242 71.086 62.8202 73.48 62.2882C74.81 62.0222 75.874 61.0912 76.672 60.0272C77.47 58.9632 78.135 57.6332 78.534 56.4362C79.465 53.9092 79.997 51.1162 79.997 48.3232Z" fill="#FFE7C0"/>
<path d="M65.234 48.9883C69.357 46.1953 73.347 46.8603 76.539 48.9883C77.736 49.7863 78.534 51.2493 79.066 52.1803C79.199 51.2493 79.598 48.3233 79.199 47.5253C78.933 46.8603 78.135 46.3283 77.47 46.0623C76.14 45.3973 74.677 45.2643 73.214 45.1313C71.751 44.9983 70.288 45.1313 68.958 45.3973C68.293 45.5303 67.495 45.7963 66.83 46.0623C66.298 46.3283 65.367 46.5943 65.101 46.9933C64.968 47.2593 64.968 47.3923 64.968 47.6583C65.234 48.1903 65.234 48.5893 65.234 48.9883Z" fill="#FFE7C0"/>
<path d="M68.16 48.589C67.628 49.52 67.495 50.717 67.495 51.781C67.495 53.244 67.628 54.707 68.426 55.904C69.224 57.101 70.687 57.766 72.017 57.234C72.416 57.101 72.815 56.835 73.081 56.436C74.677 54.84 75.342 52.579 74.943 50.318C74.81 49.254 74.278 48.19 73.613 47.525C71.884 46.195 69.224 46.594 68.16 48.589Z" fill="#413E49"/>
<path d="M68.825 50.7171C68.825 50.9831 68.8249 51.3821 68.9579 51.5151C69.0909 51.6481 69.224 51.6481 69.357 51.6481C69.889 51.6481 70.421 51.2491 70.82 50.8501C71.352 50.3181 71.751 49.6531 71.884 48.9881C72.15 47.7911 71.219 46.9931 70.155 47.6581C69.357 48.0571 68.958 49.7861 68.825 50.7171Z" fill="white"/>
<path d="M65.899 44.466C66.697 42.87 68.027 41.54 69.623 40.742C70.953 40.077 72.549 39.811 74.012 39.811C75.475 39.811 76.938 40.077 78.002 40.875C79.199 41.673 79.864 42.87 80.263 44.2C80.662 45.53 80.662 46.86 80.529 48.323C80.529 49.387 80.396 49.52 80.396 50.584C79.066 49.52 78.268 47.658 74.544 46.195C70.953 44.865 65.766 44.998 64.835 50.052C64.968 49.653 64.835 48.057 64.968 47.658C65.234 46.461 65.367 45.53 65.899 44.466Z" fill="#FF931D"/>
<path d="M80.263 44.333C79.864 43.003 79.199 41.806 78.002 41.008C77.47 40.609 76.805 40.343 76.14 40.21C77.204 41.008 77.869 42.205 78.135 43.402C78.534 44.732 78.534 46.062 78.401 47.525C78.401 48.456 78.401 47.791 78.268 48.722C78.933 49.254 79.598 50.185 80.263 50.717C80.396 49.653 80.396 49.52 80.396 48.456C80.662 46.993 80.529 45.663 80.263 44.333Z" fill="#FF7915"/>
<path opacity="0.3" d="M68.16 42.6039C67.096 43.5349 66.298 44.5989 66.032 45.7959C66.032 45.9289 66.032 46.1949 66.165 46.1949C66.298 46.1949 66.298 46.0619 66.431 46.0619C68.027 44.1999 69.623 42.2049 72.15 41.1409C72.416 41.0079 72.549 40.8749 72.682 40.7419C71.884 40.4759 71.086 41.0079 70.421 41.2739C69.49 41.6729 68.825 42.0719 68.16 42.6039Z" fill="white"/>
<path d="M67.362 107.508L66.431 105.779L64.569 105.513L66.032 104.183L65.633 102.188L67.362 103.119L69.091 102.188L68.692 104.183L70.155 105.513L68.16 105.779L67.362 107.508Z" fill="#FFDD4D"/>
</svg>
