<svg width="107" height="109" viewBox="0 0 107 109" fill="none" xmlns="http://www.w3.org/2000/svg">
<path d="M96.2421 53.0198C99.4321 49.3898 101.412 44.6598 102.512 39.9298C102.952 38.1698 103.282 36.4098 104.492 35.0898C104.492 40.9198 103.282 46.8598 100.752 52.1398C98.1121 57.7498 93.8221 63.0298 87.9921 64.8998C86.2321 65.4498 84.1421 65.6698 82.7121 64.5698C79.1921 61.9298 83.5921 59.8398 85.7921 59.2898C89.8621 58.0798 93.2721 56.3198 96.2421 53.0198Z" fill="#4390FF"/>
<path d="M92.832 15.2898L91.072 25.0798L85.022 23.5398L88.542 14.2998L92.832 15.2898Z" fill="#4D96FF"/>
<path d="M8.46216 17.8198L19.1322 104.39C19.1322 104.39 19.3522 105.82 20.7822 106.92C22.2122 108.02 24.3022 108.9 24.3022 108.9L22.4322 18.3698L8.46216 17.8198Z" fill="#4390FF"/>
<path d="M100.862 34.5402C100.642 34.2102 100.422 33.9902 100.422 33.5502C100.312 33.2202 100.532 32.7802 100.862 32.6702C101.192 32.5602 101.632 32.8902 101.742 33.2202C101.962 33.5502 102.072 33.8802 102.402 34.1002C102.402 32.7802 102.512 31.3502 102.732 30.0302C102.842 29.7002 102.952 29.2602 103.282 29.2602C103.502 29.2602 103.832 29.3702 103.942 29.7002C104.052 29.9202 104.052 30.2502 104.052 30.4702C104.272 30.1402 104.162 29.7002 104.272 29.2602C104.382 28.8202 104.822 28.4902 105.152 28.7102C105.372 28.8202 105.372 29.1502 105.372 29.3702C105.372 29.8102 105.372 30.2502 105.372 30.5802C105.372 30.3602 105.372 30.2502 105.482 30.1402C105.592 30.0302 105.702 29.9202 105.922 29.9202C106.032 29.9202 106.142 30.0302 106.142 30.1402C106.692 30.9102 106.582 32.0102 106.362 32.8902C105.812 35.8602 104.822 38.8302 103.392 41.4702C102.952 42.3502 102.732 41.4702 102.622 40.9202C102.512 40.1502 102.622 39.3802 102.512 38.6102C102.182 37.1802 101.632 35.7502 100.862 34.5402Z" fill="#4390FF"/>
<path d="M13.632 65.4499C9.89197 68.5299 7.25197 72.8199 5.27197 77.3299C4.61197 78.9799 3.95197 80.6299 2.52197 81.7299C3.40197 75.8999 5.71197 70.3999 9.01197 65.5599C12.532 60.3899 17.592 55.9899 23.642 55.1099C25.512 54.7799 27.602 54.9999 28.812 56.3199C31.782 59.5099 27.162 60.8299 24.962 61.0499C20.782 61.4899 17.042 62.6999 13.632 65.4499Z" fill="#4390FF"/>
<path d="M6.04207 82.94C6.15207 83.27 6.37207 83.6 6.37207 83.93C6.37207 84.26 6.15207 84.7 5.82207 84.7C5.49207 84.7 5.16207 84.37 4.94207 84.04C4.83207 83.71 4.72207 83.27 4.50207 83.05C4.28207 84.37 3.95207 85.69 3.51207 87.01C3.40207 87.34 3.18207 87.67 2.85207 87.67C2.63207 87.67 2.41207 87.45 2.30207 87.23C2.19207 87.01 2.30207 86.68 2.30207 86.46C2.08207 86.79 2.08207 87.23 1.97207 87.67C1.86207 88.11 1.31207 88.33 0.982071 88.11C0.762071 87.89 0.872072 87.67 0.872072 87.45C0.982072 87.01 0.982071 86.57 1.09207 86.24C1.09207 86.35 0.982072 86.57 0.872072 86.68C0.762072 86.79 0.542072 86.9 0.432071 86.79C0.322071 86.79 0.322071 86.68 0.212071 86.57C-0.227929 85.69 0.102071 84.7 0.432071 83.82C1.42207 80.96 2.96207 78.21 4.83207 75.79C5.49207 75.02 5.49207 75.9 5.49207 76.45C5.49207 77.22 5.27207 77.99 5.27207 78.65C5.16207 80.08 5.49207 81.51 6.04207 82.94Z" fill="#4390FF"/>
<path d="M13.9622 23.54L24.4122 108.9H86.6722L96.5722 23.54H13.9622Z" fill="#5AB1FF"/>
<path d="M13.962 23.5399C13.962 23.5399 8.242 21.7799 8.462 17.9299C8.682 14.0799 15.282 13.4199 15.282 13.4199H91.952L92.942 15.2899L91.182 15.5099L85.902 20.5699L95.142 21.3399L96.682 23.5399H13.962Z" fill="#83C4FF"/>
<path d="M91.182 15.3999H14.952L14.512 20.6799L94.262 21.2299C94.262 21.2299 92.502 19.7999 91.622 18.2599C90.412 16.2799 91.182 15.3999 91.182 15.3999Z" fill="#FFECBB"/>
<path d="M14.952 15.4001C14.952 15.4001 11.982 15.0701 11.322 17.3801C10.552 20.4601 14.512 20.6801 14.512 20.6801L14.952 15.4001Z" fill="#4D96FF"/>
<path d="M16.052 17.0502C18.362 17.1602 20.562 17.1602 22.872 17.1602C25.182 17.1602 27.382 17.1602 29.692 17.1602C34.202 17.1602 38.822 17.1602 43.332 17.1602C52.352 17.1602 61.482 17.2702 70.502 17.1602C73.032 17.1602 75.562 17.0502 78.202 17.0502C80.732 17.0502 83.262 17.0502 85.902 17.0502C86.012 17.0502 86.012 16.9402 85.902 16.9402C81.392 16.8302 76.772 16.9402 72.262 16.8302C67.752 16.7202 63.132 16.7202 58.622 16.7202C49.602 16.7202 40.472 16.7202 31.452 16.7202C28.922 16.7202 26.392 16.7202 23.752 16.7202C21.222 16.8302 18.692 16.8302 16.052 17.0502Z" fill="#FFCB92"/>
<path d="M16.052 18.9201C18.252 19.0301 20.562 19.0301 22.762 19.0301C24.962 19.0301 27.272 19.0301 29.472 19.0301C33.982 19.0301 38.382 19.0301 42.892 19.0301C44.102 19.0301 45.422 19.0301 46.632 19.0301C47.842 19.0301 49.162 19.0301 50.372 19.0301C50.482 19.0301 50.482 18.8101 50.372 18.8101C49.272 18.7001 48.062 18.8101 46.962 18.8101C45.862 18.8101 44.762 18.8101 43.662 18.8101C41.462 18.8101 39.152 18.8101 36.952 18.8101C32.442 18.8101 28.042 18.8101 23.532 18.8101C21.112 18.8101 18.582 18.7001 16.052 18.9201Z" fill="#FFCB92"/>
<path d="M22.2121 18.0399C24.4121 18.1499 26.6121 18.0399 28.9221 18.0399C31.1221 18.0399 33.3221 18.0399 35.6321 18.0399C40.0321 18.0399 44.5421 18.0399 48.9421 18.0399C57.7421 18.0399 66.6521 18.0399 75.4521 18.0399C77.9821 18.0399 80.4021 18.0399 82.9321 18.0399C85.4621 18.0399 87.8821 18.0399 90.4121 18.0399C90.5221 18.0399 90.5221 17.8199 90.4121 17.8199C86.0121 17.7099 81.5021 17.8199 77.1021 17.8199C72.7021 17.8199 68.1921 17.8199 63.7921 17.8199C54.9921 17.8199 46.0821 17.8199 37.2821 17.8199C34.7521 17.8199 32.3321 17.8199 29.8021 17.8199C27.1621 17.9299 24.6321 17.9299 22.2121 18.0399C22.1021 18.0399 22.1021 18.0399 22.2121 18.0399Z" fill="#FFCB92"/>
<path d="M20.1221 20.1302C29.1421 20.2402 38.2721 20.2402 47.2921 20.2402C56.312 20.2402 65.332 20.2402 74.352 20.2402C79.412 20.2402 84.4721 20.2402 89.6421 20.2402C89.8621 20.2402 89.8621 19.9102 89.6421 19.9102C80.6221 19.8002 71.4921 19.9102 62.4721 19.9102C53.4521 19.9102 44.4321 19.9102 35.4121 19.9102C30.2421 20.0202 25.1821 20.0202 20.1221 20.1302C20.0121 20.1302 20.0121 20.1302 20.1221 20.1302Z" fill="#FFCB92"/>
<path d="M52.572 17.8199L50.592 10.8899L73.582 6.37988L76.002 17.8199H52.572Z" fill="#FFC043"/>
<path d="M68.5222 18.04C68.1922 14.96 68.4122 11.66 69.4022 8.69C70.3922 5.72 72.3722 2.97 75.0122 1.32C74.7922 2.86 74.6822 4.4 74.7922 5.94C75.5622 3.96 77.5422 2.75 79.4122 1.65C80.7322 0.88 82.0522 0.11 83.5922 0C81.3922 2.64 80.2922 6.05 79.5222 9.46C78.8622 12.21 78.3122 15.29 79.3022 17.93L68.5222 18.04Z" fill="#E86A43"/>
<path d="M19.2422 18.9202L21.4422 8.91016L39.8122 13.9702L38.6022 18.9202H19.2422Z" fill="#7FC133"/>
<path d="M25.0721 33.4399C24.6321 33.9899 24.3021 34.6499 24.1921 35.4199C24.1921 35.5299 24.1921 35.6399 24.1921 35.7499C24.3021 35.9699 24.6321 35.8599 24.8521 35.7499C27.8221 33.8799 30.7921 32.1199 33.7621 30.2499C34.0921 30.0299 34.4221 29.8099 34.6421 29.4799C34.8621 29.1499 34.9721 28.7099 34.7521 28.3799C34.6421 28.1599 34.4221 28.0499 34.0921 27.9399C32.1121 27.1699 30.9021 28.3799 29.3621 29.3699C27.7121 30.3599 26.2821 31.7899 25.0721 33.4399Z" fill="#413E49"/>
<path d="M83.2621 32.7798C83.7021 33.3298 84.0321 33.9898 84.1421 34.7598C84.1421 34.8698 84.1421 34.9798 84.1421 35.0898C84.0321 35.3098 83.7021 35.1998 83.4821 35.0898C80.5121 33.2198 77.5421 31.4598 74.5721 29.5898C74.2421 29.3698 73.9121 29.1498 73.6921 28.8198C73.4721 28.4898 73.3621 28.0498 73.5821 27.7198C73.6921 27.4998 73.9121 27.3898 74.2421 27.2798C76.2221 26.5098 77.4321 27.7198 78.9721 28.7098C80.6221 29.8098 82.1621 31.1298 83.2621 32.7798Z" fill="#413E49"/>
<path d="M54.772 67.9801C54.662 67.9801 54.662 67.9801 54.772 67.9801C54.662 67.9801 54.552 67.9801 54.552 67.9801C49.382 68.0901 44.212 65.5601 41.022 61.6001C41.462 63.4701 42.012 65.2301 42.452 67.1001C43.222 69.9601 43.992 72.8201 45.422 75.3501C46.852 77.8801 49.162 80.0801 51.912 80.8501C52.792 81.0701 53.782 81.1801 54.662 81.1801C55.542 81.2901 56.532 81.1801 57.412 80.8501C60.162 80.0801 62.472 77.8801 63.902 75.3501C65.332 72.8201 66.102 69.9601 66.872 67.1001C67.312 65.3401 67.862 63.4701 68.302 61.6001C65.112 65.5601 59.832 68.0901 54.772 67.9801Z" fill="#413E49"/>
<path d="M54.6621 67.9799C54.5521 67.9799 54.4421 67.9799 54.4421 67.9799C50.4821 68.0899 46.5221 66.5499 43.4421 64.1299C43.5521 64.8999 43.5521 65.6699 43.5521 66.4399C43.5521 66.6599 43.5521 66.9899 43.6621 67.2099C43.7721 67.5399 43.9921 67.8699 44.3221 68.1999C46.1921 70.2899 48.9421 71.2799 51.6921 71.7199C56.2021 72.3799 60.9321 71.2799 64.7821 68.6399C65.0021 68.5299 65.2221 68.3099 65.4421 67.9799C65.5521 67.6499 65.5521 67.2099 65.5521 66.8799C65.4421 66.1099 65.3321 65.2299 65.2221 64.4599C62.1421 66.7699 58.4021 68.0899 54.6621 67.9799Z" fill="white"/>
<path d="M61.922 77.8799C61.922 77.7699 61.812 77.6599 61.702 77.4399C60.712 75.3499 58.292 74.0299 56.092 74.2499C55.102 74.3599 54.112 74.7999 53.892 75.6799C52.462 74.5799 50.372 74.5799 48.942 75.6799C47.952 76.3399 47.622 77.2199 47.512 78.0999C48.722 79.3099 50.152 80.2999 51.802 80.7399C52.682 80.9599 53.672 81.0699 54.552 81.0699C55.432 81.1799 56.422 81.0699 57.302 80.7399C59.062 80.2999 60.602 79.3099 61.922 77.8799Z" fill="#FF624D"/>
<path d="M39.9221 62.3701C39.8121 62.2601 39.8121 61.9301 39.8121 61.8201C39.8121 61.6001 39.8121 61.4901 39.8121 61.2701C39.9221 60.9401 40.0321 60.6101 40.2521 60.2801C40.4721 60.0601 40.8021 59.9501 41.1321 59.9501C41.4621 59.9501 41.7921 60.2801 42.0121 60.3901C42.1221 60.5001 42.2321 60.3901 42.1221 60.2801C41.9021 59.9501 41.6821 59.7301 41.3521 59.6201C41.0221 59.5101 40.6921 59.5101 40.3621 59.7301C39.7021 60.0601 39.3721 60.8301 39.3721 61.4901C39.3721 61.7101 39.3721 61.9301 39.4821 62.0401C39.7021 62.3701 39.8121 62.3701 39.9221 62.3701C40.0321 62.4801 40.0321 62.3701 39.9221 62.3701Z" fill="#413E49"/>
<path d="M67.2021 61.3802C67.4221 61.0502 67.7521 60.7202 68.1921 60.5002C68.6321 60.2802 69.0721 60.2802 69.4021 60.6102C70.1721 61.2702 69.7321 62.3702 69.5121 63.2502C69.5121 63.3602 69.6221 63.3602 69.6221 63.2502C70.0621 62.4802 70.3921 61.4902 69.9521 60.7202C69.7321 60.3902 69.5121 60.1702 69.1821 60.0602C68.7421 59.9502 68.3021 60.0602 67.9721 60.2802C67.7521 60.3902 67.6421 60.5002 67.5321 60.7202C67.2021 60.9402 67.2021 61.1602 67.2021 61.3802C67.0921 61.3802 67.0921 61.3802 67.2021 61.3802Z" fill="#413E49"/>
<path d="M27.8221 40.1498C27.1621 42.7898 27.7121 45.6498 28.4821 48.1798C29.3621 51.0398 30.5721 53.7898 32.6621 55.7698C34.7521 57.7498 38.0521 58.6298 40.4721 57.1998C41.6821 56.4298 42.6721 55.2198 43.2221 53.8998C43.7721 52.4698 43.9921 51.0398 44.1021 49.4998C44.3221 46.5298 43.9921 43.4498 43.1121 40.4798C42.7821 39.2698 42.3421 38.0598 41.5721 37.0698C39.8121 34.6498 36.6221 33.7698 33.9821 34.7598C32.7721 35.1998 31.3421 35.4198 30.2421 36.1898C29.0321 37.1798 28.1521 38.6098 27.8221 40.1498Z" fill="#3B82FF"/>
<path d="M28.3721 41.58C27.7121 44.11 28.2621 46.86 29.0321 49.39C29.9121 52.14 31.0121 54.89 33.1021 56.87C35.1921 58.74 38.2721 59.62 40.5821 58.3C41.7921 57.64 42.6721 56.43 43.2221 55.11C43.7721 53.79 43.9921 52.25 44.1021 50.82C44.3221 47.85 43.9921 44.88 43.1121 42.13C42.7821 40.92 42.3421 39.82 41.5721 38.83C39.8121 36.41 36.8421 35.64 34.2021 36.52C32.9921 36.96 31.6721 37.07 30.5721 37.95C29.5821 38.83 28.7021 40.15 28.3721 41.58Z" fill="#FFF3E9"/>
<path d="M43.2221 42.1296C42.8921 40.9196 42.4521 39.8196 41.682 38.8296C41.022 37.9496 40.2521 37.2896 39.3721 36.8496C39.5921 37.0696 39.7021 37.2896 39.9221 37.5096C40.5821 38.4996 41.022 39.7096 41.462 40.8096C42.232 43.6696 42.5621 46.6396 42.4521 49.4996C42.3421 50.9296 42.1221 52.4696 41.5721 53.7896C41.0221 55.1096 40.1421 56.3196 38.9321 56.9796C37.172 57.9696 34.9721 57.7496 33.1021 56.7596L33.212 56.8696C35.302 58.7396 38.382 59.6196 40.692 58.2996C41.902 57.6396 42.7821 56.4296 43.3321 55.1096C43.8821 53.7896 44.102 52.2496 44.212 50.8196C44.322 47.9596 43.9921 44.8796 43.2221 42.1296Z" fill="#FFE7C0"/>
<path d="M32.112 46.4198C31.892 47.5198 32.002 48.7298 32.332 49.8298C32.662 51.3698 33.322 52.7998 34.532 53.7898C35.632 54.7798 37.392 54.9998 38.492 54.1198C38.822 53.7898 39.152 53.4598 39.372 53.0198C40.472 51.0398 40.582 48.3998 39.482 46.1998C39.042 45.2098 38.272 44.2198 37.282 43.7798C35.192 42.7898 32.552 44.1098 32.112 46.4198Z" fill="#413E49"/>
<path d="M33.3221 48.29C33.3221 48.62 33.4321 48.95 33.7621 49.06C33.8721 49.17 34.0921 49.17 34.3121 49.06C34.8621 48.95 35.3021 48.4 35.5221 47.85C35.8521 47.19 36.0721 46.42 36.0721 45.54C35.9621 44.33 34.7521 43.78 33.9821 44.66C33.2121 45.54 33.2121 47.3 33.3221 48.29Z" fill="white"/>
<path opacity="0.3" d="M29.4722 47.8498C29.5822 49.4998 30.1322 51.0398 31.1222 52.2498C31.2322 52.3598 31.4522 52.5798 31.5622 52.3598C31.6722 52.2498 31.5622 52.1398 31.5622 52.0298C30.7922 49.1698 30.0222 46.1998 30.5722 43.3398C30.5722 43.1198 30.6822 42.7898 30.4622 42.5698C29.6922 43.0098 29.5822 44.1098 29.4722 44.8798C29.4722 45.9798 29.4722 46.9698 29.4722 47.8498Z" fill="white"/>
<path d="M31.672 40.9199C32.772 40.2599 34.092 39.9299 35.412 39.8199C36.732 39.7099 38.052 39.7099 39.372 40.0399C40.692 40.3699 41.902 41.0299 42.782 41.9099C42.452 40.2599 41.242 38.8299 39.702 38.0599C38.162 37.2899 36.402 36.9599 34.752 37.0699C33.872 37.0699 33.102 37.2899 32.222 37.6199C30.682 38.2799 29.472 39.5999 28.812 41.0299C28.482 41.6899 28.262 42.4599 28.152 43.1199C28.042 43.5599 27.822 44.6599 28.262 44.9899C28.592 45.3199 28.812 44.2199 29.032 43.8899C29.362 43.3399 29.692 42.6799 30.022 42.2399C30.462 41.7999 31.012 41.2499 31.672 40.9199Z" fill="#FFE7C0"/>
<path d="M29.2521 42.1299C30.2421 40.4799 31.4521 39.9299 32.7721 39.4899C33.3221 39.3799 33.8721 39.2699 34.4221 39.1599C36.1821 38.9399 37.9421 38.9399 39.7021 39.2699C40.8021 39.4899 42.4521 40.4799 43.1121 41.4699C42.6721 40.6999 42.0121 39.0499 41.5721 38.1699C41.4621 37.8399 41.2421 37.5099 41.0221 37.2899C40.8021 36.9599 40.4721 36.8499 40.1421 36.6299C39.4821 36.1899 38.7121 35.8599 37.9421 35.6399C37.1721 35.4199 36.2921 35.5299 35.5221 35.5299C33.4321 35.7499 31.3421 36.2999 29.8021 37.6199C28.7021 38.6099 28.0421 39.9299 27.8221 41.3599C27.6021 42.5699 27.4921 45.3199 28.0421 46.5299C28.2621 46.4199 28.5921 43.3399 29.2521 42.1299Z" fill="#3B82FF"/>
<path opacity="0.34" d="M29.032 38.9397C28.262 40.0397 28.042 41.4697 28.262 42.7897C28.372 41.4697 29.032 40.2597 29.912 39.3797C30.792 38.3897 31.892 37.7297 33.102 37.2897C33.652 37.0697 34.202 36.9597 34.642 36.5197C34.642 36.5197 34.752 36.4097 34.752 36.2997C34.752 36.0797 34.532 36.0797 34.312 35.9697C32.332 35.9697 30.132 37.2897 29.032 38.9397Z" fill="white"/>
<path d="M68.1922 37.29C66.6522 39.49 66.1022 42.3499 65.8822 45.0999C65.6622 48.0699 65.7722 51.15 66.9822 53.7899C68.1922 56.4299 70.9422 58.4099 73.6922 57.9699C75.1222 57.7499 76.4422 56.9799 77.4322 55.8799C78.4222 54.7799 79.3022 53.4599 79.8522 52.1399C81.1722 49.3899 81.9422 46.4199 82.2722 43.4499C82.3822 42.2399 82.3822 40.9199 82.0522 39.7099C81.2822 36.7399 78.6422 34.8699 75.7822 34.7599C74.4622 34.7599 73.1422 34.4299 71.8222 34.7599C70.5022 35.0899 69.0722 36.08 68.1922 37.29Z" fill="#3B82FF"/>
<path d="M68.1923 38.9399C66.6523 41.0299 66.2123 43.8899 65.9923 46.5299C65.7723 49.3898 65.8823 52.3599 67.0923 54.8899C68.3023 57.4199 70.8323 59.3998 73.5823 58.9598C75.0123 58.7398 76.2223 57.9698 77.2123 56.9798C78.2023 55.9898 78.9723 54.6698 79.6323 53.3498C80.8423 50.7099 81.7223 47.8498 81.9423 44.8799C82.0523 43.6699 82.0523 42.3499 81.8323 41.2499C81.1723 38.3899 78.5323 36.5199 75.7823 36.4099C74.4623 36.4099 73.2523 36.0799 71.9323 36.4099C70.2823 36.7399 69.0723 37.6199 68.1923 38.9399Z" fill="#FFF3E9"/>
<path d="M81.8322 44.7701C81.9422 43.5601 81.9422 42.2401 81.7222 41.1401C81.5022 40.0401 80.9522 39.1601 80.2922 38.3901C80.4022 38.6101 80.5122 38.9401 80.5122 39.1601C80.8422 40.3701 80.7322 41.5801 80.6222 42.7901C80.4022 45.7601 79.5222 48.6201 78.3122 51.2601C77.6522 52.5801 76.8822 53.9001 75.8922 54.8901C74.9022 55.8801 73.5822 56.7601 72.2622 56.8701C70.2822 57.2001 68.3022 56.1001 66.9822 54.5601C66.9822 54.6701 66.9822 54.6701 67.0922 54.7801C68.3022 57.3101 70.8322 59.2901 73.5822 58.8501C75.0122 58.6301 76.2222 57.8601 77.2122 56.8701C78.2022 55.8801 78.9722 54.5601 79.6322 53.2401C80.7322 50.6001 81.5022 47.7401 81.8322 44.7701Z" fill="#FFE7C0"/>
<path d="M69.9521 44.7701C69.2921 45.7601 69.0721 46.8601 68.9621 48.0701C68.7421 49.6101 68.8521 51.2601 69.5121 52.5801C70.1721 53.9001 71.7121 54.7801 73.1421 54.3401C73.5821 54.2301 74.0221 53.9001 74.3521 53.6801C76.1121 52.2501 77.1021 49.8301 76.9921 47.4101C76.8821 46.3101 76.5521 45.1001 75.7821 44.3301C74.1321 42.5701 71.1621 42.7901 69.9521 44.7701Z" fill="#413E49"/>
<path d="M70.3921 46.97C70.2821 47.3 70.2821 47.63 70.5021 47.85C70.6121 47.96 70.8321 48.07 70.9421 48.07C71.4921 48.18 72.0421 47.85 72.5921 47.41C73.1421 46.86 73.6921 46.2 73.9121 45.54C74.2421 44.33 73.3621 43.45 72.2621 43.89C71.1621 44.33 70.6121 45.98 70.3921 46.97Z" fill="white"/>
<path opacity="0.3" d="M66.9821 45.2098C66.4321 46.7498 66.4321 48.3998 66.8721 49.9398C66.8721 50.1598 67.0921 50.3798 67.2021 50.2698C67.3121 50.2698 67.3121 50.1598 67.3121 50.0498C67.6421 47.1898 67.9721 44.1098 69.6221 41.6898C69.7321 41.4698 69.9521 41.2498 69.8421 41.0298C68.9621 41.1398 68.5221 42.1298 68.0821 42.7898C67.6421 43.4498 67.2021 44.3298 66.9821 45.2098Z" fill="white"/>
<path d="M71.4923 39.4899C72.8123 39.2699 74.1323 39.4899 75.3423 39.9299C76.5523 40.2599 77.8723 40.8099 78.8623 41.5799C79.9623 42.3499 80.8423 43.3399 81.3923 44.5499C81.6123 42.8999 81.0623 41.1399 79.9623 39.8199C78.8623 38.4999 77.3223 37.6199 75.6723 37.0699C74.9023 36.8499 74.0223 36.6299 73.1423 36.6299C71.4923 36.6299 69.8423 37.3999 68.7423 38.6099C68.1923 39.1599 67.7523 39.7099 67.4223 40.3699C67.2023 40.6999 66.5423 41.6899 66.7623 42.1299C66.9823 42.5699 67.6423 41.5799 67.8623 41.3599C68.3023 40.9199 68.8523 40.4799 69.4023 40.1499C70.0623 39.8199 70.7223 39.5999 71.4923 39.4899Z" fill="#FFE7C0"/>
<path d="M68.8522 39.71C70.3922 38.5 71.7122 38.39 73.0322 38.5C73.5822 38.5 74.1322 38.61 74.6822 38.83C76.4422 39.27 78.0922 39.93 79.6322 40.81C80.6222 41.36 81.7222 42.9 82.0522 44.11C81.9422 43.23 81.9422 41.36 81.8322 40.48C81.8322 40.15 81.7222 39.82 81.6122 39.49C81.5022 39.16 81.2822 38.83 80.9522 38.61C80.4022 37.95 79.9622 37.4 79.3022 36.96C78.6422 36.52 77.8722 36.19 77.1022 35.97C75.1222 35.42 72.9222 35.09 70.9422 35.86C69.6222 36.41 68.5222 37.4 67.7522 38.5C67.0922 39.49 65.9922 42.13 65.9922 43.34C66.3222 43.34 67.7522 40.59 68.8522 39.71Z" fill="#3B82FF"/>
<path opacity="0.34" d="M69.7322 36.7402C68.6322 37.5102 67.8622 38.7202 67.5322 40.0402C68.0822 38.9402 69.1822 38.0602 70.2822 37.5102C71.4922 36.9602 72.7022 36.7402 74.0222 36.7402C74.5722 36.7402 75.2322 36.8502 75.6722 36.5202C75.7822 36.5202 75.7822 36.4102 75.7822 36.4102C75.8922 36.3002 75.6722 36.0802 75.5622 35.9702C73.9122 35.0902 71.3822 35.5302 69.7322 36.7402Z" fill="white"/>
</svg>
