<svg width="13" height="12" viewBox="0 0 13 12" fill="none" xmlns="http://www.w3.org/2000/svg">
<path d="M1.49717 4.99994H9.08717L5.78717 1.70994C5.59887 1.52164 5.49308 1.26624 5.49308 0.999941C5.49308 0.73364 5.59887 0.478245 5.78717 0.289941C5.97548 0.101638 6.23087 -0.00415039 6.49717 -0.00415039C6.76348 -0.00415039 7.01887 0.101638 7.20717 0.289941L12.2072 5.28994C12.2982 5.38505 12.3696 5.49719 12.4172 5.61994C12.5172 5.8634 12.5172 6.13648 12.4172 6.37994C12.3696 6.50269 12.2982 6.61484 12.2072 6.70994L7.20717 11.7099C7.11421 11.8037 7.00361 11.8781 6.88175 11.9288C6.75989 11.9796 6.62919 12.0057 6.49717 12.0057C6.36516 12.0057 6.23446 11.9796 6.1126 11.9288C5.99074 11.8781 5.88014 11.8037 5.78717 11.7099C5.69345 11.617 5.61905 11.5064 5.56828 11.3845C5.51751 11.2627 5.49138 11.132 5.49138 10.9999C5.49138 10.8679 5.51751 10.7372 5.56828 10.6154C5.61905 10.4935 5.69345 10.3829 5.78717 10.2899L9.08717 6.99994H1.49717C1.23196 6.99994 0.977603 6.89458 0.790067 6.70705C0.60253 6.51951 0.497174 6.26516 0.497174 5.99994C0.497174 5.73472 0.60253 5.48037 0.790067 5.29283C0.977603 5.1053 1.23196 4.99994 1.49717 4.99994Z" fill="white"/>
</svg>
