<svg width="13" height="12" viewBox="0 0 13 12" fill="none" xmlns="http://www.w3.org/2000/svg">
<path fill-rule="evenodd" clip-rule="evenodd" d="M8.65713 6L12.6536 2.00355C12.7634 1.89468 12.8505 1.76515 12.9099 1.62244C12.9694 1.47972 13 1.32665 13 1.17205C13 1.01745 12.9694 0.864376 12.9099 0.721664C12.8505 0.578952 12.7634 0.449424 12.6536 0.340553C12.4342 0.122431 12.1373 -3.77082e-08 11.8279 -5.12323e-08C11.5185 -6.47563e-08 11.2217 0.122431 11.0023 0.340553L6.85653 4.48633L2.71076 0.340553C2.49133 0.12243 2.19451 -4.72323e-07 1.88511 -4.85847e-07C1.57572 -4.99371e-07 1.2789 0.12243 1.05947 0.340553C0.950931 0.449983 0.86506 0.579762 0.806779 0.722448C0.748499 0.865135 0.718958 1.01792 0.719848 1.17205C0.718958 1.32618 0.748499 1.47896 0.806779 1.62165C0.86506 1.76434 0.950931 1.89412 1.05947 2.00355L5.05593 6L1.05947 9.99645C0.950932 10.1059 0.865059 10.2357 0.806779 10.3783C0.748499 10.521 0.718958 10.6738 0.719849 10.8279C0.718958 10.9821 0.748499 11.1349 0.806779 11.2776C0.86506 11.4202 0.950932 11.55 1.05947 11.6594C1.2789 11.8776 1.57572 12 1.88511 12C2.19451 12 2.49133 11.8776 2.71076 11.6594L6.85653 7.51367L11.0023 11.6594C11.2217 11.8776 11.5185 12 11.8279 12C12.1373 12 12.4342 11.8776 12.6536 11.6594C12.7634 11.5506 12.8505 11.421 12.9099 11.2783C12.9694 11.1356 13 10.9826 13 10.8279C13 10.6733 12.9694 10.5203 12.9099 10.3776C12.8505 10.2349 12.7634 10.1053 12.6536 9.99645L8.65713 6Z" fill="#2B2929"/>
</svg>
