<svg width="28" height="28" viewBox="0 0 28 28" fill="none" xmlns="http://www.w3.org/2000/svg">
<path d="M26.2023 1.81339C25.6929 1.29414 25.047 0.929677 24.3391 0.762153C23.6313 0.594629 22.8905 0.630882 22.2023 0.866721L3.33568 7.17339C2.57476 7.42246 1.90993 7.90158 1.43295 8.54464C0.955968 9.18769 0.690366 9.96294 0.672806 10.7634C0.655245 11.5638 0.886594 12.35 1.33491 13.0133C1.78324 13.6767 2.42642 14.1845 3.17568 14.4667L10.1623 17.1334C10.3214 17.1942 10.4663 17.2872 10.5879 17.4065C10.7095 17.5258 10.8052 17.6688 10.869 17.8267L13.5357 24.8267C13.8071 25.5654 14.2997 26.2024 14.9463 26.6509C15.5929 27.0995 16.3621 27.3378 17.149 27.3334H17.2423C18.0437 27.3188 18.8204 27.0538 19.4636 26.5756C20.1068 26.0974 20.5842 25.4299 20.829 24.6667L27.1357 5.77339C27.365 5.09197 27.3992 4.35998 27.2342 3.66017C27.0693 2.96036 26.7119 2.32066 26.2023 1.81339ZM24.669 4.93339L18.2957 23.8401C18.2217 24.0793 18.073 24.2887 17.8715 24.4374C17.67 24.5862 17.4262 24.6665 17.1757 24.6667C16.9267 24.6708 16.6823 24.599 16.4751 24.4609C16.2679 24.3227 16.1077 24.1248 16.0157 23.8934L13.349 16.8934C13.1557 16.3848 12.8575 15.9225 12.4739 15.5366C12.0903 15.1507 11.6298 14.8497 11.1223 14.6534L4.12234 11.9867C3.8862 11.9002 3.68321 11.7417 3.54206 11.5335C3.4009 11.3254 3.32871 11.0781 3.33568 10.8267C3.33588 10.5762 3.41623 10.3324 3.56498 10.1309C3.71372 9.92936 3.92305 9.78072 4.16234 9.70672L23.069 3.40005C23.2861 3.31158 23.5241 3.28788 23.7544 3.33182C23.9846 3.37576 24.1972 3.48545 24.3665 3.64764C24.5357 3.80982 24.6543 4.01756 24.708 4.24574C24.7617 4.47391 24.7482 4.71275 24.669 4.93339Z" fill="#FFBC57"/>
</svg>
