<svg width="12" height="12" viewBox="0 0 12 12" fill="none" xmlns="http://www.w3.org/2000/svg">
<path d="M10.666 5.33335H6.66602V1.33335C6.66602 1.15654 6.59578 0.986974 6.47075 0.861949C6.34573 0.736925 6.17616 0.666687 5.99935 0.666687C5.82254 0.666687 5.65297 0.736925 5.52794 0.861949C5.40292 0.986974 5.33268 1.15654 5.33268 1.33335V5.33335H1.33268C1.15587 5.33335 0.986302 5.40359 0.861278 5.52862C0.736254 5.65364 0.666016 5.82321 0.666016 6.00002C0.666016 6.17683 0.736254 6.3464 0.861278 6.47142C0.986302 6.59645 1.15587 6.66669 1.33268 6.66669H5.33268V10.6667C5.33268 10.8435 5.40292 11.0131 5.52794 11.1381C5.65297 11.2631 5.82254 11.3334 5.99935 11.3334C6.17616 11.3334 6.34573 11.2631 6.47075 11.1381C6.59578 11.0131 6.66602 10.8435 6.66602 10.6667V6.66669H10.666C10.8428 6.66669 11.0124 6.59645 11.1374 6.47142C11.2624 6.3464 11.3327 6.17683 11.3327 6.00002C11.3327 5.82321 11.2624 5.65364 11.1374 5.52862C11.0124 5.40359 10.8428 5.33335 10.666 5.33335Z" fill="#535353"/>
</svg>
