<svg width="137" height="107" viewBox="0 0 137 107" fill="none" xmlns="http://www.w3.org/2000/svg">
<path d="M26.1701 86.0169C31.9541 88.8499 40.0711 92.9679 50.5921 98.8949C50.5921 98.8949 1.50912 86.2309 0.652118 81.2319C0.104118 77.9469 4.15112 73.8769 7.03212 71.4719C7.72212 72.4249 8.62612 73.3769 9.76912 74.4959C17.1001 81.6129 24.7661 85.3269 26.1701 86.0169ZM133.811 59.2859C127.098 83.7559 123.742 95.9919 113.649 102.062C105.532 106.918 97.2481 106.632 84.8461 106.18C73.1019 105.74 61.5219 103.276 50.6161 98.8959C59.9224 99.7337 69.2489 100.329 78.5861 100.681C91.6301 101.157 100.438 101.014 109.531 95.9439C109.864 95.7539 110.15 95.6109 110.531 95.3729C118.124 90.5409 121.29 79.8049 127.622 58.3099C132.454 41.9099 132.74 35.1489 132.002 32.0779C132.692 32.3879 133.263 32.7449 133.835 33.2439C138.238 37.1239 137.524 45.6699 133.811 59.2859Z" fill="#007B66"/>
<path d="M49.7599 98.3251C50.0449 98.5151 50.3069 98.7051 50.5689 98.8721C40.0479 92.9451 31.9539 88.8271 26.1459 85.9941C24.7659 85.3281 17.1009 81.5901 9.72089 74.4491C8.57889 73.3311 7.67389 72.3791 6.98389 71.4261C6.29389 70.4741 5.81789 69.5461 5.48389 68.4511C4.36589 64.7371 5.60389 60.9761 7.17389 57.9531C9.03089 63.3091 14.7919 68.8081 24.9079 78.3051C34.6679 87.4461 43.5229 94.0401 49.7599 98.3251ZM127.598 58.2631C121.267 79.7581 118.101 90.4931 110.507 95.3251C110.126 95.5631 109.841 95.7301 109.507 95.8971C100.391 100.967 91.6069 101.133 78.5619 100.634C69.2247 100.281 59.8982 99.6855 50.5919 98.8481C51.7589 98.729 52.9019 98.6101 54.0439 98.4911C70.3979 96.8011 83.9659 95.2061 94.2019 94.0161C96.7719 93.73 101.652 93.1591 106.223 89.7311C111.555 85.7321 113.53 79.9961 114.483 77.1151C125.218 44.4561 127.741 32.6731 127.646 28.0081C128.908 28.2701 129.86 28.7691 130.693 29.6031C131.121 30.0311 131.645 30.6501 131.978 32.0071C132.716 35.1011 132.431 41.8621 127.598 58.2631Z" fill="#FF5252"/>
<path d="M127.646 28.055C127.622 25.913 127.027 25.294 126.456 24.818C124.242 23.08 122.052 23.938 102.819 27.912C98.0579 28.888 93.7489 29.745 89.9889 30.483C87.7269 30.936 85.6789 31.316 83.8469 31.673C83.7519 31.697 83.6569 31.721 83.5609 31.721C82.4659 31.935 81.4429 32.126 80.5379 32.292L80.0379 31.435C71.3499 16.986 66.4939 10.821 66.4939 10.821C61.5669 4.561 59.0439 1.419 56.1869 0.895003C50.3069 -0.223997 44.9509 5.655 35.3349 16.535C7.88894 47.55 6.07994 50.525 6.62694 55.43C6.72194 56.287 6.91294 57.144 7.22194 57.977C9.07894 63.333 14.8389 68.831 24.9559 78.329C32.7136 85.6107 41.0047 92.3023 49.7599 98.348C50.0449 98.539 50.3069 98.729 50.5699 98.896C51.7359 98.777 52.8779 98.658 54.0199 98.539C70.3739 96.849 83.9419 95.254 94.1779 94.063C96.7479 93.778 101.628 93.207 106.199 89.779C111.531 85.78 113.507 80.043 114.459 77.163C125.218 44.503 127.718 32.721 127.646 28.055Z" fill="#F9F3EF"/>
<path d="M83.561 31.72C78.61 40.933 73.658 50.145 68.731 59.381C68.731 59.381 60.685 82.161 58.853 86.351C57.733 88.898 55.568 94.516 54.044 98.538L50.593 98.896C50.331 98.705 50.069 98.538 49.783 98.348C52.1431 94.2411 54.3818 90.0657 56.496 85.827C62.78 73.235 64.256 65.784 68.683 54.667C71.8922 46.6626 75.6875 38.9059 80.038 31.46L80.538 32.317C81.466 32.127 82.466 31.937 83.561 31.722V31.72Z" fill="#003163"/>
<path d="M49.7601 10.082C49.7601 10.082 50.5451 14.2 55.2101 17.938C59.8761 21.675 71.7781 35.933 71.7781 35.933L74.1111 31.458L52.8781 6.25L49.7601 10.082ZM44.8561 15.32C44.8561 15.32 56.0671 28.317 60.2331 31.46C64.3991 34.602 69.8731 40.076 69.8731 40.076L68.3031 41.909C68.3031 41.909 55.2581 33.054 52.9251 29.912C50.5701 26.794 42.5001 17.915 42.5001 17.915L44.8561 15.32ZM38.3101 22.533C38.3101 22.533 52.5921 40.243 56.2101 41.91C59.8281 43.576 64.6841 49.836 64.6841 49.836L63.3041 52.836C63.3041 52.836 57.1141 46.813 49.8071 39.41C42.4991 32.007 36.0241 23.961 36.0241 23.961L38.3101 22.533ZM31.2871 32.055C31.2871 32.055 42.9751 45.695 46.8791 47.646C50.7831 49.598 60.5191 57.977 60.5191 57.977L58.7571 62.643L28.9311 34.983L31.2871 32.055ZM22.1231 40.242C22.1231 40.242 27.9791 45.693 31.8591 48.622C38.9761 53.953 42.0471 56.143 46.6651 60.69C47.3311 61.332 48.9501 62.975 51.3311 65.165C53.0094 66.7123 54.7236 68.2204 56.4721 69.688C55.7341 71.568 54.9961 73.425 54.2581 75.305C48.1611 70.8053 42.2454 66.0648 36.5251 61.095C30.5188 55.8839 24.7369 50.4196 19.1951 44.717C20.1711 43.217 21.1471 41.718 22.1231 40.242ZM77.6341 55.668C77.6341 55.668 72.8731 68.998 71.3021 72.308C69.7071 75.64 66.6601 85.161 66.6601 85.161C66.6601 85.161 81.7521 80.71 85.8701 81.02C89.9881 81.329 105.223 78.425 105.223 78.425L108.079 67.07L112.197 55.645H77.6341V55.668ZM103.913 67.189L101.7 75.997C101.7 75.997 89.8691 78.258 86.6801 78.02C83.4901 77.782 71.7541 81.234 71.7541 81.234C71.7541 81.234 74.1111 73.831 75.3491 71.26C76.5861 68.665 80.2761 58.334 80.2761 58.334H107.127L103.913 67.189ZM80.1331 47.336C80.1331 47.336 95.2481 47.55 99.2951 47.336C103.342 47.122 118.457 46.503 118.457 46.503L119.814 41.909C119.814 41.909 111.221 41.266 107.15 41.909C103.08 42.551 82.0371 43.432 82.0371 43.432L80.1331 47.336ZM84.3221 37.695C84.3221 37.695 93.8681 37.148 96.7001 36.505C99.5331 35.862 121.837 35.339 121.837 35.339L122.48 32.887C122.48 32.887 121.052 33.791 118.1 33.791C115.148 33.791 107.793 33.672 105.341 33.672C102.889 33.672 84.3221 35.934 84.3221 35.934V37.695Z" fill="#007B66"/>
<path d="M34.9059 67.879C35.5009 70.117 33.0009 72.783 30.4779 72.949C29.3589 73.021 27.8589 72.616 26.9079 71.354C26.8119 71.235 25.6699 69.664 26.2649 67.855C26.9069 65.975 29.0019 65.285 30.3829 65.237C32.1679 65.213 34.4289 66.117 34.9059 67.879ZM86.2029 88.494C86.0359 90.255 84.3459 91.541 82.6559 91.707C81.0139 91.85 78.9659 90.946 78.5859 89.208C78.2759 87.827 79.1329 86.447 80.0859 85.804C80.7519 85.352 81.4419 85.28 82.1329 85.185C83.0609 85.09 84.0129 84.971 84.8459 85.518C85.8459 86.137 86.3219 87.399 86.2029 88.494Z" fill="#003163"/>
</svg>
