<svg width="109" height="139" viewBox="0 0 109 139" fill="none" xmlns="http://www.w3.org/2000/svg">
<path d="M60.29 116.777C66.383 115.706 72.739 113.54 79.094 109.827C100.47 97.2579 108.373 75.1439 108.373 62.5519C108.373 46.7939 108.373 42.2949 97.114 24.2749C93.877 19.0859 87.783 11.2069 77.119 5.13691C73.8381 3.25884 70.3669 1.73462 66.764 0.589907C66.3688 0.460089 65.9514 0.411647 65.5369 0.447501C65.1225 0.483355 64.7196 0.602762 64.3526 0.798525C63.9855 0.994288 63.6619 1.26235 63.4013 1.58655C63.1406 1.91075 62.9483 2.28438 62.836 2.68491L62.813 2.80491C62.408 4.25591 63.098 5.77991 64.407 6.42191C63.979 7.32691 63.431 8.49291 62.789 9.84991C63.979 10.2309 64.907 10.5639 65.55 10.7779C66.36 11.0639 67.383 11.4449 68.525 11.8979C68.882 10.6359 69.215 9.37391 69.573 8.11291C75.3124 10.267 80.6178 13.4354 85.236 17.4669C87.711 19.6339 95.091 26.5129 99.352 37.7959C105.303 53.6019 103.493 73.8109 91.663 89.1649C80.808 103.233 65.812 107.66 57.433 109.136C55.6505 109.449 53.8556 109.688 52.053 109.85C50.244 110.017 48.483 110.112 46.769 110.136C41.8119 110.175 36.8696 109.591 32.058 108.398C32.962 106.518 33.867 104.637 34.772 102.733C32.5767 102.164 30.4342 101.407 28.368 100.472C27.368 102.685 26.416 104.685 25.559 106.47C24.7774 106.308 23.9633 106.455 23.2884 106.882C22.6135 107.308 22.1304 107.979 21.941 108.755L21.917 108.874C21.56 110.35 22.298 111.874 23.703 112.469C27.797 114.207 36.604 117.325 47.53 117.73C48.03 124.299 48.054 131.084 46.102 131.536C42.246 132.417 29.892 129.203 26.821 134.464C26.226 135.487 26.083 136.273 26.345 136.868C27.487 139.701 35.533 139.01 44.198 138.558C67.811 137.368 79.261 139.248 80.285 135.321C80.546 134.273 79.951 133.297 79.808 133.083C76.904 128.394 63.812 134.607 60.384 129.917C59.599 128.846 59.861 127.941 60.075 123.633C60.218 121.062 60.266 118.801 60.29 116.777Z" fill="#FF5252"/>
<path d="M97.067 58.22C95.734 73.955 86.736 83.905 83.57 87.309C72.049 99.687 58.124 102.376 54.291 103.067C50.531 103.733 44.198 104.804 36.271 103.067C35.771 102.948 35.248 102.829 34.772 102.71C32.5769 102.141 30.4347 101.384 28.369 100.448C19.371 96.402 13.849 90.046 11.516 87.308C10.4318 86.037 9.41475 84.7102 8.46903 83.333C17.514 75.454 7.37403 72.931 7.08903 66.218C6.77903 59.172 8.87303 50.341 11.301 41.7C12.587 37.106 10.04 33.083 7.35003 30.298C9.44781 26.7769 11.9656 23.5238 14.848 20.61C22.18 24.133 31.297 25.918 39.938 20.491C46.055 16.659 48.84 11.969 49.816 7.375C51.696 7.494 53.482 7.685 55.124 7.946C58.243 8.446 60.861 9.16 62.814 9.779C63.146 9.874 63.432 9.969 63.718 10.065C63.67 11.375 63.408 12.874 62.67 14.349C60.861 18.087 57.695 18.539 57.79 20.467C57.933 23.371 65.193 25.227 68.74 25.99C71.382 26.561 74.144 26.442 78.024 25.894C81.928 25.347 84.189 24.324 85.522 23.371C86.403 24.323 87.26 25.371 88.117 26.466C89.5253 28.3139 90.783 30.2719 91.878 32.321C87.902 34.226 83.57 35.511 79.618 35.059C67.908 33.726 64.979 30.727 62.051 35.154C59.123 39.582 61.837 39.082 65.122 43.962C68.383 48.842 87.617 57.506 70.692 54.388C53.768 51.269 54.982 45.247 46.079 49.222C37.176 53.222 35.724 46.77 32.796 54.388C29.916 61.886 37.629 73.812 42.056 73.264C43.461 73.098 44.198 71.764 47.079 71.384C49.292 71.098 50.245 71.717 50.53 71.907C50.768 72.074 51.435 72.597 51.982 74.169C52.72 76.287 52.506 78.168 52.387 79.12C51.554 85.952 50.84 86.237 51.363 87.594C52.387 90.284 56.41 92.117 59.623 91.522C63.146 90.879 63.027 87.785 67.264 85.547C72.62 82.691 76.358 85.785 78.619 83.286C81.428 80.144 75.881 75.097 78.643 68.694C80.785 63.719 86.784 61.005 88.664 60.244C89.95 59.72 91.092 59.648 92.806 59.172C93.639 58.958 95.186 58.625 97.067 58.22Z" fill="#3700ED"/>
<path d="M49.816 7.3999C48.84 11.9939 46.055 16.6829 39.937 20.5159C31.297 25.9429 22.179 24.1579 14.847 20.6349C18.87 16.6119 23.75 13.1599 29.535 10.7559C36.843 7.7089 43.866 7.0659 49.816 7.3999ZM85.497 23.4179C84.188 24.3699 81.903 25.3699 77.999 25.9409C74.119 26.4879 71.358 26.6069 68.716 26.0359C65.169 25.2739 57.909 23.4179 57.766 20.5139C57.671 18.5859 60.836 18.1339 62.646 14.3959C63.36 12.9199 63.646 11.4199 63.693 10.1109C64.455 10.3729 65.073 10.5869 65.55 10.7539C66.359 11.0399 67.383 11.4209 68.525 11.8729C73 13.6819 79.618 16.9899 85.497 23.4179ZM97.09 58.0279V58.2189C95.185 58.6229 93.638 58.9559 92.757 59.1949C91.043 59.6469 89.925 59.7419 88.615 60.2649C86.735 61.0039 80.736 63.7169 78.594 68.7159C75.833 75.1189 81.379 80.1659 78.57 83.3079C76.309 85.8309 72.572 82.7369 67.216 85.5689C62.979 87.8069 63.098 90.9009 59.575 91.5439C56.385 92.1389 52.338 90.3059 51.315 87.6169C50.815 86.2829 51.529 85.9739 52.338 79.1419C52.458 78.1899 52.648 76.3099 51.934 74.1919C51.386 72.6199 50.744 72.0959 50.481 71.9299C50.196 71.7149 49.244 71.1199 47.03 71.4059C44.173 71.7859 43.412 73.1199 42.007 73.2859C37.556 73.8339 29.867 61.9079 32.747 54.4099C35.675 46.7929 37.127 53.2439 46.03 49.2449C54.933 45.2689 53.719 51.2919 70.643 54.4099C87.568 57.5279 68.334 48.8639 65.073 43.9839C61.813 39.1039 59.075 39.6039 62.003 35.1759C64.93 30.7489 67.858 33.7479 79.57 35.0809C83.521 35.5329 87.854 34.2479 91.829 32.3439C97.875 43.6509 97.375 54.6239 97.09 58.0279ZM8.49202 83.3339C4.92202 78.1439 3.20702 73.5259 2.54102 71.5509C2.01702 70.0029 -0.767985 61.5289 0.279015 51.2929C0.969015 44.6279 3.27902 37.1779 7.37301 30.3229C10.063 33.0829 12.61 37.1299 11.324 41.7239C8.89602 50.3649 6.80202 59.1959 7.11102 66.2419C7.39702 72.9319 17.513 75.4539 8.49102 83.3339H8.49202ZM72.192 87.4269C71.644 87.3559 69.931 87.2839 66.622 89.9979C64.812 91.4739 61.885 94.3059 62.408 95.1399C62.623 95.4729 63.337 95.4969 64.694 95.1159C69.097 93.8779 69.978 91.6639 72.192 90.7119C74.239 89.8079 74.358 88.9269 74.287 88.5219C74.144 87.8559 72.954 87.5219 72.192 87.4269Z" fill="#4CCC4C"/>
</svg>
