<svg width="157" height="53" viewBox="0 0 157 53" fill="none" xmlns="http://www.w3.org/2000/svg">
<rect x="0.962447" y="0.652876" width="155.385" height="50.9243" rx="8.48739" fill="#0C0D10"/>
<rect x="0.962447" y="0.652876" width="155.385" height="50.9243" rx="8.48739" stroke="#A6A6A6" stroke-width="1.30575"/>
<path d="M106.762 25.0717V28.0632H104.887V30.025H106.762V36.6909C106.762 38.967 107.792 39.8775 110.382 39.8775C110.838 39.8775 111.271 39.8233 111.651 39.7582V37.8181C111.325 37.8506 111.119 37.8723 110.762 37.8723C109.602 37.8723 109.093 37.3304 109.093 36.0947V30.025H111.651V28.0632H109.093V25.0717H106.762Z" fill="white"/>
<path d="M118.25 40.0401C121.696 40.0401 123.81 37.7314 123.81 33.9053C123.81 30.1009 121.686 27.7814 118.25 27.7814C114.803 27.7814 112.679 30.1009 112.679 33.9053C112.679 37.7314 114.792 40.0401 118.25 40.0401ZM118.25 37.9698C116.223 37.9698 115.085 36.4849 115.085 33.9053C115.085 31.3474 116.223 29.8516 118.25 29.8516C120.266 29.8516 121.415 31.3474 121.415 33.9053C121.415 36.4741 120.266 37.9698 118.25 37.9698Z" fill="white"/>
<path d="M125.618 39.8124H127.949V32.8431C127.949 31.1848 129.195 30.0684 130.962 30.0684C131.374 30.0684 132.067 30.1443 132.262 30.2093V27.9115C132.013 27.8464 131.569 27.8139 131.222 27.8139C129.683 27.8139 128.371 28.6593 128.035 29.8191H127.862V28.009H125.618V39.8124Z" fill="white"/>
<path d="M138.049 29.7649C139.772 29.7649 140.899 30.968 140.953 32.8214H134.992C135.122 30.9788 136.325 29.7649 138.049 29.7649ZM140.943 36.6258C140.509 37.5471 139.544 38.0566 138.135 38.0566C136.271 38.0566 135.068 36.7451 134.992 34.6749V34.5448H143.327V33.7319C143.327 30.025 141.344 27.7814 138.059 27.7814C134.732 27.7814 132.618 30.1768 132.618 33.9487C132.618 37.7206 134.689 40.0401 138.07 40.0401C140.769 40.0401 142.655 38.7394 143.186 36.6258H140.943Z" fill="white"/>
<path d="M91.4803 35.4536C91.66 38.352 94.0754 40.2056 97.6703 40.2056C101.512 40.2056 103.916 38.2621 103.916 35.1615C103.916 32.7237 102.546 31.3757 99.2206 30.6005L97.4343 30.1624C95.3223 29.6681 94.4686 29.0053 94.4686 27.8482C94.4686 26.3877 95.7942 25.4328 97.7826 25.4328C99.6699 25.4328 100.973 26.3653 101.209 27.8594H103.658C103.512 25.1295 101.108 23.2085 97.8163 23.2085C94.2776 23.2085 91.9184 25.1295 91.9184 28.0167C91.9184 30.3983 93.2553 31.8138 96.1874 32.4991L98.2769 33.0046C100.423 33.5101 101.366 34.2516 101.366 35.4873C101.366 36.9253 99.8834 37.9701 97.8612 37.9701C95.6931 37.9701 94.1877 36.9927 93.9743 35.4536H91.4803Z" fill="white"/>
<path d="M67.3404 27.8139C65.7363 27.8139 64.3489 28.616 63.6336 29.96H63.4601V28.009H61.2165V43.7361H63.5468V38.024H63.7311C64.3489 39.2705 65.6821 40.0075 67.3621 40.0075C70.3428 40.0075 72.2395 37.6555 72.2395 33.9053C72.2395 30.1551 70.3428 27.8139 67.3404 27.8139ZM66.6793 37.9157C64.7283 37.9157 63.5035 36.3766 63.5035 33.9162C63.5035 31.4449 64.7283 29.9058 66.6901 29.9058C68.6627 29.9058 69.8442 31.4124 69.8442 33.9053C69.8442 36.4091 68.6627 37.9157 66.6793 37.9157Z" fill="white"/>
<path d="M80.3938 27.8139C78.7896 27.8139 77.4023 28.616 76.6869 29.96H76.5135V28.009H74.2699V43.7361H76.6002V38.024H76.7844C77.4023 39.2705 78.7354 40.0075 80.4154 40.0075C83.3961 40.0075 85.2929 37.6555 85.2929 33.9053C85.2929 30.1551 83.3961 27.8139 80.3938 27.8139ZM79.7326 37.9157C77.7816 37.9157 76.5568 36.3766 76.5568 33.9162C76.5568 31.4449 77.7816 29.9058 79.7434 29.9058C81.7161 29.9058 82.8975 31.4124 82.8975 33.9053C82.8975 36.4091 81.7161 37.9157 79.7326 37.9157Z" fill="white"/>
<path d="M57.0355 39.8124H59.7092L53.8563 23.6017H51.1488L45.2959 39.8124H47.8797L49.3739 35.5098H55.5526L57.0355 39.8124ZM52.3734 26.545H52.5643L54.9123 33.3978H50.0142L52.3734 26.545Z" fill="white"/>
<path d="M46.8611 11.3743V19.1944H49.6846C52.0149 19.1944 53.3643 17.7583 53.3643 15.26C53.3643 12.7996 52.0041 11.3743 49.6846 11.3743H46.8611ZM48.075 12.4798H49.5491C51.1695 12.4798 52.1287 13.5095 52.1287 15.2762C52.1287 17.07 51.1858 18.0889 49.5491 18.0889H48.075V12.4798Z" fill="white"/>
<path d="M57.4972 19.3083C59.2205 19.3083 60.2773 18.1539 60.2773 16.2409C60.2773 14.3387 59.2151 13.1789 57.4972 13.1789C55.7738 13.1789 54.7116 14.3387 54.7116 16.2409C54.7116 18.1539 55.7684 19.3083 57.4972 19.3083ZM57.4972 18.2732C56.4837 18.2732 55.9147 17.5307 55.9147 16.2409C55.9147 14.9619 56.4837 14.214 57.4972 14.214C58.5052 14.214 59.0796 14.9619 59.0796 16.2409C59.0796 17.5253 58.5052 18.2732 57.4972 18.2732Z" fill="white"/>
<path d="M69.2767 13.2927H68.1116L67.0602 17.7962H66.9681L65.7541 13.2927H64.6377L63.4238 17.7962H63.3371L62.2803 13.2927H61.0989L62.7247 19.1944H63.9224L65.1363 14.8481H65.2285L66.4478 19.1944H67.6563L69.2767 13.2927Z" fill="white"/>
<path d="M70.6186 19.1944H71.7837V15.7423C71.7837 14.821 72.3311 14.2466 73.1928 14.2466C74.0545 14.2466 74.4663 14.718 74.4663 15.6664V19.1944H75.6315V15.3738C75.6315 13.9702 74.9053 13.1789 73.5884 13.1789C72.6996 13.1789 72.1143 13.5745 71.8271 14.2303H71.7404V13.2927H70.6186V19.1944Z" fill="white"/>
<path d="M77.4665 19.1944H78.6317V10.9895H77.4665V19.1944Z" fill="white"/>
<path d="M83.0138 19.3083C84.7371 19.3083 85.7939 18.1539 85.7939 16.2409C85.7939 14.3387 84.7317 13.1789 83.0138 13.1789C81.2904 13.1789 80.2282 14.3387 80.2282 16.2409C80.2282 18.1539 81.285 19.3083 83.0138 19.3083ZM83.0138 18.2732C82.0004 18.2732 81.4313 17.5307 81.4313 16.2409C81.4313 14.9619 82.0004 14.214 83.0138 14.214C84.0218 14.214 84.5962 14.9619 84.5962 16.2409C84.5962 17.5253 84.0218 18.2732 83.0138 18.2732Z" fill="white"/>
<path d="M89.2656 18.3111C88.6315 18.3111 88.1709 18.0022 88.1709 17.4711C88.1709 16.9508 88.5394 16.6744 89.3523 16.6202L90.7938 16.5281V17.0213C90.7938 17.7529 90.1435 18.3111 89.2656 18.3111ZM88.9675 19.292C89.7425 19.292 90.3874 18.956 90.7397 18.3653H90.8318V19.1944H91.9536V15.1624C91.9536 13.916 91.119 13.1789 89.6395 13.1789C88.3009 13.1789 87.3471 13.8293 87.2279 14.8427H88.3551C88.4852 14.4254 88.935 14.1869 89.5853 14.1869C90.382 14.1869 90.7938 14.5392 90.7938 15.1624V15.6718L89.1951 15.764C87.7915 15.8507 87.0003 16.4631 87.0003 17.5253C87.0003 18.6037 87.8294 19.292 88.9675 19.292Z" fill="white"/>
<path d="M95.9076 19.292C96.7205 19.292 97.4087 18.9072 97.761 18.2623H97.8531V19.1944H98.9695V10.9895H97.8044V14.2303H97.7177C97.3979 13.58 96.7151 13.1952 95.9076 13.1952C94.4172 13.1952 93.458 14.3766 93.458 16.2409C93.458 18.1106 94.4064 19.292 95.9076 19.292ZM96.2382 14.2411C97.2136 14.2411 97.826 15.0161 97.826 16.2463C97.826 17.4819 97.2191 18.2461 96.2382 18.2461C95.2518 18.2461 94.6611 17.4928 94.6611 16.2409C94.6611 14.9998 95.2573 14.2411 96.2382 14.2411Z" fill="white"/>
<path d="M106.525 19.3083C108.249 19.3083 109.305 18.1539 109.305 16.2409C109.305 14.3387 108.243 13.1789 106.525 13.1789C104.802 13.1789 103.74 14.3387 103.74 16.2409C103.74 18.1539 104.796 19.3083 106.525 19.3083ZM106.525 18.2732C105.512 18.2732 104.943 17.5307 104.943 16.2409C104.943 14.9619 105.512 14.214 106.525 14.214C107.533 14.214 108.108 14.9619 108.108 16.2409C108.108 17.5253 107.533 18.2732 106.525 18.2732Z" fill="white"/>
<path d="M110.848 19.1944H112.013V15.7423C112.013 14.821 112.56 14.2466 113.422 14.2466C114.284 14.2466 114.695 14.718 114.695 15.6664V19.1944H115.861V15.3738C115.861 13.9702 115.134 13.1789 113.818 13.1789C112.929 13.1789 112.343 13.5745 112.056 14.2303H111.97V13.2927H110.848V19.1944Z" fill="white"/>
<path d="M121.227 11.8241V13.3198H120.289V14.3007H121.227V17.6337C121.227 18.7717 121.742 19.227 123.037 19.227C123.265 19.227 123.481 19.1999 123.671 19.1673V18.1973C123.508 18.2135 123.406 18.2244 123.227 18.2244C122.647 18.2244 122.392 17.9534 122.392 17.3356V14.3007H123.671V13.3198H122.392V11.8241H121.227Z" fill="white"/>
<path d="M125.235 19.1944H126.4V15.7477C126.4 14.8535 126.931 14.252 127.885 14.252C128.709 14.252 129.148 14.7289 129.148 15.6718V19.1944H130.313V15.3846C130.313 13.981 129.538 13.1844 128.281 13.1844C127.392 13.1844 126.769 13.58 126.482 14.2411H126.389V10.9895H125.235V19.1944Z" fill="white"/>
<path d="M134.516 14.1707C135.378 14.1707 135.942 14.7722 135.969 15.6989H132.988C133.053 14.7777 133.655 14.1707 134.516 14.1707ZM135.963 17.6011C135.747 18.0618 135.264 18.3165 134.56 18.3165C133.628 18.3165 133.026 17.6608 132.988 16.6257V16.5606H137.156V16.1542C137.156 14.3007 136.164 13.1789 134.522 13.1789C132.858 13.1789 131.801 14.3766 131.801 16.2626C131.801 18.1485 132.836 19.3083 134.527 19.3083C135.877 19.3083 136.82 18.6579 137.085 17.6011H135.963Z" fill="white"/>
<path d="M32.6517 26.5078C32.68 24.3128 33.8588 22.2359 35.7288 21.0862C34.5491 19.4014 32.5731 18.3332 30.5173 18.2688C28.3246 18.0387 26.199 19.5809 25.0816 19.5809C23.9426 19.5809 22.2223 18.2917 20.3698 18.3298C17.9551 18.4078 15.7041 19.7807 14.5293 21.8917C12.0039 26.2639 13.8876 32.6896 16.3067 36.2238C17.517 37.9543 18.9315 39.8875 20.7823 39.8189C22.5935 39.7438 23.2699 38.664 25.4561 38.664C27.622 38.664 28.2567 39.8189 30.1451 39.7753C32.0885 39.7438 33.313 38.037 34.4808 36.2901C35.3504 35.057 36.0196 33.6941 36.4635 32.252C34.1796 31.286 32.6544 28.9876 32.6517 26.5078Z" fill="white"/>
<path d="M29.0848 15.9446C30.1445 14.6725 30.6665 13.0375 30.5401 11.3867C28.9212 11.5568 27.4258 12.3305 26.3518 13.5538C25.3016 14.749 24.7551 16.3552 24.8584 17.9429C26.4779 17.9596 28.07 17.2068 29.0848 15.9446Z" fill="white"/>
</svg>
