<svg width="177" height="53" viewBox="0 0 177 53" fill="none" xmlns="http://www.w3.org/2000/svg">
<rect x="0.652876" y="0.652876" width="174.971" height="50.9243" rx="5.87589" fill="black"/>
<rect x="0.652876" y="0.652876" width="174.971" height="50.9243" rx="5.87589" stroke="#A6A6A6" stroke-width="1.30575"/>
<path d="M88.9688 28.4015C85.8976 28.4015 83.3945 30.7375 83.3945 33.9549C83.3945 37.1527 85.8976 39.5083 88.9688 39.5083C92.0412 39.5083 94.5443 37.1527 94.5443 33.9549C94.543 30.7375 92.0399 28.4015 88.9688 28.4015ZM88.9688 37.3224C87.2856 37.3224 85.8349 35.9344 85.8349 33.9562C85.8349 31.9571 87.2869 30.59 88.9688 30.59C90.6519 30.59 92.1026 31.9571 92.1026 33.9562C92.1026 35.9331 90.6519 37.3224 88.9688 37.3224ZM76.807 28.4015C73.7358 28.4015 71.2327 30.7375 71.2327 33.9549C71.2327 37.1527 73.7358 39.5083 76.807 39.5083C79.8794 39.5083 82.3825 37.1527 82.3825 33.9549C82.3825 30.7375 79.8794 28.4015 76.807 28.4015ZM76.807 37.3224C75.1239 37.3224 73.6732 35.9344 73.6732 33.9562C73.6732 31.9571 75.1252 30.59 76.807 30.59C78.4901 30.59 79.9408 31.9571 79.9408 33.9562C79.9421 35.9331 78.4901 37.3224 76.807 37.3224ZM62.3419 30.1068V32.4624H67.9801C67.8116 33.7878 67.3703 34.7553 66.6965 35.4278C65.8765 36.2478 64.593 37.1527 62.3419 37.1527C58.8712 37.1527 56.1578 34.3545 56.1578 30.8838C56.1578 27.4131 58.8712 24.6149 62.3419 24.6149C64.2143 24.6149 65.5814 25.3513 66.5908 26.298L68.253 24.6357C66.8428 23.2895 64.9716 22.2593 62.3419 22.2593C57.5876 22.2593 53.5907 26.1295 53.5907 30.8838C53.5907 35.638 57.5876 39.5083 62.3419 39.5083C64.9077 39.5083 66.8441 38.6661 68.3575 37.0887C69.9139 35.5322 70.3983 33.3438 70.3983 31.5771C70.3983 31.0313 70.3566 30.526 70.2717 30.1055H62.3419V30.1068ZM121.503 31.9362C121.041 30.6957 119.63 28.4015 116.749 28.4015C113.888 28.4015 111.51 30.6527 111.51 33.9549C111.51 37.0678 113.867 39.5083 117.022 39.5083C119.566 39.5083 121.039 37.9518 121.65 37.0469L119.757 35.7843C119.126 36.71 118.263 37.3198 117.022 37.3198C115.781 37.3198 114.897 36.7518 114.329 35.6367L121.755 32.5656L121.503 31.9362ZM113.93 33.7878C113.867 31.6411 115.592 30.5482 116.834 30.5482C117.801 30.5482 118.621 31.0326 118.895 31.726L113.93 33.7878ZM107.893 39.1727H110.332V22.8495H107.893V39.1727ZM103.895 29.6433H103.811C103.264 28.9904 102.212 28.4015 100.888 28.4015C98.1103 28.4015 95.5654 30.842 95.5654 33.9771C95.5654 37.09 98.1103 39.5096 100.888 39.5096C102.213 39.5096 103.264 38.9207 103.811 38.2482H103.895V39.0473C103.895 41.1718 102.759 42.3078 100.929 42.3078C99.4357 42.3078 98.5099 41.2358 98.1312 40.3309L96.0068 41.2149C96.6165 42.6865 98.2357 44.4962 100.929 44.4962C103.79 44.4962 106.21 42.8131 106.21 38.7105V28.7397H103.896V29.6433H103.895ZM101.098 37.3224C99.4148 37.3224 98.0059 35.9122 98.0059 33.9771C98.0059 32.0198 99.4148 30.59 101.098 30.59C102.759 30.59 104.063 32.0198 104.063 33.9771C104.063 35.9122 102.759 37.3224 101.098 37.3224ZM132.933 22.8495H127.095V39.1727H129.531V32.9886H132.932C135.632 32.9886 138.288 31.0339 138.288 27.9197C138.288 24.8055 135.634 22.8495 132.933 22.8495ZM132.996 30.7166H129.531V25.1215H132.996C134.818 25.1215 135.852 26.6296 135.852 27.9197C135.852 29.1837 134.818 30.7166 132.996 30.7166ZM148.054 28.3728C146.29 28.3728 144.463 29.1497 143.707 30.872L145.87 31.7743C146.332 30.872 147.194 30.5769 148.096 30.5769C149.356 30.5769 150.637 31.333 150.658 32.6766V32.845C150.216 32.593 149.271 32.2156 148.117 32.2156C145.786 32.2156 143.412 33.4966 143.412 35.89C143.412 38.0746 145.324 39.4808 147.465 39.4808C149.103 39.4808 150.006 38.7457 150.573 37.8839H150.656V39.144H153.009V32.8855C153.011 29.9893 150.846 28.3728 148.054 28.3728ZM147.759 37.3185C146.962 37.3185 145.849 36.919 145.849 35.9318C145.849 34.6718 147.235 34.1886 148.433 34.1886C149.502 34.1886 150.007 34.4198 150.658 34.7344C150.468 36.2478 149.167 37.3185 147.759 37.3185ZM161.578 28.7293L158.785 35.8065H158.701L155.802 28.7293H153.178L157.525 38.6204L155.046 44.1228H157.587L164.287 28.7293H161.578ZM139.633 39.1727H142.068V22.8495H139.633V39.1727Z" fill="white"/>
<path d="M61.9162 13.3748C61.9162 14.469 61.5923 15.3399 60.9434 15.9902C60.2069 16.7632 59.2459 17.1497 58.0655 17.1497C56.9347 17.1497 55.9724 16.758 55.1824 15.9745C54.3911 15.1898 53.9955 14.2183 53.9955 13.0588C53.9955 11.898 54.3911 10.9265 55.1824 10.143C55.9724 9.35827 56.9347 8.96654 58.0655 8.96654C58.627 8.96654 59.1637 9.07622 59.6729 9.29428C60.1834 9.51365 60.5921 9.80483 60.8977 10.1691L60.2096 10.8586C59.6912 10.2383 58.9769 9.92888 58.0642 9.92888C57.239 9.92888 56.526 10.2188 55.9241 10.7985C55.3221 11.3783 55.0218 12.1317 55.0218 13.0575C55.0218 13.9832 55.3221 14.7367 55.9241 15.3164C56.526 15.8962 57.239 16.186 58.0642 16.186C58.9391 16.186 59.669 15.8949 60.2526 15.3112C60.6313 14.9312 60.8507 14.4024 60.9094 13.7247H58.0642V12.7833H61.86C61.8992 12.9883 61.9162 13.1854 61.9162 13.3748Z" fill="white"/>
<path d="M67.9358 10.1026H64.3685V12.5862H67.5859V13.5276H64.3685V16.0111H67.9358V16.9748H63.3618V9.14028H67.9358V10.1026Z" fill="white"/>
<path d="M72.1807 16.9748H71.1739V10.1026H68.9855V9.14028H74.3691V10.1026H72.1807V16.9748Z" fill="white"/>
<path d="M78.2641 16.9748V9.14028H79.2708V16.9748H78.2641Z" fill="white"/>
<path d="M83.7354 16.9748H82.7287V10.1026H80.5403V9.14028H85.9239V10.1026H83.7354V16.9748Z" fill="white"/>
<path d="M96.115 15.9628C95.3446 16.7541 94.3875 17.1498 93.2423 17.1498C92.0972 17.1498 91.1401 16.7541 90.371 15.9628C89.6006 15.1715 89.2167 14.2027 89.2167 13.0575C89.2167 11.9124 89.6006 10.9435 90.371 10.1522C91.1401 9.36094 92.0972 8.96399 93.2423 8.96399C94.3809 8.96399 95.3368 9.36224 96.1098 10.1574C96.8828 10.9526 97.2693 11.9189 97.2693 13.0575C97.2693 14.2027 96.8841 15.1715 96.115 15.9628ZM91.1139 15.306C91.6937 15.8936 92.4027 16.1861 93.2423 16.1861C94.0819 16.1861 94.7922 15.8923 95.3707 15.306C95.9505 14.7184 96.2416 13.9689 96.2416 13.0575C96.2416 12.1461 95.9505 11.3966 95.3707 10.809C94.7922 10.2214 94.0819 9.92894 93.2423 9.92894C92.4027 9.92894 91.6937 10.2227 91.1139 10.809C90.5355 11.3966 90.2443 12.1461 90.2443 13.0575C90.2443 13.9689 90.5355 14.7184 91.1139 15.306Z" fill="white"/>
<path d="M98.6821 16.9748V9.14028H99.9069L103.714 15.2342H103.758L103.714 13.7248V9.14028H104.721V16.9748H103.67L99.6862 10.5844H99.6431L99.6862 12.0939V16.9748H98.6821Z" fill="white"/>
<path d="M61.9162 13.3748C61.9162 14.469 61.5923 15.3399 60.9434 15.9902C60.2069 16.7632 59.2459 17.1497 58.0655 17.1497C56.9347 17.1497 55.9724 16.758 55.1824 15.9745C54.3911 15.1898 53.9955 14.2183 53.9955 13.0588C53.9955 11.898 54.3911 10.9265 55.1824 10.143C55.9724 9.35827 56.9347 8.96654 58.0655 8.96654C58.627 8.96654 59.1637 9.07622 59.6729 9.29428C60.1834 9.51365 60.5921 9.80483 60.8977 10.1691L60.2096 10.8586C59.6912 10.2383 58.9769 9.92888 58.0642 9.92888C57.239 9.92888 56.526 10.2188 55.9241 10.7985C55.3221 11.3783 55.0218 12.1317 55.0218 13.0575C55.0218 13.9832 55.3221 14.7367 55.9241 15.3164C56.526 15.8962 57.239 16.186 58.0642 16.186C58.9391 16.186 59.669 15.8949 60.2526 15.3112C60.6313 14.9312 60.8507 14.4024 60.9094 13.7247H58.0642V12.7833H61.86C61.8992 12.9883 61.9162 13.1854 61.9162 13.3748Z" stroke="white" stroke-width="0.26115" stroke-miterlimit="10"/>
<path d="M67.9358 10.1026H64.3685V12.5862H67.5859V13.5276H64.3685V16.0111H67.9358V16.9748H63.3618V9.14028H67.9358V10.1026Z" stroke="white" stroke-width="0.26115" stroke-miterlimit="10"/>
<path d="M72.1807 16.9748H71.1739V10.1026H68.9855V9.14028H74.3691V10.1026H72.1807V16.9748Z" stroke="white" stroke-width="0.26115" stroke-miterlimit="10"/>
<path d="M78.2641 16.9748V9.14028H79.2708V16.9748H78.2641Z" stroke="white" stroke-width="0.26115" stroke-miterlimit="10"/>
<path d="M83.7354 16.9748H82.7287V10.1026H80.5403V9.14028H85.9239V10.1026H83.7354V16.9748Z" stroke="white" stroke-width="0.26115" stroke-miterlimit="10"/>
<path d="M96.115 15.9628C95.3446 16.7541 94.3875 17.1498 93.2423 17.1498C92.0972 17.1498 91.1401 16.7541 90.371 15.9628C89.6006 15.1715 89.2167 14.2027 89.2167 13.0575C89.2167 11.9124 89.6006 10.9435 90.371 10.1522C91.1401 9.36094 92.0972 8.96399 93.2423 8.96399C94.3809 8.96399 95.3368 9.36224 96.1098 10.1574C96.8828 10.9526 97.2693 11.9189 97.2693 13.0575C97.2693 14.2027 96.8841 15.1715 96.115 15.9628ZM91.1139 15.306C91.6937 15.8936 92.4027 16.1861 93.2423 16.1861C94.0819 16.1861 94.7922 15.8923 95.3707 15.306C95.9505 14.7184 96.2416 13.9689 96.2416 13.0575C96.2416 12.1461 95.9505 11.3966 95.3707 10.809C94.7922 10.2214 94.0819 9.92894 93.2423 9.92894C92.4027 9.92894 91.6937 10.2227 91.1139 10.809C90.5355 11.3966 90.2443 12.1461 90.2443 13.0575C90.2443 13.9689 90.5355 14.7184 91.1139 15.306Z" stroke="white" stroke-width="0.26115" stroke-miterlimit="10"/>
<path d="M98.6821 16.9748V9.14028H99.9069L103.714 15.2342H103.758L103.714 13.7248V9.14028H104.721V16.9748H103.67L99.6862 10.5844H99.6431L99.6862 12.0939V16.9748H98.6821Z" stroke="white" stroke-width="0.26115" stroke-miterlimit="10"/>
<g filter="url(#filter0_ii_44_483)">
<path d="M13.6269 9.84276C13.2469 10.2449 13.0223 10.8691 13.0223 11.6773V40.5554C13.0223 41.3649 13.2469 41.9878 13.6269 42.3899L13.7235 42.484L29.9005 26.307V26.1163V25.9257L13.7235 9.74744L13.6269 9.84276Z" fill="url(#paint0_linear_44_483)"/>
<path d="M35.292 31.7011L29.9005 26.307V26.1164V25.9257L35.2933 20.533L35.4147 20.6022L41.8038 24.2322C43.6279 25.2689 43.6279 26.9651 41.8038 28.0032L35.4147 31.6332L35.292 31.7011Z" fill="url(#paint1_linear_44_483)"/>
<g filter="url(#filter1_i_44_483)">
<path d="M35.4146 31.6318L29.8991 26.1163L13.6268 42.3899C14.2275 43.0271 15.2212 43.1055 16.3402 42.4709L35.4146 31.6318Z" fill="url(#paint2_linear_44_483)"/>
</g>
<path d="M35.4146 20.6008L16.3402 9.76305C15.2212 9.12715 14.2275 9.2068 13.6268 9.84401L29.9004 26.1176L35.4146 20.6008Z" fill="url(#paint3_linear_44_483)"/>
</g>
<defs>
<filter id="filter0_ii_44_483" x="13.0223" y="9.32422" width="30.1495" height="33.585" filterUnits="userSpaceOnUse" color-interpolation-filters="sRGB">
<feFlood flood-opacity="0" result="BackgroundImageFix"/>
<feBlend mode="normal" in="SourceGraphic" in2="BackgroundImageFix" result="shape"/>
<feColorMatrix in="SourceAlpha" type="matrix" values="0 0 0 0 0 0 0 0 0 0 0 0 0 0 0 0 0 0 127 0" result="hardAlpha"/>
<feOffset dy="-0.195863"/>
<feComposite in2="hardAlpha" operator="arithmetic" k2="-1" k3="1"/>
<feColorMatrix type="matrix" values="0 0 0 0 0 0 0 0 0 0 0 0 0 0 0 0 0 0 0.12 0"/>
<feBlend mode="normal" in2="shape" result="effect1_innerShadow_44_483"/>
<feColorMatrix in="SourceAlpha" type="matrix" values="0 0 0 0 0 0 0 0 0 0 0 0 0 0 0 0 0 0 127 0" result="hardAlpha"/>
<feOffset dy="0.195863"/>
<feComposite in2="hardAlpha" operator="arithmetic" k2="-1" k3="1"/>
<feColorMatrix type="matrix" values="0 0 0 0 1 0 0 0 0 1 0 0 0 0 1 0 0 0 0.25 0"/>
<feBlend mode="normal" in2="effect1_innerShadow_44_483" result="effect2_innerShadow_44_483"/>
</filter>
<filter id="filter1_i_44_483" x="13.6268" y="26.1163" width="21.7878" height="16.7928" filterUnits="userSpaceOnUse" color-interpolation-filters="sRGB">
<feFlood flood-opacity="0" result="BackgroundImageFix"/>
<feBlend mode="normal" in="SourceGraphic" in2="BackgroundImageFix" result="shape"/>
<feColorMatrix in="SourceAlpha" type="matrix" values="0 0 0 0 0 0 0 0 0 0 0 0 0 0 0 0 0 0 127 0" result="hardAlpha"/>
<feOffset dy="-0.195863"/>
<feComposite in2="hardAlpha" operator="arithmetic" k2="-1" k3="1"/>
<feColorMatrix type="matrix" values="0 0 0 0 0 0 0 0 0 0 0 0 0 0 0 0 0 0 0.08 0"/>
<feBlend mode="normal" in2="shape" result="effect1_innerShadow_44_483"/>
</filter>
<linearGradient id="paint0_linear_44_483" x1="28.4665" y1="11.3718" x2="6.55338" y2="33.2849" gradientUnits="userSpaceOnUse">
<stop stop-color="#00A0FF"/>
<stop offset="0.0066" stop-color="#00A1FF"/>
<stop offset="0.2601" stop-color="#00BEFF"/>
<stop offset="0.5122" stop-color="#00D2FF"/>
<stop offset="0.7604" stop-color="#00DFFF"/>
<stop offset="1" stop-color="#00E3FF"/>
</linearGradient>
<linearGradient id="paint1_linear_44_483" x1="44.1783" y1="26.1164" x2="12.5844" y2="26.1164" gradientUnits="userSpaceOnUse">
<stop stop-color="#FFE000"/>
<stop offset="0.4087" stop-color="#FFBD00"/>
<stop offset="0.7754" stop-color="#FFA500"/>
<stop offset="1" stop-color="#FF9C00"/>
</linearGradient>
<linearGradient id="paint2_linear_44_483" x1="32.4194" y1="29.1116" x2="2.70239" y2="58.8286" gradientUnits="userSpaceOnUse">
<stop stop-color="#FF3A44"/>
<stop offset="1" stop-color="#C31162"/>
</linearGradient>
<linearGradient id="paint3_linear_44_483" x1="9.5286" y1="0.230797" x2="22.798" y2="13.5002" gradientUnits="userSpaceOnUse">
<stop stop-color="#32A071"/>
<stop offset="0.0685" stop-color="#2DA771"/>
<stop offset="0.4762" stop-color="#15CF74"/>
<stop offset="0.8009" stop-color="#06E775"/>
<stop offset="1" stop-color="#00F076"/>
</linearGradient>
</defs>
</svg>
