<?xml version="1.0" standalone="no"?>
<!DOCTYPE svg PUBLIC "-//W3C//DTD SVG 20010904//EN"
 "http://www.w3.org/TR/2001/REC-SVG-20010904/DTD/svg10.dtd">
<svg version="1.0" xmlns="http://www.w3.org/2000/svg"
 width="512.000000pt" height="512.000000pt" viewBox="0 0 512.000000 512.000000"
 preserveAspectRatio="xMidYMid meet">
<metadata>
Created by potrace 1.14, written by Peter Selinger 2001-2017
</metadata>
<g transform="translate(0.000000,512.000000) scale(0.100000,-0.100000)"
fill="#000000" stroke="none">
<path d="M3297 3480 c-214 -67 -315 -305 -215 -507 32 -65 94 -130 153 -161
43 -22 123 -42 171 -42 61 0 162 35 216 75 215 158 183 499 -57 615 -82 40
-182 47 -268 20z"/>
<path d="M1465 3448 c-181 -24 -314 -178 -315 -366 0 -60 35 -159 76 -211 168
-217 494 -182 616 66 29 59 32 75 32 153 0 79 -4 95 -33 154 -72 146 -216 225
-376 204z"/>
<path d="M825 3127 c-56 -14 -119 -51 -198 -115 -189 -154 -304 -299 -408
-515 -34 -72 -43 -102 -47 -162 -7 -113 30 -177 155 -264 69 -48 93 -67 93
-72 0 -2 -64 -4 -142 -5 -114 0 -150 -4 -175 -17 -113 -59 -137 -202 -49 -288
19 -18 50 -38 68 -45 23 -8 162 -11 460 -10 l426 1 44 30 c52 37 81 91 80 152
-2 81 -24 107 -225 263 -102 80 -189 148 -192 152 -9 9 89 147 161 227 l32 34
-33 76 c-18 42 -49 114 -69 161 -44 105 -50 143 -26 196 33 77 115 110 196 79
54 -21 74 -45 114 -143 18 -42 41 -97 52 -122 52 -117 67 -150 94 -215 16 -38
35 -77 42 -85 7 -8 27 -32 44 -53 43 -52 53 -56 203 -72 33 -3 85 -10 115 -15
58 -9 151 -20 210 -25 106 -9 174 99 116 186 -26 40 -52 50 -166 64 -25 3 -60
8 -77 10 -18 3 -57 8 -85 11 -161 20 -143 12 -206 93 -38 49 -73 83 -104 100
-63 35 -123 93 -158 154 -25 44 -37 81 -55 173 -7 35 -84 65 -173 68 -42 2
-95 -1 -117 -7z"/>
<path d="M875 2975 c-84 -35 -96 -116 -35 -236 5 -9 27 -61 50 -115 23 -54 47
-112 55 -129 7 -16 57 -131 110 -255 53 -124 103 -238 110 -255 8 -16 35 -79
60 -139 52 -123 76 -162 106 -171 72 -23 129 -2 159 60 18 38 19 45 6 86 -11
35 -176 427 -216 514 -5 11 -64 146 -130 299 -66 154 -127 290 -136 303 -25
40 -93 58 -139 38z"/>
<path d="M3943 2938 c-155 -24 -293 -157 -293 -283 0 -54 25 -108 72 -154 33
-32 33 -32 39 -9 3 13 7 64 8 113 1 65 7 101 21 131 54 111 222 110 275 -2 24
-51 24 -163 -1 -330 -6 -39 -4 -42 23 -48 78 -20 283 -104 283 -117 0 -4 -17
-22 -37 -40 -142 -123 -298 -279 -313 -313 -40 -87 -2 -186 87 -232 41 -21 52
-21 460 -20 273 2 427 6 443 13 40 17 89 74 101 116 22 83 -13 167 -86 208
-36 21 -53 23 -207 23 -92 1 -168 3 -168 4 0 2 31 34 69 70 106 103 182 250
184 352 1 113 -51 184 -213 290 -176 114 -315 171 -515 210 -137 26 -167 28
-232 18z"/>
<path d="M3871 2773 c-46 -23 -61 -60 -66 -166 -14 -276 -83 -501 -221 -722
-53 -86 -63 -129 -40 -173 39 -76 140 -90 201 -28 8 8 15 17 15 20 0 3 13 24
29 48 59 88 150 278 160 330 1 5 8 25 16 45 21 54 53 190 61 253 3 30 8 58 10
61 2 3 6 57 10 120 5 91 3 121 -9 151 -27 65 -101 92 -166 61z"/>
<path d="M2019 2770 c-4 -18 -4 -220 1 -221 8 0 802 -1 831 0 l25 1 0 112 -1
111 -428 1 c-235 1 -428 -1 -428 -4z"/>
<path d="M2017 2463 c-2 -5 -3 -55 -2 -113 l1 -105 112 -1 c62 -1 112 2 112 5
1 10 1 184 1 204 -1 15 -13 17 -110 17 -61 0 -112 -3 -114 -7z"/>
<path d="M2337 2463 c-10 -9 -9 -213 1 -215 4 -1 55 -2 115 -3 l107 -2 -1 114
-1 113 -107 0 c-59 0 -111 -3 -114 -7z"/>
<path d="M2017 2152 c-2 -4 -3 -54 -3 -112 l2 -105 429 0 430 0 0 112 1 111
-428 1 c-235 0 -429 -3 -431 -7z"/>
<path d="M2029 1852 c-12 -2 -15 -22 -14 -110 l1 -107 112 -3 c86 -2 112 0
113 10 1 20 1 149 0 183 l-1 30 -98 0 c-54 0 -105 -1 -113 -3z"/>
<path d="M2341 1852 c-7 -2 -11 -41 -11 -113 l0 -109 65 -1 c36 -1 76 -1 90
-1 14 0 37 0 51 1 l25 1 -3 112 -3 112 -101 1 c-56 0 -107 -1 -113 -3z"/>
<path d="M2654 1851 c-2 -2 -4 -53 -4 -113 l0 -108 113 0 112 0 0 112 0 112
-108 1 c-60 0 -111 -2 -113 -4z"/>
<path d="M3194 1733 l0 -113 113 0 113 0 0 115 0 114 -113 -1 -113 -2 0 -113z"/>
</g>
</svg>
