<svg width="50" height="45" viewBox="0 0 50 45" fill="none" xmlns="http://www.w3.org/2000/svg">
<path d="M8.59375 0.375H44.5312C45.8008 0.375 46.875 1.44922 46.875 2.71875C46.875 4.08594 45.8008 5.0625 44.5312 5.0625H8.59375C6.34766 5.0625 4.6875 6.82031 4.6875 8.96875V35.5312C4.6875 37.7773 6.34766 39.4375 8.59375 39.4375H41.4062C43.5547 39.4375 45.3125 37.7773 45.3125 35.5312V18.3438C45.3125 16.1953 43.5547 14.4375 41.4062 14.4375H11.7188C10.3516 14.4375 9.375 13.4609 9.375 12.0938C9.375 10.8242 10.3516 9.75 11.7188 9.75H41.4062C46.0938 9.75 50 13.6562 50 18.3438V35.5312C50 40.3164 46.0938 44.125 41.4062 44.125H8.59375C3.80859 44.125 0 40.3164 0 35.5312V8.96875C0 4.28125 3.80859 0.375 8.59375 0.375ZM37.5 30.0625C35.7422 30.0625 34.375 28.6953 34.375 26.9375C34.375 25.2773 35.7422 23.8125 37.5 23.8125C39.1602 23.8125 40.625 25.2773 40.625 26.9375C40.625 28.6953 39.1602 30.0625 37.5 30.0625Z" fill="#D0C9B2"/>
</svg>
