<svg width="50" height="51" viewBox="0 0 50 51" fill="none" xmlns="http://www.w3.org/2000/svg">
<path d="M22.6562 11.9688C22.6562 10.6992 23.6328 9.625 25 9.625C26.2695 9.625 27.3438 10.6992 27.3438 11.9688V24.0781L35.6445 29.5469C36.7188 30.3281 37.0117 31.793 36.2305 32.8672C35.5469 33.9414 34.082 34.2344 33.0078 33.4531L23.6328 27.2031C23.0469 26.8125 22.6562 26.0312 22.6562 25.25V11.9688ZM25 0.25C38.7695 0.25 50 11.4805 50 25.25C50 39.1172 38.7695 50.25 25 50.25C11.1328 50.25 0 39.1172 0 25.25C0 11.4805 11.1328 0.25 25 0.25ZM4.6875 25.25C4.6875 36.4805 13.7695 45.5625 25 45.5625C36.1328 45.5625 45.3125 36.4805 45.3125 25.25C45.3125 14.1172 36.1328 4.9375 25 4.9375C13.7695 4.9375 4.6875 14.1172 4.6875 25.25Z" fill="#C6C9A5"/>
</svg>
