<svg width="64" height="51" viewBox="0 0 64 51" fill="none" xmlns="http://www.w3.org/2000/svg">
<path d="M35.125 4.9375H13.25C12.3711 4.9375 11.6875 5.71875 11.6875 6.5V9.625H24.1875C24.9688 9.625 25.75 10.4062 25.75 11.1875C25.75 12.0664 24.9688 12.75 24.1875 12.75H2.3125C1.43359 12.75 0.75 12.0664 0.75 11.1875C0.75 10.4062 1.43359 9.625 2.3125 9.625H7V6.5C7 3.08203 9.73438 0.25 13.25 0.25H35.125C38.543 0.25 41.375 3.08203 41.375 6.5V9.625H45.4766C46.9414 9.625 48.3086 10.2109 49.3828 11.2852L58.4648 20.3672C59.5391 21.4414 60.125 22.8086 60.125 24.2734V36.1875H60.9062C62.1758 36.1875 63.25 37.2617 63.25 38.5312C63.25 39.8984 62.1758 40.875 60.9062 40.875H57C57 46.0508 52.8008 50.25 47.625 50.25C42.4492 50.25 38.25 46.0508 38.25 40.875H25.75C25.75 46.0508 21.5508 50.25 16.375 50.25C11.1992 50.25 7 46.0508 7 40.875V28.375H11.6875V32.7695C13.0547 31.9883 14.6172 31.5 16.375 31.5C19.793 31.5 22.8203 33.4531 24.4805 36.1875H35.125C35.9062 36.1875 36.6875 35.5039 36.6875 34.625V6.5C36.6875 5.71875 35.9062 4.9375 35.125 4.9375ZM55.1445 23.6875L46.0625 14.6055C45.8672 14.4102 45.6719 14.3125 45.4766 14.3125H41.375V23.6875H55.2422H55.1445ZM21.0625 40.875C21.0625 39.2148 20.0859 37.75 18.7188 36.8711C17.2539 35.9922 15.3984 35.9922 14.0312 36.8711C12.5664 37.75 11.6875 39.2148 11.6875 40.875C11.6875 42.6328 12.5664 44.0977 14.0312 44.9766C15.3984 45.8555 17.2539 45.8555 18.7188 44.9766C20.0859 44.0977 21.0625 42.6328 21.0625 40.875ZM47.625 45.5625C49.2852 45.5625 50.75 44.6836 51.6289 43.2188C52.5078 41.8516 52.5078 39.9961 51.6289 38.5312C50.75 37.1641 49.2852 36.1875 47.625 36.1875C45.8672 36.1875 44.4023 37.1641 43.5234 38.5312C42.6445 39.9961 42.6445 41.8516 43.5234 43.2188C44.4023 44.6836 45.8672 45.5625 47.625 45.5625ZM5.4375 15.875H27.3125C28.0938 15.875 28.875 16.6562 28.875 17.4375C28.875 18.3164 28.0938 19 27.3125 19H5.4375C4.55859 19 3.875 18.3164 3.875 17.4375C3.875 16.6562 4.55859 15.875 5.4375 15.875ZM2.3125 22.125H24.1875C24.9688 22.125 25.75 22.9062 25.75 23.6875C25.75 24.5664 24.9688 25.25 24.1875 25.25H2.3125C1.43359 25.25 0.75 24.5664 0.75 23.6875C0.75 22.9062 1.43359 22.125 2.3125 22.125Z" fill="#B7D1D1"/>
</svg>
