<svg width="164" height="160" viewBox="0 0 164 160" fill="none" xmlns="http://www.w3.org/2000/svg">
<path d="M113.931 53.5151C106.523 48.8011 97.639 46.556 88.9398 46.9431C67.0199 47.8547 47.8693 64.4373 46.4434 88.2579C45.9719 96.9614 47.9637 105.996 52.4099 113.644C56.9125 121.121 63.754 126.982 71.6725 130.721C79.5331 134.345 88.4707 135.846 97.1077 134.486C105.745 133.125 113.853 129.02 120.177 123.092C126.501 117.165 131.27 109.298 133.289 100.816C135.419 91.9896 134.457 82.7209 130.923 74.3238C127.617 65.811 121.627 58.5139 113.931 53.5151Z" fill="#FF986D"/>
<path d="M139.536 56.7637C137.408 54.8281 134.492 55.5869 132.151 56.6291C129.124 58.0181 126.326 59.5778 123.531 61.4236C123.417 61.4815 123.302 61.5393 123.302 61.5393C123.36 61.6535 123.476 61.8819 123.534 61.9961C123.591 62.1103 123.763 62.1666 123.821 62.2808C123.879 62.395 124.109 62.5656 124.167 62.6798C125.137 62.0452 126.164 61.5249 127.134 60.8903C129.246 59.6776 131.645 58.4634 133.988 57.7075C134.845 57.4169 135.988 57.125 136.848 57.4069C137.709 57.6888 138.284 58.2583 138.689 59.0577C139.614 60.8849 139.223 62.9476 138.201 64.6128C137.066 66.6221 135.53 68.4044 133.993 70.1866C132.4 72.1409 130.749 73.981 129.099 75.8212C125.797 79.5014 122.38 82.9532 118.79 86.3486C111.612 93.1395 103.8 99.2466 95.6991 104.783C87.4262 110.263 78.6923 115.115 69.7256 119.224C65.1563 121.251 60.6433 123.105 55.9005 124.789C53.8435 125.544 51.9007 126.24 49.6703 126.652C48.1264 127.004 46.1808 127.128 44.689 126.448C44.1151 126.165 43.6555 125.824 43.4242 125.367C42.9588 123.881 42.9516 122.45 43.5732 120.844C44.0792 119.01 44.987 117.402 45.837 115.681C46.2909 114.877 46.687 113.959 47.1973 112.983C47.5934 112.066 48.2193 111.318 48.7875 110.457C49.2992 109.767 49.6967 109.136 50.2084 108.446C50.035 108.103 49.8037 107.647 49.6303 107.304C49.4019 107.42 49.2313 107.65 49.0029 107.765C47.8624 108.63 46.9517 109.665 45.9268 110.757C44.9019 111.85 43.877 112.943 43.1397 114.32C42.3446 115.584 41.7794 117.018 41.1564 118.338C40.0244 120.919 39.1252 124.244 41.4265 126.522C42.0596 127.206 43.0367 128.002 44.0688 128.341C45.1009 128.679 46.1894 128.845 47.2764 128.725C49.6803 128.656 52.0235 127.9 54.2525 127.202C57.1667 126.157 60.0809 125.112 62.9951 124.067C68.5937 121.806 74.1908 119.259 79.5581 116.542C90.4632 110.877 100.734 104.242 110.312 96.5234C119.776 88.8624 128.491 80.2892 136.287 71.0338C138.051 68.8496 140.215 66.6062 141.175 63.9682C141.792 61.5036 141.434 58.5287 139.536 56.7637Z" fill="black"/>
<path d="M81.8334 56.7103C81.7178 56.4819 81.488 56.3113 81.2581 56.1408C81.0861 56.0844 80.9141 56.028 80.6843 55.8574C80.3402 55.7447 79.882 55.6897 79.5394 55.8632C79.311 55.9788 79.1968 56.0366 78.9106 56.0381C78.568 56.2115 78.2833 56.4992 77.9985 56.7868C77.8843 56.8446 77.8279 57.0167 77.7137 57.0745C77.5431 57.3043 77.4304 57.6483 77.374 57.8204C77.2612 58.1644 77.2627 58.4506 77.3783 58.679C77.3797 58.9652 77.5532 59.3078 77.783 59.4784C77.8987 59.7068 78.1285 59.8774 78.3583 60.0479C78.5303 60.1043 78.7024 60.1607 78.9322 60.3313C79.2762 60.444 79.7344 60.499 80.077 60.3255C80.3054 60.2099 80.4196 60.1521 80.7058 60.1506C81.0484 59.9772 81.3332 59.6895 81.618 59.4019C81.7322 59.344 81.7886 59.172 81.9028 59.1142C82.0733 58.8844 82.1861 58.5403 82.2425 58.3683C82.3552 58.0243 82.3538 57.7381 82.2382 57.5097C82.0647 57.1671 81.9491 56.9387 81.8334 56.7103Z" fill="#E6EAEC"/>
<path d="M77.985 76.8795C75.4726 78.1515 77.4963 82.1484 80.0086 80.8764C82.6351 79.5466 80.6115 75.5497 77.985 76.8795Z" fill="#E6EAEC"/>
<path d="M98.1749 62.0662C96.0052 63.1648 97.6819 66.4765 99.8516 65.378C102.079 64.3936 100.345 60.9677 98.1749 62.0662Z" fill="#E6EAEC"/>
<path d="M106.499 78.2243C106.096 77.7111 105.464 77.3136 104.834 77.2023C104.146 76.9767 103.574 76.9796 102.887 77.0403C102.258 77.2152 101.573 77.5621 101.06 77.9654L100.946 78.0232C100.432 78.4265 100.035 79.0582 99.8093 79.7463C99.5838 80.4343 99.4725 81.0646 99.7052 81.8076C99.9379 82.5506 100.227 83.1216 100.688 83.7489C101.091 84.2621 101.723 84.6596 102.411 84.8851C103.099 85.1107 103.729 85.222 104.472 84.9893C105.215 84.7566 105.786 84.4675 106.414 84.0064C106.927 83.6031 107.325 82.9714 107.55 82.2833C107.776 81.5953 107.887 80.965 107.654 80.222L107.596 80.1078C107.249 79.4226 106.903 78.7375 106.499 78.2243Z" fill="#E6EAEC"/>
<path d="M88.0931 94.8607C87.8054 94.5759 87.4036 94.3489 87.0595 94.2362C86.8875 94.1798 86.6013 94.1812 86.4293 94.1249C85.971 94.0699 85.5706 94.1292 85.1138 94.3604C84.7713 94.5339 84.5429 94.6495 84.4301 94.9936C84.2595 95.2234 84.0889 95.4532 83.9762 95.7973C83.8634 96.1413 83.8649 96.4275 83.8663 96.7137C83.8677 96.9999 83.927 97.4003 84.0426 97.6287C84.1583 97.8571 84.2161 97.9713 84.4459 98.1419C84.7336 98.4267 85.1354 98.6536 85.4795 98.7664C85.6515 98.8228 85.9377 98.8213 86.1097 98.8777C86.5679 98.9327 86.9683 98.8734 87.4251 98.6421C87.7677 98.4687 87.9961 98.353 88.1089 98.009C88.2795 97.7792 88.45 97.5493 88.5628 97.2053C88.6755 96.8613 88.6741 96.5751 88.6727 96.2889C88.6712 96.0026 88.5556 95.7742 88.3821 95.4317C88.3243 95.3175 88.2087 95.0891 88.0931 94.8607Z" fill="#E6EAEC"/>
<path d="M121.509 92.0023C115.685 94.951 120.253 103.973 126.077 101.024C131.901 98.0752 127.333 89.0536 121.509 92.0023Z" fill="#E6EAEC"/>
<path d="M108.188 106.781C107.901 106.496 107.671 106.325 107.327 106.213C107.155 106.156 106.983 106.1 106.811 106.044C106.41 106.103 106.124 106.104 105.782 106.278C105.553 106.393 105.325 106.509 105.154 106.739C104.984 106.969 104.813 107.199 104.757 107.371C104.586 107.6 104.587 107.887 104.703 108.115C104.705 108.401 104.706 108.687 104.936 108.858C104.994 108.972 105.109 109.201 105.281 109.257C105.569 109.542 105.799 109.712 106.143 109.825C106.315 109.881 106.487 109.938 106.659 109.994C107.059 109.935 107.345 109.933 107.688 109.76C107.916 109.644 108.145 109.529 108.315 109.299C108.486 109.069 108.657 108.839 108.713 108.667C108.884 108.437 108.882 108.151 108.766 107.923C108.765 107.637 108.764 107.35 108.534 107.18C108.418 106.951 108.36 106.837 108.188 106.781Z" fill="#E6EAEC"/>
<path d="M119.852 69.7424C119.506 69.3434 119.104 69.1164 118.588 68.9473C118.416 68.8909 118.13 68.8923 117.958 68.836C117.5 68.781 116.985 68.8981 116.528 69.1294C116.186 69.3028 115.901 69.5905 115.731 69.8203C115.446 70.108 115.275 70.3378 115.22 70.796C115.107 71.1401 114.995 71.4841 115.054 71.8845C115.113 72.2849 115.115 72.5711 115.288 72.9137C115.404 73.1421 115.634 73.3127 115.749 73.5411C116.095 73.9401 116.497 74.167 117.013 74.3361C117.185 74.3925 117.471 74.3911 117.643 74.4475C118.101 74.5024 118.616 74.3853 119.072 74.1541C119.415 73.9806 119.7 73.693 119.87 73.4631C120.155 73.1755 120.326 72.9456 120.381 72.4874C120.493 72.1434 120.606 71.7993 120.547 71.3989C120.488 70.9985 120.314 70.6559 120.141 70.3133C120.025 70.0849 119.967 69.9708 119.852 69.7424Z" fill="#E6EAEC"/>
<path d="M66.269 80.6591C64.556 81.5264 65.8858 84.1529 67.5988 83.2857C69.3118 82.4184 67.9819 79.7918 66.269 80.6591Z" fill="#E6EAEC"/>
<path d="M87.384 67.6733C87.1542 67.5028 86.9244 67.3322 86.7523 67.2758C86.5803 67.2194 86.4661 67.2773 86.4083 67.1631C86.1221 67.1645 85.8359 67.1659 85.6075 67.2816C85.3791 67.3972 85.2649 67.455 85.0943 67.6849C84.8659 67.8005 84.8095 67.9725 84.811 68.2587C84.7546 68.4307 84.6982 68.6028 84.6997 68.889C84.6433 69.061 84.7589 69.2894 84.8746 69.5178C84.9324 69.632 84.9902 69.7462 85.048 69.8604C85.2778 70.0309 85.5077 70.2015 85.6797 70.2579L86.0237 70.3707C86.3099 70.3692 86.5962 70.3678 86.8245 70.2521C87.0529 70.1365 87.1671 70.0787 87.3377 69.8489C87.5661 69.7332 87.6225 69.5612 87.6211 69.275C87.6774 69.103 87.7338 68.931 87.7324 68.6447C87.7888 68.4727 87.6731 68.2443 87.5575 68.0159C87.4997 67.9017 87.4418 67.7875 87.384 67.6733Z" fill="#E6EAEC"/>
<path d="M99.2917 90.6252C97.2361 91.6659 98.7972 94.7493 100.853 93.7085C102.966 92.782 101.347 89.5845 99.2917 90.6252Z" fill="#E6EAEC"/>
<path d="M92.9175 120.825C92.2844 120.141 91.4229 119.573 90.5628 119.291C90.1046 119.236 89.5885 119.067 89.1303 119.012C88.0996 118.96 87.1846 119.137 86.271 119.599C85.5858 119.946 84.9585 120.407 84.5609 121.039C84.1056 121.556 83.7081 122.188 83.4825 122.876C83.257 123.564 83.2035 124.309 83.2642 124.995C83.2107 125.74 83.4434 126.483 83.7903 127.168C84.1358 127.567 84.3671 128.024 84.7125 128.422C85.3457 129.106 86.2072 129.674 87.0673 129.956C87.5255 130.011 88.0415 130.18 88.4998 130.235C89.5304 130.287 90.4454 130.111 91.359 129.648C92.0442 129.302 92.6716 128.84 93.0691 128.209C93.5245 127.691 93.922 127.06 94.1475 126.372C94.373 125.683 94.4265 124.939 94.3658 124.252C94.4193 123.508 94.1866 122.765 93.8397 122.08C93.4942 121.681 93.1488 121.282 92.9175 120.825Z" fill="#E6EAEC"/>
<path d="M34.9167 95.5286L30.4601 97.2111L29.3383 101.796L26.4574 98.0899L21.6511 98.5148L24.2068 94.4948L22.468 90.2103L27.0531 91.3321L30.7017 88.3371L30.9546 93.0871L34.9167 95.5286Z" fill="black"/>
<path d="M96.0624 28.9898L90.1532 26.3862L84.8466 29.7903L85.3874 23.4907L80.4438 19.394L86.7333 17.9313L89.0506 12.0235L92.2841 17.5599L98.64 17.9287L94.4855 22.7581L96.0624 28.9898Z" fill="black"/>
<path d="M156.539 91.1964L152.709 92.4177L151.583 96.1443L149.22 92.8932L145.271 93.0276L147.659 89.8099L146.323 86.0385L150.108 87.2788L153.359 84.9155L153.321 88.8083L156.539 91.1964Z" fill="black"/>
</svg>
