<svg width="254" height="228" viewBox="0 0 254 228" fill="none" xmlns="http://www.w3.org/2000/svg">
<g opacity="0.5" clip-path="url(#clip0_65_981)">
<path d="M80.5678 193.652C79.4648 190.088 75.7311 188.119 72.1672 189.222L69.5536 190.031L63.1384 192.017L67.1094 204.847L76.1381 202.053C79.7021 200.949 81.6709 197.216 80.5678 193.652Z" stroke="black" stroke-width="3" stroke-miterlimit="10"/>
<path d="M73.9833 181.631C72.8802 178.067 69.1466 176.098 65.5826 177.201L59.1675 179.187L63.1385 192.017L69.5536 190.031C73.1176 188.928 75.0863 185.195 73.9833 181.631Z" stroke="black" stroke-width="3" stroke-miterlimit="10"/>
<path d="M53.1417 223.229L104.463 207.346L88.5791 156.024L37.2578 171.908L53.1417 223.229ZM63.1384 192.017L59.1675 179.186L65.5826 177.201C69.1466 176.098 72.8802 178.067 73.9833 181.631C75.0863 185.195 73.1176 188.928 69.5536 190.031L72.1672 189.222C75.7312 188.119 79.4648 190.088 80.5678 193.652C81.6709 197.216 79.7021 200.95 76.1382 202.053L67.1094 204.847L63.1384 192.017Z" stroke="black" stroke-width="3" stroke-miterlimit="10"/>
<path d="M141.701 173.299C143.025 177.576 140.646 182.088 136.369 183.411C132.093 184.735 127.581 182.356 126.258 178.079L123.095 167.863C121.772 163.586 124.151 159.074 128.428 157.751C132.704 156.427 137.216 158.806 138.539 163.083M98.7959 152.862L114.68 204.184L166.001 188.3L150.117 136.978L98.7959 152.862Z" stroke="black" stroke-width="3" stroke-miterlimit="10"/>
<path d="M81.2261 104.926L75.9989 106.544L76.6802 125.99L91.6489 121.358L81.2261 104.926Z" stroke="black" stroke-width="3" stroke-miterlimit="10"/>
<path d="M76.799 125.954L77.1099 137.053L76.6802 125.991L91.6489 121.358M76.799 125.954L76.5614 126.027M76.799 125.954L76.1178 106.508L81.2261 104.927L91.6489 121.358M91.6489 121.358L91.8865 121.284M91.6489 121.358L97.6622 130.692M100.302 84.9632L48.981 100.847L64.8649 152.168L116.186 136.284L100.302 84.9632Z" stroke="black" stroke-width="3" stroke-miterlimit="10"/>
</g>
<g clip-path="url(#clip1_65_981)">
<path d="M133.468 90.758C134.303 88.1603 135.137 85.5626 136.008 83.0415C141.31 68.0675 146.611 53.0935 151.949 38.1961C152.294 37.2889 152.676 36.4582 153.058 35.6276C154.192 35.8207 155.289 35.9373 156.424 36.1304C157.165 36.318 157.988 36.4055 158.729 36.5931C158.384 37.5003 158.075 38.484 157.73 39.3912C156.777 42.0125 155.787 44.5574 154.834 47.1787C154.189 48.8164 153.699 50.5069 153.173 52.1209C151.911 55.7259 150.65 59.331 149.351 62.8595C147.917 66.9181 146.483 70.9768 145.049 75.0354C144.141 77.4801 143.269 80.0012 142.48 82.4222C141.835 84.0599 141.346 85.7504 140.701 87.388C140.392 88.3717 140.084 89.3554 139.813 90.4156C138.907 90.4283 137.92 90.5413 137.015 90.554C135.836 90.5376 134.758 91.0039 133.468 90.758Z" fill="#45AAB8"/>
<path d="M170.473 38.2764C167.65 46.217 164.863 54.234 161.958 62.2748C158.563 72.0061 155.169 81.7373 151.774 91.4686C151.766 91.7218 151.602 91.9222 151.438 92.1225C149.874 91.8475 148.338 91.9021 146.839 92.0332C146.683 91.9804 146.683 91.9804 146.527 91.9276C146.134 91.9221 145.622 91.9403 145.229 91.9348C145.393 91.7344 145.475 91.6343 145.639 91.4339C146.12 89.9966 146.601 88.5593 147.119 87.1985C148.035 84.5007 149.107 81.8556 150.024 79.1578C150.986 76.2832 151.984 73.4852 152.946 70.6106C153.599 68.7197 154.372 66.8052 155.025 64.9143C156.278 61.5625 157.376 58.1578 158.51 54.8296C159.591 51.9314 160.635 48.9566 161.715 46.0584C162.578 43.7904 163.322 41.5462 164.029 39.2254C164.284 38.6716 164.383 38.065 164.482 37.4584C165.424 37.5221 166.402 37.6624 167.344 37.7262C168.323 37.8665 169.457 38.0596 170.473 38.2764Z" fill="#047B8E"/>
<path d="M173.678 29.5053C173.633 29.682 173.633 29.682 173.55 29.7822C172.897 31.6731 172.088 33.5111 171.435 35.402C170.456 35.2617 169.322 35.0686 168.343 34.9283C167.364 34.788 166.504 34.6241 165.489 34.4073C165.571 34.3071 165.809 34.2597 165.772 34.1832C166.507 32.1922 167.124 30.2248 167.741 28.2574C169.268 28.456 170.64 28.6017 172.167 28.8003C172.753 28.9351 173.174 29.2703 173.678 29.5053Z" fill="#055868"/>
<path d="M154.056 32.8293C154.101 32.6526 154.028 32.4996 154.192 32.2992C154.845 30.4084 155.581 28.4173 156.234 26.5264C156.783 26.5847 157.332 26.643 157.725 26.6485C158.036 26.7542 158.228 26.8835 158.503 26.9127C159.637 27.1058 160.735 27.2224 161.869 27.4155C161.47 28.7526 161.034 30.0132 160.635 31.3503C160.372 32.1572 160.31 32.8404 160.047 33.6474C159.068 33.5071 158.126 33.4433 157.148 33.303C156.014 33.1099 155.035 32.9696 154.056 32.8293Z" fill="#388691"/>
<path d="M146.839 92.0332C148.338 91.902 149.91 91.9239 151.438 92.1225C151.274 92.3229 151.146 92.5997 150.982 92.8001C148.357 96.0062 145.696 99.1358 142.915 102.289C141.849 103.592 140.508 104.865 139.441 106.167C139.286 106.114 139.249 106.038 139.094 105.985C139.422 105.584 139.676 105.031 139.922 104.73C141.226 103.38 141.753 101.766 142.627 100.334C143.583 98.8024 144.42 97.2941 145.257 95.7857C146.004 94.6308 146.714 93.3994 147.342 92.2681C147.15 92.1388 146.994 92.086 146.839 92.0332Z" fill="#E9C293"/>
<path d="M133.468 90.7579C134.758 91.0038 135.836 90.5375 137.097 90.4537C136.99 91.3135 136.919 92.2499 136.811 93.1097C136.605 94.5761 136.48 95.9424 136.274 97.4088C136.067 98.8752 136.016 100.395 135.965 101.914C135.923 103.18 135.88 104.446 135.875 105.788C135.637 105.836 135.481 105.783 135.244 105.83C135.04 104.865 134.837 103.899 134.752 102.91C134.294 98.9772 133.991 95.0971 133.533 91.1641C133.615 91.0639 133.542 90.9109 133.468 90.7579Z" fill="#FCE2C0"/>
<path d="M135.244 105.83C135.481 105.783 135.637 105.836 135.875 105.788C136.03 105.841 136.186 105.894 136.341 105.947C136.853 105.929 137.484 105.887 138.033 105.945C138.426 105.951 138.7 105.98 139.093 105.985C139.249 106.038 139.286 106.115 139.441 106.167C139.396 106.344 139.351 106.521 139.269 106.621C138.531 107.523 137.755 108.348 137.017 109.25C136.853 109.45 136.378 109.545 136.022 109.616C135.903 109.639 135.518 109.381 135.445 109.228C135.442 108.138 135.402 106.973 135.244 105.83Z" fill="#454444"/>
<path d="M168.343 34.9283C169.322 35.0685 170.456 35.2616 171.435 35.4019C171.126 36.3856 170.781 37.2928 170.473 38.2765C169.457 38.0597 168.36 37.9431 167.344 37.7263C167.653 36.7426 167.998 35.8354 168.343 34.9283Z" fill="#BBBDBE"/>
<path d="M154.056 32.8291C155.035 32.9694 156.169 33.1625 157.148 33.3028C156.958 34.2628 156.613 35.17 156.423 36.13C155.289 35.9369 154.192 35.8203 153.058 35.6272C153.366 34.6435 153.711 33.7363 154.056 32.8291Z" fill="#E4E6E6"/>
<path d="M161.713 27.3627C160.579 27.1696 159.481 27.053 158.347 26.8599C158.073 26.8307 157.88 26.7014 157.569 26.5957C158.2 26.5538 158.831 26.5119 159.498 26.5465C164.29 26.7652 168.745 27.6378 173.027 28.9641C173.457 29.0461 173.924 29.2045 173.44 29.5525C172.937 29.3175 172.552 29.0588 172.085 28.9003C170.677 28.678 169.186 28.556 167.659 28.3574C165.783 27.9766 163.826 27.6961 161.713 27.3627Z" fill="#104D58"/>
<path d="M173.551 29.7823C173.514 29.7056 173.632 29.6819 173.596 29.6052C173.596 29.6052 173.514 29.7056 173.551 29.7823Z" fill="#104D58"/>
<path d="M164.445 37.3817C164.346 37.9883 164.21 38.5184 163.992 39.1487C163.248 41.393 162.422 43.7374 161.678 45.9817C160.598 48.8799 159.554 51.8547 158.473 54.7529C157.22 58.1048 156.123 61.5094 154.988 64.8376C154.335 66.7285 153.563 68.643 152.909 70.5339C151.947 73.4085 150.986 76.283 149.987 79.0811C149.07 81.7789 148.035 84.5005 147.082 87.1218C146.601 88.5591 146.12 89.9964 145.602 91.3572C145.557 91.5339 145.393 91.7343 145.192 91.8581C145.037 91.8053 144.799 91.8527 144.644 91.7998C143.727 90.9764 142.154 90.9545 140.828 90.6321C140.791 90.5556 140.791 90.5556 140.672 90.5793C140.361 90.4736 140.05 90.3679 139.858 90.2386C140.166 89.2549 140.438 88.1947 140.746 87.211C141.235 85.5205 141.88 83.8829 142.525 82.2452C143.433 79.8005 144.305 77.2794 145.094 74.8584C146.528 70.7998 147.962 66.7411 149.396 62.6825C150.658 59.0775 151.92 55.4724 153.218 51.9439C153.863 50.3062 154.352 48.6157 154.879 47.0017C155.832 44.3804 156.822 41.8355 157.775 39.2142C158.12 38.307 158.429 37.3233 158.774 36.4161C159.753 36.5564 160.85 36.673 161.829 36.8133C162.725 37.0538 163.585 37.2177 164.445 37.3817Z" fill="#1A93A5"/>
<path d="M139.895 90.3155C140.206 90.4211 140.517 90.5268 140.709 90.6561C140.537 91.1097 140.446 91.4631 140.274 91.9167C140.121 92.9532 140.087 93.9661 139.778 94.9498C139.416 96.3634 139.018 97.7005 138.619 99.0376C138.483 99.5677 138.347 100.098 138.211 100.628C138.039 101.081 137.866 101.535 137.694 101.989C137.64 102.419 137.742 102.901 137.569 103.355C137.224 104.262 136.723 105.116 136.378 106.024C136.223 105.971 136.067 105.918 135.912 105.865C135.954 104.599 135.96 103.256 136.002 101.99C136.053 100.471 136.26 99.0047 136.311 97.4855C136.398 96.0427 136.642 94.6528 136.848 93.1864C136.956 92.3265 137.026 91.3902 137.134 90.5304C138.002 90.4411 138.907 90.4284 139.895 90.3155Z" fill="#FDD5A5"/>
<path d="M161.747 36.9137C160.768 36.7734 159.671 36.6568 158.692 36.5165C157.951 36.3289 157.128 36.2414 156.387 36.0538C156.576 35.0938 156.921 34.1866 157.111 33.2266C158.09 33.3669 159.032 33.4306 160.01 33.5709C160.87 33.7349 161.849 33.8752 162.709 34.0391C162.4 35.0228 162.055 35.93 161.747 36.9137Z" fill="#DBDDDE"/>
<path d="M144.68 91.8766C144.836 91.9295 145.073 91.8821 145.229 91.9349C145.622 91.9404 146.134 91.9222 146.527 91.9277C146.683 91.9805 146.683 91.9805 146.838 92.0333C146.994 92.0862 147.305 92.1918 147.497 92.3212C146.751 93.4761 146.004 94.631 145.413 95.8388C144.575 97.3471 143.775 98.9319 142.782 100.387C141.789 101.843 141.382 103.433 140.078 104.783C139.713 105.107 139.577 105.637 139.249 106.038C138.856 106.033 138.581 106.004 138.188 105.998C138.952 104.337 139.753 102.752 140.516 101.091C141.153 99.7061 141.753 98.2451 142.233 96.8078C142.952 95.3232 143.515 93.7857 144.233 92.3011C144.279 92.1244 144.479 92.0005 144.68 91.8766Z" fill="#F1C793"/>
<path d="M161.747 36.9138C162.092 36.0066 162.4 35.0229 162.745 34.1158C163.687 34.1795 164.547 34.3435 165.489 34.4073C166.468 34.5475 167.328 34.7115 168.343 34.9283C167.998 35.8355 167.69 36.8192 167.344 37.7263C166.402 37.6626 165.424 37.5223 164.482 37.4585C163.585 37.2181 162.725 37.0541 161.747 36.9138Z" fill="#CFD1D2"/>
<path d="M146.839 92.0338C146.683 91.9808 146.683 91.9808 146.527 91.9277C146.564 92.0044 146.683 91.9808 146.839 92.0338Z" fill="#E9C293"/>
<path d="M165.489 34.4069C164.547 34.3432 163.687 34.1792 162.745 34.1154C161.885 33.9515 160.907 33.8112 160.047 33.6472C160.191 32.8639 160.335 32.0806 160.635 31.3501C161.034 30.013 161.47 28.7524 161.869 27.4153C163.863 27.7724 165.939 28.0293 167.933 28.3864C167.316 30.3538 166.581 32.3448 165.964 34.3122C165.845 34.3359 165.608 34.3832 165.489 34.4069Z" fill="#14707F"/>
<path d="M144.68 91.8766C144.479 92.0004 144.279 92.1243 144.197 92.2245C143.478 93.7092 142.76 95.1938 142.197 96.7313C141.56 98.1157 141.079 99.553 140.48 101.014C139.716 102.675 138.915 104.26 138.152 105.921C137.64 105.94 137.009 105.982 136.46 105.923C136.805 105.016 137.306 104.162 137.651 103.255C137.824 102.801 137.722 102.318 137.775 101.888C137.829 101.458 138.121 100.981 138.293 100.528C138.429 99.9974 138.565 99.4673 138.7 98.9372C139.099 97.6002 139.58 96.1629 139.86 94.8495C140.169 93.8658 140.203 92.8529 140.355 91.8164C140.409 91.3865 140.618 91.0094 140.791 90.5558L140.947 90.6086C142.228 91.1078 143.764 91.0532 144.68 91.8766Z" fill="#FCD19C"/>
<path d="M140.865 90.7094L140.709 90.6558C140.828 90.6321 140.865 90.7094 140.865 90.7094Z" fill="#FDD5A5"/>
</g>
<defs>
<clipPath id="clip0_65_981">
<rect width="124.359" height="124.359" fill="white" transform="translate(14.3228 108.319) rotate(-17.1973)"/>
</clipPath>
<clipPath id="clip1_65_981">
<rect width="121.136" height="84.8865" fill="white" transform="matrix(0.980707 -0.195482 0.433147 0.901323 75.335 40.2207)"/>
</clipPath>
</defs>
</svg>
