<svg width="47" height="21" viewBox="0 0 47 21" fill="none" xmlns="http://www.w3.org/2000/svg">
<path d="M10.2408 0C4.58912 0 0 4.5826 0 10.2408C0 15.8989 4.5826 20.4815 10.2408 20.4815C15.8989 20.4815 20.4815 15.8989 20.4815 10.2408C20.4815 4.5826 15.8989 0 10.2408 0ZM10.2408 19.3538C5.20839 19.3538 1.12772 15.2732 1.12772 10.2408C1.12772 5.2084 5.20839 1.12772 10.2408 1.12772C15.2732 1.12772 19.3538 5.2084 19.3538 10.2408C19.3538 15.2732 15.2732 19.3538 10.2408 19.3538Z" fill="#8DC641"/>
<path d="M13.7743 7.87648L11.5217 11.3075H13.7743V7.87648ZM14.6238 6.48828V11.3141H15.6149V12.1867H14.6238V13.9914H13.7678V12.1867H10.5821V11.248L13.7936 6.49488L14.6238 6.48828ZM9.64255 13.1122V13.9848H4.86719V13.9584C4.91224 13.1386 5.11819 12.5371 5.51721 12.0413C5.83899 11.6314 6.23158 11.3273 7.03605 10.8117C7.03605 10.8117 7.31922 10.6266 7.40289 10.5737C7.83408 10.2894 8.11082 10.0647 8.33607 9.80678C8.61281 9.47628 8.7544 9.11928 8.7544 8.69628C8.7544 7.87648 8.18805 7.31458 7.37714 7.31458C6.43109 7.31458 5.9484 8.05498 5.92266 9.15898V9.17878H5.07314V9.15898L5.0667 8.96068C5.0667 7.47988 6.00632 6.48828 7.42219 6.48828C8.80589 6.48828 9.70685 7.34768 9.70685 8.67638C9.70685 9.35728 9.46875 9.90598 9.01185 10.3886C8.67073 10.7588 8.31677 11.0034 7.52517 11.4992C7.5123 11.5058 7.50586 11.5124 7.49299 11.519C7.45437 11.5389 7.28061 11.6446 7.23556 11.6777C6.85585 11.909 6.62416 12.0743 6.41821 12.2726C6.16722 12.5172 5.99989 12.7883 5.92266 13.1056H9.64255V13.1122Z" fill="black"/>
<path d="M24.9023 5.21094H29.0861C30.126 5.21094 30.9419 5.45894 31.5419 5.94694C32.1419 6.44294 32.4458 7.17084 32.4458 8.14674C32.4458 9.06674 32.1659 9.79464 31.6059 10.3306C31.0459 10.8666 30.286 11.1386 29.318 11.1386H26.5982V14.8503H24.9023V5.21094ZM26.5982 6.62684V9.78664H28.9581C30.19 9.78664 30.7979 9.25874 30.7979 8.20274C30.7979 7.15484 30.134 6.63484 28.8061 6.63484L26.5982 6.62684Z" fill="black"/>
<path d="M33.3001 10.028C33.4601 8.44406 34.484 7.66016 36.3639 7.66016C37.2358 7.66016 37.9398 7.82806 38.4598 8.17206C38.9797 8.51606 39.2357 9.05206 39.2357 9.77196V13.3158C39.2357 13.5158 39.2597 13.6518 39.3077 13.7238C39.3557 13.7958 39.4517 13.8358 39.5957 13.8358C39.7077 13.8358 39.8197 13.8278 39.9477 13.8118V14.8997C39.5477 14.9957 39.2197 15.0517 38.9477 15.0517C38.2918 15.0517 37.9078 14.7717 37.8118 14.2117C37.2278 14.7717 36.4039 15.0517 35.356 15.0517C34.636 15.0517 34.06 14.8677 33.6361 14.4917C33.2121 14.1157 32.9961 13.6118 32.9961 12.9638C32.9961 12.7638 33.0201 12.5798 33.0601 12.4119C33.1081 12.2439 33.1561 12.0919 33.2201 11.9639C33.2761 11.8359 33.3721 11.7239 33.5081 11.6119C33.6361 11.4999 33.7481 11.4119 33.8361 11.3399C33.9241 11.2679 34.06 11.2039 34.26 11.1399C34.452 11.0759 34.596 11.0279 34.692 10.9959C34.788 10.9639 34.948 10.9319 35.188 10.8919C35.42 10.86 35.5799 10.828 35.6519 10.82C35.7319 10.804 35.8919 10.788 36.1319 10.756C36.6839 10.684 37.0599 10.62 37.2598 10.572C37.4598 10.524 37.5958 10.444 37.6678 10.348C37.7318 10.276 37.7638 10.108 37.7638 9.84396C37.7638 9.14006 37.2838 8.78806 36.3239 8.78806C35.8199 8.78806 35.452 8.88406 35.212 9.07606C34.98 9.26806 34.828 9.58796 34.764 10.036H33.3001V10.028ZM37.7398 11.3559C37.6198 11.4199 37.4838 11.4759 37.3318 11.5239C37.1798 11.5719 37.0519 11.6039 36.9559 11.6199C36.8599 11.6359 36.7159 11.6519 36.5079 11.6839C36.3079 11.7079 36.1719 11.7319 36.1079 11.7399C35.9159 11.7639 35.7719 11.7959 35.6599 11.8119C35.5479 11.8359 35.42 11.8759 35.26 11.9239C35.1 11.9799 34.98 12.0439 34.892 12.1239C34.804 12.2039 34.732 12.3079 34.668 12.4358C34.604 12.5638 34.572 12.7238 34.572 12.8998C34.572 13.2358 34.684 13.4918 34.9 13.6678C35.124 13.8518 35.428 13.9398 35.8279 13.9398C36.5159 13.9398 37.0439 13.7558 37.4118 13.3878C37.6198 13.1798 37.7238 12.7798 37.7238 12.1799V11.3559H37.7398Z" fill="black"/>
<path d="M40.5254 7.70508L43.1665 14.9113L42.9198 15.6901C42.8149 16.0302 42.3449 16.5573 41.7938 16.5814H41.0646V18.0472H41.9966C43.0642 18.0472 44.0072 17.3513 44.3219 16.3311L44.6879 15.1447L44.6884 15.1431L47.0001 7.70508H45.3013L43.8663 12.3222L42.2448 7.70508H40.5254Z" fill="black"/>
</svg>
