<svg width="44" height="14" viewBox="0 0 44 14" fill="none" xmlns="http://www.w3.org/2000/svg">
<path d="M11.7721 0.312159L8.29434 9.33436L7.955 7.46486C7.10675 5.18896 5.24061 2.83186 3.03516 1.93776L6.2585 13.561H9.99074L15.5892 0.312159H11.7721ZM14.7409 13.561L16.9464 0.312159H20.509L18.3036 13.561H14.7409ZM35.9471 8.84666C36.2016 8.11516 37.3891 5.10776 37.3891 5.10776C37.3891 5.10776 37.6436 4.37616 37.8981 3.80726L38.1525 4.94516L39.0008 8.76536H35.9471V8.84666ZM40.2732 0.312159H37.5588C36.7105 0.312159 36.0319 0.555959 35.6926 1.45006L30.4335 13.561H34.1658C34.1658 13.561 34.7596 11.9354 34.9292 11.5289C35.3533 11.5289 39.0008 11.5289 39.5097 11.5289C39.5946 12.0166 39.9339 13.4797 39.9339 13.4797H43.242C43.1572 13.561 40.2732 0.312159 40.2732 0.312159ZM31.1969 0.637259C30.5183 0.393459 29.4156 0.0683594 27.9736 0.0683594C24.4958 0.0683594 21.951 1.85646 21.951 4.45746C21.951 6.32696 23.7323 7.46486 25.0895 8.03386C26.4467 8.68406 26.9557 9.09046 26.9557 9.65946C26.9557 10.5536 25.853 10.96 24.8351 10.96C23.393 10.96 22.6296 10.7974 21.5269 10.2285L21.018 10.0659L20.509 12.992C21.3573 13.3984 22.8841 13.6423 24.4958 13.7235C28.2281 13.7235 30.688 11.9354 30.688 9.17176C30.688 7.62746 29.7549 6.48946 27.7191 5.59546C26.4467 4.94516 25.6833 4.53876 25.7681 3.96976C25.7681 3.40086 26.4467 2.83186 27.8039 2.83186C28.737 2.83186 29.6701 2.99446 30.4335 3.31956L30.7728 3.48216C30.688 3.48216 31.1969 0.637259 31.1969 0.637259Z" fill="#1B548E"/>
<path d="M5.56322 0.0683594H0V0.324059C4.33604 1.51736 7.11765 4.33026 8.3448 7.65456L7.11765 1.26166C6.87221 0.324059 6.29953 0.0683594 5.56322 0.0683594Z" fill="#E89F3E"/>
</svg>
